M48
METRIC,0000.00
T01C0.3
T02C0.486
T03C0.5
T04C0.7
T05C0.9
T06C1.2
%
T01
X+002852Y+003014
X+002862Y+002904
X+002772Y+002674
X+002772Y+002564
X+003052Y+002684
X+003332Y+002464
X+003550Y+002470
X+003902Y+002441
X+004472Y+002484
X+004505Y+003375
X+004480Y+003460
X+004512Y+003684
X+004760Y+004340
X+005302Y+004404
X+005350Y+003910
X+003612Y+004164
X+003352Y+003704
X+003132Y+003814
X+002772Y+004074
X+002662Y+004054
X+002602Y+003984
X+002502Y+003924
X+002412Y+003864
X+002332Y+003794
X+002232Y+003734
X+001942Y+003174
X+001780Y+002140
X+001700Y+002060
X+002140Y+001890
X+002240Y+001890
X+002340Y+001890
X+002430Y+001890
X+003332Y+003024
X+003400Y+003240
X+003392Y+003454
X+001550Y+004300
T02
X+001120Y+002260
X+001130Y+001880
X+001920Y+002000
X+002132Y+002414
X+002640Y+002670
X+003732Y+002604
X+004170Y+002590
X+003870Y+003200
X+003960Y+003570
X+004240Y+003660
T03
X+002002Y+003554
X+001852Y+003554
T04
X+004122Y+003014
T05
X+001259Y+001290
X+001259Y+001544
X+001513Y+001544
X+001513Y+001290
X+001767Y+001290
X+001767Y+001544
X+002021Y+001544
X+002021Y+001290
X+002275Y+001290
X+002275Y+001544
X+002529Y+001544
X+002529Y+001290
X+002783Y+001290
X+002783Y+001544
X+003037Y+001544
X+003037Y+001290
X+003291Y+001290
X+003291Y+001544
X+003545Y+001544
X+003545Y+001290
X+003799Y+001290
X+003799Y+001544
X+004053Y+001544
X+004053Y+001290
X+004307Y+001290
X+004307Y+001544
X+004561Y+001544
X+004561Y+001290
X+004815Y+001290
X+004815Y+001544
X+005069Y+001544
X+005069Y+001290
X+005323Y+001290
X+005323Y+001544
X+005577Y+001544
X+005577Y+001290
X+005832Y+001290
X+005832Y+001544
X+005831Y+001808
X+005577Y+001808
X+005577Y+002062
X+005831Y+002062
X+005832Y+002322
X+005831Y+002570
X+005577Y+002570
X+005577Y+002316
X+005577Y+002824
X+005577Y+003078
X+005831Y+003078
X+005831Y+003332
X+005577Y+003332
X+005577Y+003586
X+005831Y+003586
X+005831Y+003840
X+005577Y+003840
X+005577Y+004094
X+005831Y+004094
X+005831Y+004348
X+005577Y+004348
X+005577Y+004612
X+005323Y+004612
X+005323Y+004866
X+005577Y+004866
X+005831Y+004866
X+005831Y+004612
X+005069Y+004612
X+004815Y+004612
X+004561Y+004612
X+004561Y+004866
X+004815Y+004866
X+005069Y+004866
X+004307Y+004866
X+004053Y+004866
X+003799Y+004866
X+003799Y+004612
X+004053Y+004612
X+004307Y+004612
X+003545Y+004612
X+003545Y+004866
X+003291Y+004866
X+003291Y+004612
X+003037Y+004612
X+003037Y+004866
X+002783Y+004866
X+002529Y+004866
X+002275Y+004866
X+002021Y+004866
X+002021Y+004612
X+002275Y+004612
X+002529Y+004612
X+002783Y+004612
X+001767Y+004612
X+001513Y+004612
X+001259Y+004612
X+001259Y+004866
X+001513Y+004866
X+001767Y+004866
X+001312Y+003834
X+005831Y+002824
T06
X+001312Y+004084
X+001312Y+003580
T00
M30
