G04 DipTrace 3.2.0.1*
G04 Верхняямаркировка.gbr*
%MOMM*%
G04 #@! TF.FileFunction,Legend,Top*
G04 #@! TF.Part,Single*
%ADD10C,0.25*%
%ADD22C,0.1*%
%ADD23C,0.15*%
%ADD30O,0.60012X0.59973*%
%ADD35O,0.40052X0.40082*%
%ADD40C,0.4165*%
%ADD91C,0.11765*%
%ADD92C,0.07843*%
%ADD93C,0.27451*%
%ADD94C,0.15686*%
%FSLAX35Y35*%
G04*
G71*
G90*
G75*
G01*
G04 TopSilk*
%LPD*%
X1812033Y3924000D2*
D22*
X2421977D1*
X1812033Y4324000D2*
X2421977D1*
X1812033Y3924000D2*
Y4024000D1*
Y4324000D2*
Y4224000D1*
X2421977Y3924000D2*
Y4024000D1*
Y4324000D2*
Y4224000D1*
X1862080Y2333920D2*
D10*
Y2274080D1*
X2021920Y2333920D2*
Y2274080D1*
X2072080Y2333920D2*
Y2274080D1*
X2231920Y2333920D2*
Y2274080D1*
X1214986Y3040023D2*
Y3160025D1*
X1385014Y3040023D2*
Y3160025D1*
D30*
X1300000Y2794986D3*
X2141983Y1162026D2*
D22*
Y1669999D1*
X1131966Y1163001D2*
D23*
Y1671025D1*
X1131000Y1674000D2*
X5702150Y1671025D1*
X1131000Y1163975D2*
X5702150Y1163001D1*
X2660993Y1161000D2*
D22*
Y1669024D1*
X3420920Y1161000D2*
Y1669024D1*
X5190865Y1161000D2*
Y1669024D1*
X5959000Y1671025D2*
D23*
X5705047D1*
X5959000Y1163001D2*
Y1671025D1*
Y1163001D2*
X5705047D1*
Y1671025D1*
X5958000Y4475000D2*
X5450000D1*
X5958000Y1681000D2*
Y4475000D1*
X5450000Y1681000D2*
Y4475000D1*
X5958000Y1681000D2*
X5450000D1*
X5958000Y3970962D2*
D22*
X5450000D1*
X5192278Y4488018D2*
Y4996000D1*
X1131998Y4491021D2*
D23*
Y4992997D1*
X5956083Y4994015D1*
X1132963Y4490003D2*
X5957048D1*
X3161414Y4487000D2*
D22*
Y4994982D1*
X2662022Y4487000D2*
Y4994982D1*
X5450901Y4493973D2*
Y4987958D1*
X4941858Y4493006D2*
Y4988976D1*
X5957048Y4493973D2*
D23*
Y4992997D1*
X5450418Y4739006D2*
D22*
X4942340D1*
G36*
X4946200Y4986024D2*
Y4898985D1*
X5034981Y4988111D1*
X5028709Y4991724D1*
X4946200Y4986024D1*
G37*
G36*
X5444146Y4987551D2*
X5356812D1*
X5446076Y4898476D1*
Y4987551D1*
X5444146D1*
G37*
G36*
X4946200Y4497231D2*
X5033051D1*
X4944270Y4586306D1*
X4940410Y4580045D1*
X4946200Y4497231D1*
G37*
G36*
X5446076Y4496417D2*
Y4583405D1*
X5356812Y4494330D1*
X5363085Y4490665D1*
X5446076Y4496417D1*
G37*
X1448014Y3935007D2*
D23*
X1179987D1*
X1449000Y3444011D2*
Y3960992D1*
X1448014Y3443000D2*
X1175986D1*
X1175000Y3444011D2*
Y3960992D1*
Y3958036D2*
Y4006039D1*
Y4049996D2*
Y4097998D1*
Y4135965D2*
Y4183967D1*
X1233006Y4221000D2*
X1185001D1*
X1332988D2*
X1285011D1*
X1438013D2*
X1390008D1*
X1449000Y3958970D2*
Y4006972D1*
Y4051007D2*
Y4099010D1*
Y4136976D2*
Y4184979D1*
D35*
X1679474Y2393997D3*
X1426480Y2644044D2*
D10*
X1402476D1*
X1184468D2*
X1019500D1*
Y1883956D1*
X1184468D1*
X1426480D2*
X1402476D1*
X3301920Y3734080D2*
X4602080D1*
Y2433920D1*
X3301920D1*
Y3734080D1*
G36*
D2*
Y3643980D1*
Y3734080D1*
G37*
G36*
D2*
Y3633950D1*
X3402050Y3734080D1*
X3301920D1*
G37*
D40*
X3180965Y3747935D3*
X2013892Y3388881D2*
D10*
X1836104D1*
X1848818Y2779300D2*
G02X1823390Y2804689I14J25442D01*
G01*
X2026606D2*
G02X2001178Y2779300I-25442J53D01*
G01*
X1848818D1*
X1836104Y3388881D2*
Y3350797D1*
X1823390D2*
Y2804689D1*
X2013892Y3388881D2*
Y3350797D1*
X2026606D2*
X2013892D1*
X2026606D2*
Y2804689D1*
X1823390Y3350797D2*
X1836104D1*
X2013892D1*
X2352000Y3324019D2*
X2387040Y3323860D1*
X2172000Y3333983D2*
Y2824017D1*
X2352000Y2833981D2*
X2387040Y2834193D1*
X2572000Y3333983D2*
Y2824017D1*
X5450000Y1700000D2*
D22*
X5140000Y2010000D1*
X5702000Y1164000D2*
D23*
X5702120Y1669010D1*
X5450000Y4490000D2*
D22*
X5140000Y4180000D1*
X2084859Y3885592D2*
D91*
Y3809026D1*
X2111139D1*
X2119899Y3812732D1*
X2122797Y3816354D1*
X2125695Y3823598D1*
Y3834548D1*
X2122797Y3841876D1*
X2119899Y3845498D1*
X2111139Y3849120D1*
X2119899Y3852826D1*
X2122797Y3856448D1*
X2125695Y3863692D1*
Y3871020D1*
X2122797Y3878264D1*
X2119899Y3881970D1*
X2111139Y3885592D1*
X2084859D1*
Y3849120D2*
X2111139D1*
X2144518Y3870936D2*
X2150381Y3874642D1*
X2159141Y3885508D1*
Y3809026D1*
X1543602Y3444144D2*
X1536358Y3441246D1*
X1529030Y3435384D1*
X1525408Y3429589D1*
Y3417931D1*
X1529030Y3412069D1*
X1536358Y3406273D1*
X1543602Y3403309D1*
X1554552Y3400411D1*
X1572830D1*
X1583696Y3403309D1*
X1591024Y3406273D1*
X1598268Y3412069D1*
X1601974Y3417931D1*
Y3429588D1*
X1598268Y3435383D1*
X1591024Y3441246D1*
X1583696Y3444143D1*
X1540064Y3462967D2*
X1536358Y3468830D1*
X1525492Y3477590D1*
X1601974Y3477589D1*
X1543602Y3081037D2*
X1536358Y3078140D1*
X1529030Y3072277D1*
X1525408Y3066482D1*
Y3054825D1*
X1529030Y3048962D1*
X1536358Y3043167D1*
X1543602Y3040202D1*
X1554552Y3037305D1*
X1572830D1*
X1583696Y3040202D1*
X1591024Y3043167D1*
X1598268Y3048962D1*
X1601974Y3054825D1*
Y3066482D1*
X1598268Y3072277D1*
X1591024Y3078140D1*
X1583696Y3081037D1*
X1543686Y3102826D2*
X1540064D1*
X1532736Y3105723D1*
X1529114Y3108621D1*
X1525492Y3114483D1*
Y3126141D1*
X1529114Y3131936D1*
X1532736Y3134833D1*
X1540064Y3137798D1*
X1547308D1*
X1554636Y3134833D1*
X1565502Y3129038D1*
X1601974Y3099861D1*
Y3140696D1*
X1944037Y2047398D2*
X1941139Y2054642D1*
X1935277Y2061970D1*
X1929482Y2065592D1*
X1917824D1*
X1911962Y2061970D1*
X1906167Y2054642D1*
X1903202Y2047398D1*
X1900304Y2036448D1*
Y2018170D1*
X1903202Y2007304D1*
X1906167Y1999976D1*
X1911962Y1992732D1*
X1917824Y1989026D1*
X1929482D1*
X1935277Y1992732D1*
X1941139Y1999976D1*
X1944037Y2007304D1*
X1968723Y2065508D2*
X2000731D1*
X1983278Y2036364D1*
X1992038D1*
X1997833Y2032742D1*
X2000731Y2029120D1*
X2003696Y2018170D1*
Y2010926D1*
X2000731Y1999976D1*
X1994936Y1992648D1*
X1986176Y1989026D1*
X1977416D1*
X1968723Y1992648D1*
X1965825Y1996354D1*
X1962861Y2003598D1*
X2152588Y2047398D2*
X2149691Y2054642D1*
X2143828Y2061970D1*
X2138033Y2065592D1*
X2126376D1*
X2120513Y2061970D1*
X2114718Y2054642D1*
X2111753Y2047398D1*
X2108856Y2036448D1*
Y2018170D1*
X2111753Y2007304D1*
X2114718Y1999976D1*
X2120513Y1992732D1*
X2126376Y1989026D1*
X2138033D1*
X2143828Y1992732D1*
X2149691Y1999976D1*
X2152588Y2007304D1*
X2200589Y1989026D2*
Y2065508D1*
X2171412Y2014548D1*
X2215144D1*
X2579037Y3482398D2*
X2576139Y3489642D1*
X2570277Y3496970D1*
X2564482Y3500592D1*
X2552824D1*
X2546962Y3496970D1*
X2541167Y3489642D1*
X2538202Y3482398D1*
X2535304Y3471448D1*
Y3453170D1*
X2538202Y3442304D1*
X2541167Y3434976D1*
X2546962Y3427732D1*
X2552824Y3424026D1*
X2564482D1*
X2570277Y3427732D1*
X2576139Y3434976D1*
X2579037Y3442304D1*
X2632833Y3500508D2*
X2603723D1*
X2600825Y3467742D1*
X2603723Y3471364D1*
X2612483Y3475070D1*
X2621176D1*
X2629936Y3471364D1*
X2635798Y3464120D1*
X2638696Y3453170D1*
Y3445926D1*
X2635798Y3434976D1*
X2629936Y3427648D1*
X2621176Y3424026D1*
X2612483D1*
X2603723Y3427648D1*
X2600825Y3431354D1*
X2597861Y3438598D1*
X2330519Y2582398D2*
X2327622Y2589642D1*
X2321759Y2596970D1*
X2315964Y2600592D1*
X2304307D1*
X2298444Y2596970D1*
X2292649Y2589642D1*
X2289684Y2582398D1*
X2286787Y2571448D1*
Y2553170D1*
X2289684Y2542304D1*
X2292649Y2534976D1*
X2298444Y2527732D1*
X2304307Y2524026D1*
X2315964D1*
X2321759Y2527732D1*
X2327622Y2534976D1*
X2330519Y2542304D1*
X2384316Y2589642D2*
X2381418Y2596886D1*
X2372658Y2600508D1*
X2366863D1*
X2358103Y2596886D1*
X2352241Y2585936D1*
X2349343Y2567742D1*
Y2549548D1*
X2352241Y2534976D1*
X2358103Y2527648D1*
X2366863Y2524026D1*
X2369761D1*
X2378453Y2527648D1*
X2384316Y2534976D1*
X2387213Y2545926D1*
Y2549548D1*
X2384316Y2560498D1*
X2378453Y2567742D1*
X2369761Y2571364D1*
X2366863D1*
X2358103Y2567742D1*
X2352241Y2560498D1*
X2349343Y2549548D1*
X4769037Y2182398D2*
X4766139Y2189642D1*
X4760277Y2196970D1*
X4754482Y2200592D1*
X4742824D1*
X4736962Y2196970D1*
X4731167Y2189642D1*
X4728202Y2182398D1*
X4725304Y2171448D1*
Y2153170D1*
X4728202Y2142304D1*
X4731167Y2134976D1*
X4736962Y2127732D1*
X4742824Y2124026D1*
X4754482D1*
X4760277Y2127732D1*
X4766139Y2134976D1*
X4769037Y2142304D1*
X4799518Y2124026D2*
X4828696Y2200508D1*
X4787861D1*
X4701602Y3877071D2*
X4694358Y3874173D1*
X4687030Y3868311D1*
X4683408Y3862516D1*
Y3850858D1*
X4687030Y3844996D1*
X4694358Y3839201D1*
X4701602Y3836236D1*
X4712552Y3833338D1*
X4730830D1*
X4741696Y3836236D1*
X4749024Y3839201D1*
X4756268Y3844996D1*
X4759974Y3850858D1*
Y3862516D1*
X4756268Y3868311D1*
X4749024Y3874173D1*
X4741696Y3877071D1*
X4683492Y3910450D2*
X4687114Y3901757D1*
X4694358Y3898792D1*
X4701686D1*
X4708930Y3901757D1*
X4712636Y3907552D1*
X4716258Y3919209D1*
X4719880Y3927969D1*
X4727208Y3933764D1*
X4734452Y3936662D1*
X4745402D1*
X4752646Y3933764D1*
X4756352Y3930867D1*
X4759974Y3922107D1*
Y3910449D1*
X4756352Y3901757D1*
X4752646Y3898792D1*
X4745402Y3895894D1*
X4734452D1*
X4727208Y3898792D1*
X4719880Y3904654D1*
X4716258Y3913347D1*
X4712636Y3925005D1*
X4708930Y3930867D1*
X4701686Y3933765D1*
X4694358D1*
X4687114Y3930867D1*
X4683492Y3922107D1*
Y3910450D1*
X1102859Y3141592D2*
Y3065026D1*
X1123277D1*
X1132037Y3068732D1*
X1137899Y3075976D1*
X1140797Y3083304D1*
X1143695Y3094170D1*
Y3112448D1*
X1140797Y3123398D1*
X1137899Y3130642D1*
X1132037Y3137970D1*
X1123277Y3141592D1*
X1102859D1*
X1162518Y3126936D2*
X1168381Y3130642D1*
X1177141Y3141508D1*
Y3065026D1*
X1095311Y3882592D2*
Y3824304D1*
X1092413Y3813354D1*
X1089448Y3809732D1*
X1083653Y3806026D1*
X1077791D1*
X1071996Y3809732D1*
X1069098Y3813354D1*
X1066133Y3824304D1*
Y3831548D1*
X1143312Y3806026D2*
Y3882508D1*
X1114134Y3831548D1*
X1157867D1*
X1544259Y1735592D2*
Y1677304D1*
X1541362Y1666354D1*
X1538397Y1662732D1*
X1532602Y1659026D1*
X1526739D1*
X1520944Y1662732D1*
X1518047Y1666354D1*
X1515082Y1677304D1*
Y1684548D1*
X1598056Y1735508D2*
X1568945D1*
X1566048Y1702742D1*
X1568945Y1706364D1*
X1577705Y1710070D1*
X1586398D1*
X1595158Y1706364D1*
X1601021Y1699120D1*
X1603918Y1688170D1*
Y1680926D1*
X1601021Y1669976D1*
X1595158Y1662648D1*
X1586398Y1659026D1*
X1577705D1*
X1568945Y1662648D1*
X1566048Y1666354D1*
X1563083Y1673598D1*
X1298036Y4341594D2*
Y4283306D1*
X1295139Y4272356D1*
X1292174Y4268734D1*
X1286379Y4265028D1*
X1280516D1*
X1274721Y4268734D1*
X1271824Y4272356D1*
X1268859Y4283306D1*
Y4290550D1*
X1316860Y4301500D2*
X1343140D1*
X1351833Y4305122D1*
X1354798Y4308828D1*
X1357695Y4316072D1*
Y4327022D1*
X1354798Y4334266D1*
X1351833Y4337972D1*
X1343140Y4341594D1*
X1316860D1*
Y4265028D1*
X1376519Y4326937D2*
X1382381Y4330644D1*
X1391141Y4341509D1*
Y4265028D1*
X2811880Y2891860D2*
Y2918072D1*
X2808174Y2926832D1*
X2804552Y2929797D1*
X2797308Y2932695D1*
X2789980D1*
X2782736Y2929797D1*
X2779030Y2926832D1*
X2775408Y2918072D1*
Y2891860D1*
X2851974D1*
X2811880Y2912277D2*
X2851974Y2932695D1*
X2790064Y2951518D2*
X2786358Y2957381D1*
X2775492Y2966141D1*
X2851974D1*
X3914859Y4065592D2*
Y4010926D1*
X3917757Y3999976D1*
X3923619Y3992732D1*
X3932379Y3989026D1*
X3938175D1*
X3946935Y3992732D1*
X3952797Y3999976D1*
X3955695Y4010926D1*
Y4065592D1*
X3974518Y4050936D2*
X3980381Y4054642D1*
X3989141Y4065508D1*
Y3989026D1*
X1886962Y3720592D2*
X1910277Y3684120D1*
Y3644026D1*
X1933592Y3720592D2*
X1910277Y3684120D1*
X1952416Y3705936D2*
X1958278Y3709642D1*
X1967038Y3720508D1*
Y3644026D1*
X2598856Y3265592D2*
X2622171Y3229120D1*
Y3189026D1*
X2645486Y3265592D2*
X2622171Y3229120D1*
X2667274Y3247314D2*
Y3250936D1*
X2670172Y3258264D1*
X2673069Y3261886D1*
X2678932Y3265508D1*
X2690589D1*
X2696384Y3261886D1*
X2699282Y3258264D1*
X2702247Y3250936D1*
Y3243692D1*
X2699282Y3236364D1*
X2693487Y3225498D1*
X2664309Y3189026D1*
X2705144D1*
X5332067Y4016286D2*
X5308684Y4092852D1*
X5285369Y4016286D1*
X5294129Y4041808D2*
X5323307D1*
X5388828Y4067330D2*
X5385863Y4056380D1*
X5380068Y4049052D1*
X5371308Y4045430D1*
X5368410D1*
X5359650Y4049052D1*
X5353855Y4056380D1*
X5350890Y4067330D1*
Y4070952D1*
X5353855Y4081902D1*
X5359650Y4089145D1*
X5368410Y4092767D1*
X5371308D1*
X5380068Y4089145D1*
X5385863Y4081902D1*
X5388828Y4067330D1*
Y4049052D1*
X5385863Y4030858D1*
X5380068Y4019908D1*
X5371308Y4016286D1*
X5365513D1*
X5356753Y4019908D1*
X5353855Y4027236D1*
X4843764Y4419965D2*
X4851008Y4422862D1*
X4858336Y4428725D1*
X4861958Y4434520D1*
Y4446177D1*
X4858336Y4452040D1*
X4851008Y4457835D1*
X4843764Y4460800D1*
X4832814Y4463697D1*
X4814536D1*
X4803671Y4460800D1*
X4796342Y4457835D1*
X4789099Y4452040D1*
X4785392Y4446177D1*
Y4434520D1*
X4789099Y4428725D1*
X4796342Y4422862D1*
X4803670Y4419965D1*
X4847302Y4401141D2*
X4851008Y4395279D1*
X4861874Y4386519D1*
X4785392D1*
X4847302Y4367695D2*
X4851008Y4361833D1*
X4861874Y4353073D1*
X4785392D1*
X5332722Y3608281D2*
X5329824Y3615525D1*
X5323962Y3622853D1*
X5318167Y3626475D1*
X5306509D1*
X5300647Y3622853D1*
X5294851Y3615525D1*
X5291887Y3608281D1*
X5288989Y3597331D1*
Y3579053D1*
X5291887Y3568187D1*
X5294851Y3560859D1*
X5300647Y3553615D1*
X5306509Y3549909D1*
X5318167D1*
X5323962Y3553615D1*
X5329824Y3560859D1*
X5332722Y3568187D1*
X5389483Y3600953D2*
X5386518Y3590003D1*
X5380723Y3582675D1*
X5371963Y3579053D1*
X5369065D1*
X5360305Y3582675D1*
X5354510Y3590003D1*
X5351545Y3600953D1*
Y3604575D1*
X5354510Y3615525D1*
X5360305Y3622769D1*
X5369065Y3626391D1*
X5371963D1*
X5380723Y3622769D1*
X5386518Y3615525D1*
X5389483Y3600953D1*
Y3582675D1*
X5386518Y3564481D1*
X5380723Y3553531D1*
X5371963Y3549909D1*
X5366168D1*
X5357408Y3553531D1*
X5354510Y3560859D1*
X5330912Y3356471D2*
X5328014Y3363715D1*
X5322152Y3371043D1*
X5316357Y3374665D1*
X5304699D1*
X5298837Y3371043D1*
X5293041Y3363715D1*
X5290077Y3356471D1*
X5287179Y3345521D1*
Y3327243D1*
X5290077Y3316377D1*
X5293041Y3309049D1*
X5298837Y3301805D1*
X5304699Y3298099D1*
X5316357D1*
X5322152Y3301805D1*
X5328014Y3309049D1*
X5330912Y3316377D1*
X5361393Y3298099D2*
X5390570Y3374581D1*
X5349735D1*
X6020955Y3606511D2*
X6018057Y3613755D1*
X6012195Y3621083D1*
X6006400Y3624705D1*
X5994742D1*
X5988880Y3621083D1*
X5983085Y3613755D1*
X5980120Y3606511D1*
X5977222Y3595561D1*
Y3577283D1*
X5980120Y3566417D1*
X5983085Y3559089D1*
X5988880Y3551845D1*
X5994742Y3548139D1*
X6006400D1*
X6012195Y3551845D1*
X6018057Y3559089D1*
X6020955Y3566417D1*
X6054334Y3624621D2*
X6045641Y3620999D1*
X6042676Y3613755D1*
Y3606427D1*
X6045641Y3599183D1*
X6051436Y3595477D1*
X6063094Y3591855D1*
X6071854Y3588233D1*
X6077649Y3580905D1*
X6080546Y3573661D1*
Y3562711D1*
X6077649Y3555467D1*
X6074751Y3551761D1*
X6065991Y3548139D1*
X6054334D1*
X6045641Y3551761D1*
X6042676Y3555467D1*
X6039778Y3562711D1*
Y3573661D1*
X6042676Y3580905D1*
X6048538Y3588233D1*
X6057231Y3591855D1*
X6068889Y3595477D1*
X6074751Y3599183D1*
X6077649Y3606427D1*
Y3613755D1*
X6074751Y3620999D1*
X6065991Y3624621D1*
X6054334D1*
X5976276Y3123762D2*
Y3047196D1*
X5996693D1*
X6005453Y3050902D1*
X6011316Y3058146D1*
X6014213Y3065474D1*
X6017111Y3076340D1*
Y3094618D1*
X6014213Y3105568D1*
X6011316Y3112812D1*
X6005453Y3120140D1*
X5996693Y3123762D1*
X5976276D1*
X6035934Y3109105D2*
X6041797Y3112812D1*
X6050557Y3123677D1*
Y3047196D1*
X6098558D2*
Y3123677D1*
X6069380Y3072718D1*
X6113113D1*
X6022765Y3358324D2*
X6019867Y3365568D1*
X6014005Y3372896D1*
X6008210Y3376518D1*
X5996552D1*
X5990690Y3372896D1*
X5984895Y3365568D1*
X5981930Y3358324D1*
X5979032Y3347374D1*
Y3329096D1*
X5981930Y3318231D1*
X5984895Y3310903D1*
X5990690Y3303659D1*
X5996552Y3299953D1*
X6008210D1*
X6014005Y3303659D1*
X6019867Y3310903D1*
X6022765Y3318231D1*
X6076561Y3365568D2*
X6073664Y3372812D1*
X6064904Y3376434D1*
X6059108D1*
X6050348Y3372812D1*
X6044486Y3361862D1*
X6041588Y3343668D1*
Y3325474D1*
X6044486Y3310903D1*
X6050348Y3303574D1*
X6059108Y3299953D1*
X6062006D1*
X6070699Y3303574D1*
X6076561Y3310903D1*
X6079459Y3321853D1*
Y3325474D1*
X6076561Y3336424D1*
X6070699Y3343668D1*
X6062006Y3347290D1*
X6059108D1*
X6050348Y3343668D1*
X6044486Y3336424D1*
X6041588Y3325474D1*
X5371958Y1143697D2*
X5295393D1*
X5295392Y1117417D1*
X5299099Y1108657D1*
X5302720Y1105760D1*
X5309964Y1102862D1*
X5320914D1*
X5328242Y1105760D1*
X5331864Y1108657D1*
X5335486Y1117417D1*
X5339192Y1108657D1*
X5342814Y1105760D1*
X5350058Y1102862D1*
X5357386D1*
X5364630Y1105760D1*
X5368336Y1108657D1*
X5371958Y1117417D1*
Y1143697D1*
X5335486D2*
Y1117417D1*
X5357302Y1084039D2*
X5361008Y1078176D1*
X5371874Y1069416D1*
X5295392Y1069417D1*
X5357302Y1050593D2*
X5361008Y1044730D1*
X5371874Y1035970D1*
X5295392Y1035971D1*
X5282286Y1959772D2*
Y1883206D1*
X5308566D1*
X5317326Y1886912D1*
X5320223Y1890534D1*
X5323121Y1897778D1*
Y1908728D1*
X5320223Y1916056D1*
X5317326Y1919678D1*
X5308566Y1923300D1*
X5317326Y1927006D1*
X5320223Y1930628D1*
X5323121Y1937872D1*
Y1945200D1*
X5320223Y1952444D1*
X5317326Y1956150D1*
X5308566Y1959772D1*
X5282286D1*
Y1923300D2*
X5308566D1*
X5341944Y1945115D2*
X5347807Y1948822D1*
X5356567Y1959687D1*
Y1883206D1*
X5381253Y1959687D2*
X5413260D1*
X5395808Y1930544D1*
X5404568D1*
X5410363Y1926922D1*
X5413260Y1923300D1*
X5416225Y1912350D1*
Y1905106D1*
X5413260Y1894156D1*
X5407465Y1886828D1*
X5398705Y1883206D1*
X5389945D1*
X5381253Y1886828D1*
X5378355Y1890534D1*
X5375390Y1897778D1*
X5021958Y4463697D2*
X4945393D1*
X4945392Y4437417D1*
X4949099Y4428657D1*
X4952720Y4425760D1*
X4959964Y4422862D1*
X4970914D1*
X4978242Y4425760D1*
X4981864Y4428657D1*
X4985486Y4437417D1*
X4989192Y4428657D1*
X4992814Y4425760D1*
X5000058Y4422862D1*
X5007386D1*
X5014630Y4425760D1*
X5018336Y4428657D1*
X5021958Y4437417D1*
Y4463697D1*
X4985486D2*
Y4437417D1*
X5007302Y4404039D2*
X5011008Y4398176D1*
X5021874Y4389416D1*
X4945392Y4389417D1*
Y4341415D2*
X5021874D1*
X4970914Y4370593D1*
Y4326860D1*
X5282286Y2169772D2*
Y2093206D1*
X5308566D1*
X5317326Y2096912D1*
X5320223Y2100534D1*
X5323121Y2107778D1*
Y2118728D1*
X5320223Y2126056D1*
X5317326Y2129678D1*
X5308566Y2133300D1*
X5317326Y2137006D1*
X5320223Y2140628D1*
X5323121Y2147872D1*
Y2155200D1*
X5320223Y2162444D1*
X5317326Y2166150D1*
X5308566Y2169772D1*
X5282286D1*
Y2133300D2*
X5308566D1*
X5341944Y2155115D2*
X5347807Y2158822D1*
X5356567Y2169687D1*
Y2093206D1*
X5410363Y2169687D2*
X5381253D1*
X5378355Y2136922D1*
X5381253Y2140544D1*
X5390013Y2144250D1*
X5398705D1*
X5407465Y2140544D1*
X5413328Y2133300D1*
X5416225Y2122350D1*
Y2115106D1*
X5413328Y2104156D1*
X5407465Y2096828D1*
X5398705Y2093206D1*
X5390013D1*
X5381253Y2096828D1*
X5378355Y2100534D1*
X5375390Y2107778D1*
X5280456Y2357945D2*
Y2281379D1*
X5300873D1*
X5309633Y2285085D1*
X5315496Y2292329D1*
X5318393Y2299657D1*
X5321291Y2310523D1*
Y2328801D1*
X5318393Y2339751D1*
X5315496Y2346995D1*
X5309633Y2354323D1*
X5300873Y2357945D1*
X5280456D1*
X5378052Y2332423D2*
X5375087Y2321473D1*
X5369292Y2314145D1*
X5360532Y2310523D1*
X5357634D1*
X5348874Y2314145D1*
X5343079Y2321473D1*
X5340114Y2332423D1*
Y2336045D1*
X5343079Y2346995D1*
X5348874Y2354239D1*
X5357634Y2357861D1*
X5360532D1*
X5369292Y2354239D1*
X5375087Y2346995D1*
X5378052Y2332423D1*
Y2314145D1*
X5375087Y2295951D1*
X5369292Y2285001D1*
X5360532Y2281379D1*
X5354737D1*
X5345977Y2285001D1*
X5343079Y2292329D1*
X6022067Y3806286D2*
X5998684Y3882852D1*
X5975369Y3806286D1*
X5984129Y3831808D2*
X6013307D1*
X6055445Y3882767D2*
X6046753Y3879145D1*
X6043788Y3871902D1*
Y3864574D1*
X6046753Y3857330D1*
X6052548Y3853624D1*
X6064205Y3850002D1*
X6072965Y3846380D1*
X6078760Y3839052D1*
X6081658Y3831808D1*
Y3820858D1*
X6078760Y3813614D1*
X6075863Y3809908D1*
X6067103Y3806286D1*
X6055445D1*
X6046753Y3809908D1*
X6043788Y3813614D1*
X6040890Y3820858D1*
Y3831808D1*
X6043788Y3839052D1*
X6049650Y3846380D1*
X6058343Y3850002D1*
X6070000Y3853624D1*
X6075863Y3857330D1*
X6078760Y3864574D1*
Y3871902D1*
X6075863Y3879145D1*
X6067103Y3882767D1*
X6055445D1*
X5027589Y5107420D2*
X5104155Y5130802D1*
X5027589Y5154117D1*
X5053111Y5145357D2*
Y5116180D1*
X5089499Y5088596D2*
X5093205Y5082734D1*
X5104071Y5073974D1*
X5027589D1*
X5104071Y5049288D2*
Y5017280D1*
X5074927Y5034733D1*
Y5025973D1*
X5071305Y5020178D1*
X5067683Y5017280D1*
X5056733Y5014315D1*
X5049489D1*
X5038539Y5017280D1*
X5031211Y5023075D1*
X5027589Y5031835D1*
Y5040595D1*
X5031211Y5049288D1*
X5034917Y5052186D1*
X5042161Y5055151D1*
X5535392Y5087000D2*
X5611958Y5110382D1*
X5535393Y5133697D1*
X5560914Y5124937D2*
Y5095760D1*
X5597302Y5068176D2*
X5601008Y5062314D1*
X5611874Y5053554D1*
X5535392D1*
X5597302Y5034730D2*
X5601008Y5028868D1*
X5611874Y5020108D1*
X5535392D1*
X5331120Y4245343D2*
X5307737Y4321908D1*
X5284422Y4245343D1*
X5293182Y4270864D2*
X5322360D1*
X5349943Y4307252D2*
X5355806Y4310958D1*
X5364566Y4321824D1*
Y4245343D1*
X5400909Y4321824D2*
X5392149Y4318202D1*
X5386287Y4307252D1*
X5383389Y4289058D1*
Y4278108D1*
X5386287Y4259914D1*
X5392149Y4248964D1*
X5400909Y4245343D1*
X5406704D1*
X5415464Y4248964D1*
X5421260Y4259914D1*
X5424224Y4278108D1*
Y4289058D1*
X5421260Y4307252D1*
X5415464Y4318202D1*
X5406704Y4321824D1*
X5400909D1*
X5421260Y4307252D2*
X5386287Y4259914D1*
X4755392Y5107000D2*
X4831958Y5130382D1*
X4755393Y5153697D1*
X4780914Y5144937D2*
Y5115760D1*
X4817302Y5088176D2*
X4821008Y5082314D1*
X4831874Y5073554D1*
X4755392D1*
X4831874Y5019758D2*
Y5048868D1*
X4799108Y5051766D1*
X4802730Y5048868D1*
X4806436Y5040108D1*
Y5031415D1*
X4802730Y5022655D1*
X4795486Y5016793D1*
X4784536Y5013895D1*
X4777292D1*
X4766342Y5016793D1*
X4759014Y5022655D1*
X4755392Y5031415D1*
Y5040108D1*
X4759014Y5048868D1*
X4762720Y5051766D1*
X4769964Y5054731D1*
X4351958Y5093697D2*
X4275393D1*
X4275392Y5073280D1*
X4279099Y5064520D1*
X4286342Y5058657D1*
X4293670Y5055760D1*
X4304536Y5052862D1*
X4322814D1*
X4333764Y5055760D1*
X4341008Y5058657D1*
X4348336Y5064520D1*
X4351958Y5073280D1*
Y5093697D1*
X4337302Y5034039D2*
X4341008Y5028176D1*
X4351874Y5019416D1*
X4275392Y5019417D1*
X1533764Y4419965D2*
X1541008Y4422862D1*
X1548336Y4428725D1*
X1551958Y4434520D1*
Y4446177D1*
X1548336Y4452040D1*
X1541008Y4457835D1*
X1533764Y4460800D1*
X1522814Y4463697D1*
X1504536D1*
X1493671Y4460800D1*
X1486342Y4457835D1*
X1479099Y4452040D1*
X1475392Y4446177D1*
Y4434520D1*
X1479099Y4428725D1*
X1486342Y4422862D1*
X1493670Y4419965D1*
X1537302Y4401141D2*
X1541008Y4395279D1*
X1551874Y4386519D1*
X1475392D1*
X1551874Y4361833D2*
Y4329825D1*
X1522730Y4347278D1*
Y4338518D1*
X1519108Y4332723D1*
X1515486Y4329825D1*
X1504536Y4326860D1*
X1497292D1*
X1486342Y4329825D1*
X1479014Y4335620D1*
X1475392Y4344380D1*
Y4353140D1*
X1479014Y4361833D1*
X1482720Y4364731D1*
X1489964Y4367695D1*
X4583764Y5095431D2*
X4591008Y5097967D1*
X4598336Y5103096D1*
X4601958Y5108167D1*
Y5118367D1*
X4598336Y5123497D1*
X4591008Y5128568D1*
X4583764Y5131162D1*
X4572814Y5133697D1*
X4554536D1*
X4543671Y5131162D1*
X4536342Y5128568D1*
X4529099Y5123497D1*
X4525392Y5118367D1*
Y5108167D1*
X4529099Y5103096D1*
X4536342Y5097967D1*
X4543670Y5095431D1*
X4587302Y5078961D2*
X4591008Y5073831D1*
X4601874Y5066166D1*
X4525392D1*
X4583680Y5047101D2*
X4587302D1*
X4594630Y5044566D1*
X4598252Y5042031D1*
X4601874Y5036901D1*
Y5026701D1*
X4598252Y5021630D1*
X4594630Y5019095D1*
X4587302Y5016500D1*
X4580058D1*
X4572730Y5019095D1*
X4561864Y5024165D1*
X4525392Y5049696D1*
Y5013965D1*
X4601958Y4463697D2*
X4525393D1*
X4525392Y4443280D1*
X4529099Y4434520D1*
X4536342Y4428657D1*
X4543670Y4425760D1*
X4554536Y4422862D1*
X4572814D1*
X4583764Y4425760D1*
X4591008Y4428657D1*
X4598336Y4434520D1*
X4601958Y4443280D1*
Y4463697D1*
X4601874Y4386519D2*
X4598252Y4395279D1*
X4587302Y4401141D1*
X4569108Y4404039D1*
X4558158D1*
X4539964Y4401141D1*
X4529014Y4395279D1*
X4525392Y4386519D1*
Y4380724D1*
X4529014Y4371964D1*
X4539964Y4366169D1*
X4558158Y4363204D1*
X4569108D1*
X4587302Y4366169D1*
X4598252Y4371964D1*
X4601874Y4380724D1*
Y4386519D1*
X4587302Y4366169D2*
X4539964Y4401141D1*
X3841958Y5113697D2*
X3765393D1*
X3765392Y5093280D1*
X3769099Y5084520D1*
X3776342Y5078657D1*
X3783670Y5075760D1*
X3794536Y5072862D1*
X3812814D1*
X3823764Y5075760D1*
X3831008Y5078657D1*
X3838336Y5084520D1*
X3841958Y5093280D1*
Y5113697D1*
X3841874Y5019066D2*
Y5048176D1*
X3809108Y5051074D1*
X3812730Y5048176D1*
X3816436Y5039416D1*
Y5030724D1*
X3812730Y5021964D1*
X3805486Y5016101D1*
X3794536Y5013204D1*
X3787292D1*
X3776342Y5016101D1*
X3769014Y5021964D1*
X3765392Y5030724D1*
Y5039417D1*
X3769014Y5048177D1*
X3772720Y5051074D1*
X3779964Y5054039D1*
X4351958Y4463697D2*
X4275393D1*
X4275392Y4443280D1*
X4279099Y4434520D1*
X4286342Y4428657D1*
X4293670Y4425760D1*
X4304536Y4422862D1*
X4322814D1*
X4333764Y4425760D1*
X4341008Y4428657D1*
X4348336Y4434520D1*
X4351958Y4443280D1*
Y4463697D1*
X4333680Y4401074D2*
X4337302D1*
X4344630Y4398176D1*
X4348252Y4395279D1*
X4351874Y4389416D1*
Y4377759D1*
X4348252Y4371964D1*
X4344630Y4369066D1*
X4337302Y4366101D1*
X4330058D1*
X4322730Y4369066D1*
X4311864Y4374861D1*
X4275392Y4404039D1*
Y4363204D1*
X3841958Y4463697D2*
X3765393D1*
X3765392Y4443280D1*
X3769099Y4434520D1*
X3776342Y4428657D1*
X3783670Y4425760D1*
X3794536Y4422862D1*
X3812814D1*
X3823764Y4425760D1*
X3831008Y4428657D1*
X3838336Y4434520D1*
X3841958Y4443280D1*
Y4463697D1*
X3831008Y4369066D2*
X3838252Y4371964D1*
X3841874Y4380724D1*
Y4386519D1*
X3838252Y4395279D1*
X3827302Y4401141D1*
X3809108Y4404039D1*
X3790914D1*
X3776342Y4401141D1*
X3769014Y4395279D1*
X3765392Y4386519D1*
Y4383621D1*
X3769014Y4374929D1*
X3776342Y4369066D1*
X3787292Y4366169D1*
X3790914D1*
X3801864Y4369066D1*
X3809108Y4374929D1*
X3812730Y4383621D1*
Y4386519D1*
X3809108Y4395279D1*
X3801864Y4401141D1*
X3790914Y4404039D1*
X4091958Y4463697D2*
X4015393D1*
X4015392Y4443280D1*
X4019099Y4434520D1*
X4026342Y4428657D1*
X4033670Y4425760D1*
X4044536Y4422862D1*
X4062814D1*
X4073764Y4425760D1*
X4081008Y4428657D1*
X4088336Y4434520D1*
X4091958Y4443280D1*
Y4463697D1*
X4015392Y4374861D2*
X4091874D1*
X4040914Y4404039D1*
Y4360306D1*
X4091958Y5113697D2*
X4015393D1*
X4015392Y5093280D1*
X4019099Y5084520D1*
X4026342Y5078657D1*
X4033670Y5075760D1*
X4044536Y5072862D1*
X4062814D1*
X4073764Y5075760D1*
X4081008Y5078657D1*
X4088336Y5084520D1*
X4091958Y5093280D1*
Y5113697D1*
X4091874Y5048176D2*
Y5016169D1*
X4062730Y5033621D1*
Y5024861D1*
X4059108Y5019066D1*
X4055486Y5016169D1*
X4044536Y5013204D1*
X4037292D1*
X4026342Y5016169D1*
X4019014Y5021964D1*
X4015392Y5030724D1*
Y5039484D1*
X4019014Y5048177D1*
X4022720Y5051074D1*
X4029964Y5054039D1*
X3591958Y5113697D2*
X3515393D1*
X3515392Y5093280D1*
X3519099Y5084520D1*
X3526342Y5078657D1*
X3533670Y5075760D1*
X3544536Y5072862D1*
X3562814D1*
X3573764Y5075760D1*
X3581008Y5078657D1*
X3588336Y5084520D1*
X3591958Y5093280D1*
Y5113697D1*
X3515392Y5042381D2*
X3591874Y5013204D1*
Y5054039D1*
X2331958Y5075827D2*
Y5113697D1*
X2255393D1*
X2255392Y5075827D1*
X2295486Y5113697D2*
Y5090382D1*
X2331874Y5039484D2*
X2328252Y5048244D1*
X2317302Y5054106D1*
X2299108Y5057004D1*
X2288158D1*
X2269964Y5054106D1*
X2259014Y5048244D1*
X2255392Y5039484D1*
Y5033689D1*
X2259014Y5024929D1*
X2269964Y5019134D1*
X2288158Y5016169D1*
X2299108D1*
X2317302Y5019134D1*
X2328252Y5024929D1*
X2331874Y5033689D1*
Y5039484D1*
X2317302Y5019134D2*
X2269964Y5054106D1*
X3321958Y5113697D2*
X3245393D1*
X3245392Y5087417D1*
X3249099Y5078657D1*
X3252720Y5075760D1*
X3259964Y5072862D1*
X3270914D1*
X3278242Y5075760D1*
X3281864Y5078657D1*
X3285486Y5087417D1*
X3289192Y5078657D1*
X3292814Y5075760D1*
X3300058Y5072862D1*
X3307386D1*
X3314630Y5075760D1*
X3318336Y5078657D1*
X3321958Y5087417D1*
Y5113697D1*
X3285486D2*
Y5087417D1*
X3245392Y5024861D2*
X3321874D1*
X3270914Y5054039D1*
Y5010306D1*
X2821958Y5113697D2*
X2745393D1*
X2745392Y5087417D1*
X2749099Y5078657D1*
X2752720Y5075760D1*
X2759964Y5072862D1*
X2770914D1*
X2778242Y5075760D1*
X2781864Y5078657D1*
X2785486Y5087417D1*
X2789192Y5078657D1*
X2792814Y5075760D1*
X2800058Y5072862D1*
X2807386D1*
X2814630Y5075760D1*
X2818336Y5078657D1*
X2821958Y5087417D1*
Y5113697D1*
X2785486D2*
Y5087417D1*
X2811008Y5019066D2*
X2818252Y5021964D1*
X2821874Y5030724D1*
Y5036519D1*
X2818252Y5045279D1*
X2807302Y5051141D1*
X2789108Y5054039D1*
X2770914D1*
X2756342Y5051141D1*
X2749014Y5045279D1*
X2745392Y5036519D1*
Y5033621D1*
X2749014Y5024929D1*
X2756342Y5019066D1*
X2767292Y5016169D1*
X2770914D1*
X2781864Y5019066D1*
X2789108Y5024929D1*
X2792730Y5033621D1*
Y5036519D1*
X2789108Y5045279D1*
X2781864Y5051141D1*
X2770914Y5054039D1*
X2821958Y4463697D2*
X2745393D1*
X2745392Y4437417D1*
X2749099Y4428657D1*
X2752720Y4425760D1*
X2759964Y4422862D1*
X2770914D1*
X2778242Y4425760D1*
X2781864Y4428657D1*
X2785486Y4437417D1*
X2789192Y4428657D1*
X2792814Y4425760D1*
X2800058Y4422862D1*
X2807386D1*
X2814630Y4425760D1*
X2818336Y4428657D1*
X2821958Y4437417D1*
Y4463697D1*
X2785486D2*
Y4437417D1*
X2745392Y4392381D2*
X2821874Y4363204D1*
Y4404039D1*
X3331958Y4463697D2*
X3255393D1*
X3255392Y4437417D1*
X3259099Y4428657D1*
X3262720Y4425760D1*
X3269964Y4422862D1*
X3280914D1*
X3288242Y4425760D1*
X3291864Y4428657D1*
X3295486Y4437417D1*
X3299192Y4428657D1*
X3302814Y4425760D1*
X3310058Y4422862D1*
X3317386D1*
X3324630Y4425760D1*
X3328336Y4428657D1*
X3331958Y4437417D1*
Y4463697D1*
X3295486D2*
Y4437417D1*
X3331874Y4369066D2*
Y4398176D1*
X3299108Y4401074D1*
X3302730Y4398176D1*
X3306436Y4389416D1*
Y4380724D1*
X3302730Y4371964D1*
X3295486Y4366101D1*
X3284536Y4363204D1*
X3277292D1*
X3266342Y4366101D1*
X3259014Y4371964D1*
X3255392Y4380724D1*
Y4389417D1*
X3259014Y4398177D1*
X3262720Y4401074D1*
X3269964Y4404039D1*
X3591958Y4463697D2*
X3515393D1*
X3515392Y4437417D1*
X3519099Y4428657D1*
X3522720Y4425760D1*
X3529964Y4422862D1*
X3540914D1*
X3548242Y4425760D1*
X3551864Y4428657D1*
X3555486Y4437417D1*
X3559192Y4428657D1*
X3562814Y4425760D1*
X3570058Y4422862D1*
X3577386D1*
X3584630Y4425760D1*
X3588336Y4428657D1*
X3591958Y4437417D1*
Y4463697D1*
X3555486D2*
Y4437417D1*
X3591874Y4398176D2*
Y4366169D1*
X3562730Y4383621D1*
Y4374861D1*
X3559108Y4369066D1*
X3555486Y4366169D1*
X3544536Y4363204D1*
X3537292D1*
X3526342Y4366169D1*
X3519014Y4371964D1*
X3515392Y4380724D1*
Y4389484D1*
X3519014Y4398177D1*
X3522720Y4401074D1*
X3529964Y4404039D1*
X2571958Y5113697D2*
X2495393D1*
X2495392Y5087417D1*
X2499099Y5078657D1*
X2502720Y5075760D1*
X2509964Y5072862D1*
X2520914D1*
X2528242Y5075760D1*
X2531864Y5078657D1*
X2535486Y5087417D1*
X2539192Y5078657D1*
X2542814Y5075760D1*
X2550058Y5072862D1*
X2557386D1*
X2564630Y5075760D1*
X2568336Y5078657D1*
X2571958Y5087417D1*
Y5113697D1*
X2535486D2*
Y5087417D1*
X2571874Y5039484D2*
X2568252Y5048176D1*
X2561008Y5051141D1*
X2553680D1*
X2546436Y5048176D1*
X2542730Y5042381D1*
X2539108Y5030724D1*
X2535486Y5021964D1*
X2528158Y5016169D1*
X2520914Y5013271D1*
X2509964D1*
X2502720Y5016169D1*
X2499014Y5019066D1*
X2495392Y5027826D1*
Y5039484D1*
X2499014Y5048177D1*
X2502720Y5051141D1*
X2509964Y5054039D1*
X2520914D1*
X2528158Y5051141D1*
X2535486Y5045279D1*
X2539108Y5036586D1*
X2542730Y5024929D1*
X2546436Y5019066D1*
X2553680Y5016169D1*
X2561008D1*
X2568252Y5019066D1*
X2571874Y5027826D1*
Y5039484D1*
X2571958Y4463697D2*
X2495393D1*
X2495392Y4437417D1*
X2499099Y4428657D1*
X2502720Y4425760D1*
X2509964Y4422862D1*
X2520914D1*
X2528242Y4425760D1*
X2531864Y4428657D1*
X2535486Y4437417D1*
X2539192Y4428657D1*
X2542814Y4425760D1*
X2550058Y4422862D1*
X2557386D1*
X2564630Y4425760D1*
X2568336Y4428657D1*
X2571958Y4437417D1*
Y4463697D1*
X2535486D2*
Y4437417D1*
X2546436Y4366101D2*
X2535486Y4369066D1*
X2528158Y4374861D1*
X2524536Y4383621D1*
Y4386519D1*
X2528158Y4395279D1*
X2535486Y4401074D1*
X2546436Y4404039D1*
X2550058D1*
X2561008Y4401074D1*
X2568252Y4395279D1*
X2571874Y4386519D1*
Y4383621D1*
X2568252Y4374861D1*
X2561008Y4369066D1*
X2546436Y4366101D1*
X2528158D1*
X2509964Y4369066D1*
X2499014Y4374861D1*
X2495392Y4383621D1*
Y4389417D1*
X2499014Y4398177D1*
X2506342Y4401074D1*
X2311958Y4425827D2*
Y4463697D1*
X2235393D1*
X2235392Y4425827D1*
X2275486Y4463697D2*
Y4440382D1*
X2297302Y4407004D2*
X2301008Y4401141D1*
X2311874Y4392381D1*
X2235392D1*
X1811958Y5075827D2*
Y5113697D1*
X1735393D1*
X1735392Y5075827D1*
X1775486Y5113697D2*
Y5090382D1*
X1735392Y5027826D2*
X1811874D1*
X1760914Y5057004D1*
Y5013271D1*
X2071958Y5075827D2*
Y5113697D1*
X1995393D1*
X1995392Y5075827D1*
X2035486Y5113697D2*
Y5090382D1*
X2053680Y5054039D2*
X2057302D1*
X2064630Y5051141D1*
X2068252Y5048244D1*
X2071874Y5042381D1*
Y5030724D1*
X2068252Y5024929D1*
X2064630Y5022031D1*
X2057302Y5019066D1*
X2050058D1*
X2042730Y5022031D1*
X2031864Y5027826D1*
X1995392Y5057004D1*
Y5016169D1*
X1811958Y4426247D2*
Y4464117D1*
X1735393D1*
X1735392Y4426247D1*
X1775486Y4464117D2*
Y4440802D1*
X1811874Y4372451D2*
Y4401561D1*
X1779108Y4404459D1*
X1782730Y4401561D1*
X1786436Y4392801D1*
Y4384109D1*
X1782730Y4375349D1*
X1775486Y4369486D1*
X1764536Y4366589D1*
X1757292D1*
X1746342Y4369486D1*
X1739014Y4375349D1*
X1735392Y4384109D1*
Y4392801D1*
X1739014Y4401561D1*
X1742720Y4404459D1*
X1749964Y4407424D1*
X2061958Y4425827D2*
Y4463697D1*
X1985393D1*
X1985392Y4425827D1*
X2025486Y4463697D2*
Y4440382D1*
X2061874Y4401141D2*
Y4369134D1*
X2032730Y4386586D1*
Y4377826D1*
X2029108Y4372031D1*
X2025486Y4369134D1*
X2014536Y4366169D1*
X2007292D1*
X1996342Y4369134D1*
X1989014Y4374929D1*
X1985392Y4383689D1*
Y4392449D1*
X1989014Y4401141D1*
X1992720Y4404039D1*
X1999964Y4407004D1*
X1551958Y5076247D2*
Y5114117D1*
X1475393D1*
X1475392Y5076247D1*
X1515486Y5114117D2*
Y5090802D1*
X1541008Y5022451D2*
X1548252Y5025349D1*
X1551874Y5034109D1*
Y5039904D1*
X1548252Y5048664D1*
X1537302Y5054526D1*
X1519108Y5057424D1*
X1500914D1*
X1486342Y5054526D1*
X1479014Y5048664D1*
X1475392Y5039904D1*
Y5037006D1*
X1479014Y5028314D1*
X1486342Y5022451D1*
X1497292Y5019554D1*
X1500914D1*
X1511864Y5022451D1*
X1519108Y5028314D1*
X1522730Y5037006D1*
Y5039904D1*
X1519108Y5048664D1*
X1511864Y5054526D1*
X1500914Y5057424D1*
X3063764Y5030385D2*
X3071008Y5033282D1*
X3078336Y5039145D1*
X3081958Y5044940D1*
Y5056597D1*
X3078336Y5062460D1*
X3071008Y5068255D1*
X3063764Y5071220D1*
X3052814Y5074117D1*
X3034536D1*
X3023671Y5071220D1*
X3016342Y5068255D1*
X3009099Y5062460D1*
X3005392Y5056597D1*
Y5044940D1*
X3009099Y5039145D1*
X3016342Y5033282D1*
X3023670Y5030385D1*
X3034536D1*
Y5044940D1*
X3081874Y4458988D2*
Y4430981D1*
X3052730Y4446252D1*
Y4438587D1*
X3049108Y4433516D1*
X3045486Y4430981D1*
X3034536Y4428387D1*
X3027292D1*
X3016342Y4430981D1*
X3009014Y4436052D1*
X3005392Y4443717D1*
Y4451382D1*
X3009014Y4458988D1*
X3012721Y4461523D1*
X3019964Y4464117D1*
X3012720Y4409381D2*
X3009014Y4411916D1*
X3005392Y4409381D1*
X3009014Y4406787D1*
X3012720Y4409381D1*
X3081874Y4385186D2*
Y4357180D1*
X3052730Y4372451D1*
Y4364786D1*
X3049108Y4359715D1*
X3045486Y4357180D1*
X3034536Y4354585D1*
X3027292D1*
X3016342Y4357180D1*
X3009014Y4362250D1*
X3005392Y4369915D1*
Y4377580D1*
X3009014Y4385186D1*
X3012720Y4387722D1*
X3019964Y4390316D1*
X5343764Y5030385D2*
X5351008Y5033282D1*
X5358336Y5039145D1*
X5361958Y5044940D1*
Y5056597D1*
X5358336Y5062460D1*
X5351008Y5068255D1*
X5343764Y5071220D1*
X5332814Y5074117D1*
X5314536D1*
X5303671Y5071220D1*
X5296342Y5068255D1*
X5289099Y5062460D1*
X5285392Y5056597D1*
Y5044940D1*
X5289099Y5039145D1*
X5296342Y5033282D1*
X5303670Y5030385D1*
X5314536D1*
Y5044940D1*
X5271874Y4458988D2*
Y4430981D1*
X5242730Y4446252D1*
Y4438587D1*
X5239108Y4433516D1*
X5235486Y4430981D1*
X5224536Y4428387D1*
X5217292D1*
X5206342Y4430981D1*
X5199014Y4436052D1*
X5195392Y4443717D1*
Y4451382D1*
X5199014Y4458988D1*
X5202721Y4461523D1*
X5209964Y4464117D1*
X5202720Y4409381D2*
X5199014Y4411916D1*
X5195392Y4409381D1*
X5199014Y4406787D1*
X5202720Y4409381D1*
X5271874Y4385186D2*
Y4357180D1*
X5242730Y4372451D1*
Y4364786D1*
X5239108Y4359715D1*
X5235486Y4357180D1*
X5224536Y4354585D1*
X5217292D1*
X5206342Y4357180D1*
X5199014Y4362250D1*
X5195392Y4369915D1*
Y4377580D1*
X5199014Y4385186D1*
X5202720Y4387722D1*
X5209964Y4390316D1*
X5985069Y4667761D2*
X6013075D1*
X5997804Y4638617D1*
X6005469D1*
X6010540Y4634995D1*
X6013075Y4631373D1*
X6015670Y4620423D1*
Y4613179D1*
X6013075Y4602229D1*
X6008005Y4594901D1*
X6000340Y4591279D1*
X5992675D1*
X5985069Y4594901D1*
X5982533Y4598607D1*
X5979939Y4605851D1*
X6034676Y4598607D2*
X6032140Y4594901D1*
X6034676Y4591279D1*
X6037270Y4594901D1*
X6034676Y4598607D1*
X6058870Y4667761D2*
X6086877D1*
X6071606Y4638617D1*
X6079271D1*
X6084342Y4634995D1*
X6086877Y4631373D1*
X6089471Y4620423D1*
Y4613179D1*
X6086877Y4602229D1*
X6081806Y4594901D1*
X6074141Y4591279D1*
X6066476D1*
X6058870Y4594901D1*
X6056335Y4598607D1*
X6053741Y4605851D1*
X5288086Y3125572D2*
Y3049006D1*
X5308503D1*
X5317263Y3052712D1*
X5323126Y3059956D1*
X5326023Y3067284D1*
X5328921Y3078150D1*
Y3096428D1*
X5326023Y3107378D1*
X5323126Y3114622D1*
X5317263Y3121950D1*
X5308503Y3125572D1*
X5288086D1*
X5347744Y3110915D2*
X5353607Y3114622D1*
X5362367Y3125487D1*
Y3049006D1*
X5416163Y3125487D2*
X5387053D1*
X5384155Y3092722D1*
X5387053Y3096344D1*
X5395813Y3100050D1*
X5404505D1*
X5413265Y3096344D1*
X5419128Y3089100D1*
X5422025Y3078150D1*
Y3070906D1*
X5419128Y3059956D1*
X5413265Y3052628D1*
X5404505Y3049006D1*
X5395813D1*
X5387053Y3052628D1*
X5384155Y3056334D1*
X5381190Y3063578D1*
X5982286Y2609772D2*
Y2533206D1*
X6002703D1*
X6011463Y2536912D1*
X6017326Y2544156D1*
X6020223Y2551484D1*
X6023121Y2562350D1*
Y2580628D1*
X6020223Y2591578D1*
X6017326Y2598822D1*
X6011463Y2606150D1*
X6002703Y2609772D1*
X5982286D1*
X6041944Y2595115D2*
X6047807Y2598822D1*
X6056567Y2609687D1*
Y2533206D1*
X6092910Y2609687D2*
X6084150Y2606065D1*
X6078288Y2595115D1*
X6075390Y2576922D1*
Y2565972D1*
X6078288Y2547778D1*
X6084150Y2536828D1*
X6092910Y2533206D1*
X6098705D1*
X6107465Y2536828D1*
X6113260Y2547778D1*
X6116225Y2565972D1*
Y2576922D1*
X6113260Y2595115D1*
X6107465Y2606065D1*
X6098705Y2609687D1*
X6092910D1*
X6113260Y2595115D2*
X6078288Y2547778D1*
X5251958Y1833697D2*
X5175393D1*
X5175392Y1807417D1*
X5179099Y1798657D1*
X5182720Y1795760D1*
X5189964Y1792862D1*
X5200914D1*
X5208242Y1795760D1*
X5211864Y1798657D1*
X5215486Y1807417D1*
X5219192Y1798657D1*
X5222814Y1795760D1*
X5230058Y1792862D1*
X5237386D1*
X5244630Y1795760D1*
X5248336Y1798657D1*
X5251958Y1807417D1*
Y1833697D1*
X5215486D2*
Y1807417D1*
X5237302Y1774039D2*
X5241008Y1768176D1*
X5251874Y1759416D1*
X5175392Y1759417D1*
X5251874Y1723073D2*
X5248252Y1731833D1*
X5237302Y1737695D1*
X5219108Y1740593D1*
X5208158D1*
X5189964Y1737695D1*
X5179014Y1731833D1*
X5175392Y1723073D1*
Y1717278D1*
X5179014Y1708518D1*
X5189964Y1702723D1*
X5208158Y1699758D1*
X5219108D1*
X5237302Y1702723D1*
X5248252Y1708518D1*
X5251874Y1717278D1*
Y1723073D1*
X5237302Y1702723D2*
X5189964Y1737695D1*
X4091958Y1105827D2*
Y1143697D1*
X4015393D1*
X4015392Y1105827D1*
X4055486Y1143697D2*
Y1120382D1*
X4015392Y1075346D2*
X4091874Y1046169D1*
Y1087004D1*
X3563764Y1099965D2*
X3571008Y1102862D1*
X3578336Y1108725D1*
X3581958Y1114520D1*
Y1126177D1*
X3578336Y1132040D1*
X3571008Y1137835D1*
X3563764Y1140800D1*
X3552814Y1143697D1*
X3534536D1*
X3523671Y1140800D1*
X3516342Y1137835D1*
X3509099Y1132040D1*
X3505392Y1126177D1*
Y1114520D1*
X3509099Y1108725D1*
X3516342Y1102862D1*
X3523670Y1099965D1*
X3581874Y1046169D2*
Y1075279D1*
X3549108Y1078176D1*
X3552730Y1075279D1*
X3556436Y1066519D1*
Y1057826D1*
X3552730Y1049066D1*
X3545486Y1043204D1*
X3534536Y1040306D1*
X3527292D1*
X3516342Y1043204D1*
X3509014Y1049066D1*
X3505392Y1057826D1*
Y1066519D1*
X3509014Y1075279D1*
X3512720Y1078177D1*
X3519964Y1081141D1*
X5111958Y1105827D2*
Y1143697D1*
X5035393D1*
X5035392Y1105827D1*
X5075486Y1143697D2*
Y1120382D1*
X5097302Y1087004D2*
X5101008Y1081141D1*
X5111874Y1072381D1*
X5035392D1*
X5111874Y1018585D2*
Y1047695D1*
X5079108Y1050593D1*
X5082730Y1047695D1*
X5086436Y1038935D1*
Y1030243D1*
X5082730Y1021483D1*
X5075486Y1015620D1*
X5064536Y1012723D1*
X5057292D1*
X5046342Y1015620D1*
X5039014Y1021483D1*
X5035392Y1030243D1*
Y1038935D1*
X5039014Y1047695D1*
X5042720Y1050593D1*
X5049964Y1053558D1*
X4351958Y1795827D2*
Y1833697D1*
X4275393D1*
X4275392Y1795827D1*
X4315486Y1833697D2*
Y1810382D1*
X4351874Y1762449D2*
X4348252Y1771141D1*
X4341008Y1774106D1*
X4333680D1*
X4326436Y1771141D1*
X4322730Y1765346D1*
X4319108Y1753689D1*
X4315486Y1744929D1*
X4308158Y1739134D1*
X4300914Y1736236D1*
X4289964D1*
X4282720Y1739134D1*
X4279014Y1742031D1*
X4275392Y1750791D1*
Y1762449D1*
X4279014Y1771141D1*
X4282720Y1774106D1*
X4289964Y1777004D1*
X4300914D1*
X4308158Y1774106D1*
X4315486Y1768244D1*
X4319108Y1759551D1*
X4322730Y1747894D1*
X4326436Y1742031D1*
X4333680Y1739134D1*
X4341008D1*
X4348252Y1742031D1*
X4351874Y1750791D1*
Y1762449D1*
X4601958Y1795827D2*
Y1833697D1*
X4525393D1*
X4525392Y1795827D1*
X4565486Y1833697D2*
Y1810382D1*
X4587302Y1777004D2*
X4591008Y1771141D1*
X4601874Y1762381D1*
X4525392D1*
X4601874Y1726038D2*
X4598252Y1734798D1*
X4587302Y1740660D1*
X4569108Y1743558D1*
X4558158D1*
X4539964Y1740660D1*
X4529014Y1734798D1*
X4525392Y1726038D1*
Y1720243D1*
X4529014Y1711483D1*
X4539964Y1705688D1*
X4558158Y1702723D1*
X4569108D1*
X4587302Y1705688D1*
X4598252Y1711483D1*
X4601874Y1720243D1*
Y1726038D1*
X4587302Y1705688D2*
X4539964Y1740660D1*
X3841958Y1143697D2*
X3765393D1*
X3765392Y1117417D1*
X3769099Y1108657D1*
X3772720Y1105760D1*
X3779964Y1102862D1*
X3790914D1*
X3798242Y1105760D1*
X3801864Y1108657D1*
X3805486Y1117417D1*
X3809192Y1108657D1*
X3812814Y1105760D1*
X3820058Y1102862D1*
X3827386D1*
X3834630Y1105760D1*
X3838336Y1108657D1*
X3841958Y1117417D1*
Y1143697D1*
X3805486D2*
Y1117417D1*
X3827302Y1084039D2*
X3831008Y1078176D1*
X3841874Y1069416D1*
X3765392Y1069417D1*
X4861958Y1105827D2*
Y1143697D1*
X4785393D1*
X4785392Y1105827D1*
X4825486Y1143697D2*
Y1120382D1*
X4847302Y1087004D2*
X4851008Y1081141D1*
X4861874Y1072381D1*
X4785392D1*
X4861874Y1047695D2*
Y1015688D1*
X4832730Y1033140D1*
Y1024380D1*
X4829108Y1018585D1*
X4825486Y1015688D1*
X4814536Y1012723D1*
X4807292D1*
X4796342Y1015688D1*
X4789014Y1021483D1*
X4785392Y1030243D1*
Y1039003D1*
X4789014Y1047695D1*
X4792720Y1050593D1*
X4799964Y1053558D1*
X4091958Y1833697D2*
X4015393D1*
X4015392Y1807417D1*
X4019099Y1798657D1*
X4022720Y1795760D1*
X4029964Y1792862D1*
X4040914D1*
X4048242Y1795760D1*
X4051864Y1798657D1*
X4055486Y1807417D1*
X4059192Y1798657D1*
X4062814Y1795760D1*
X4070058Y1792862D1*
X4077386D1*
X4084630Y1795760D1*
X4088336Y1798657D1*
X4091958Y1807417D1*
Y1833697D1*
X4055486D2*
Y1807417D1*
X4073680Y1771074D2*
X4077302D1*
X4084630Y1768176D1*
X4088252Y1765279D1*
X4091874Y1759416D1*
Y1747759D1*
X4088252Y1741964D1*
X4084630Y1739066D1*
X4077302Y1736101D1*
X4070058D1*
X4062730Y1739066D1*
X4051864Y1744861D1*
X4015392Y1774039D1*
Y1733204D1*
X5071958Y1795827D2*
Y1833697D1*
X4995393D1*
X4995392Y1795827D1*
X5035486Y1833697D2*
Y1810382D1*
X5057302Y1777004D2*
X5061008Y1771141D1*
X5071874Y1762381D1*
X4995392D1*
Y1714380D2*
X5071874D1*
X5020914Y1743558D1*
Y1699825D1*
X4861958Y1795827D2*
Y1833697D1*
X4785393D1*
X4785392Y1795827D1*
X4825486Y1833697D2*
Y1810382D1*
X4847302Y1777004D2*
X4851008Y1771141D1*
X4861874Y1762381D1*
X4785392D1*
X4843680Y1740593D2*
X4847302D1*
X4854630Y1737695D1*
X4858252Y1734798D1*
X4861874Y1728935D1*
Y1717278D1*
X4858252Y1711483D1*
X4854630Y1708585D1*
X4847302Y1705620D1*
X4840058D1*
X4832730Y1708585D1*
X4821864Y1714380D1*
X4785392Y1743558D1*
Y1702723D1*
X4601958Y1106247D2*
Y1144117D1*
X4525393D1*
X4525392Y1106247D1*
X4565486Y1144117D2*
Y1120802D1*
X4587302Y1087424D2*
X4591008Y1081561D1*
X4601874Y1072801D1*
X4525392D1*
X4587302Y1053978D2*
X4591008Y1048115D1*
X4601874Y1039355D1*
X4525392D1*
X4351958Y1105827D2*
Y1143697D1*
X4275393D1*
X4275392Y1105827D1*
X4315486Y1143697D2*
Y1120382D1*
X4326436Y1049066D2*
X4315486Y1052031D1*
X4308158Y1057826D1*
X4304536Y1066586D1*
Y1069484D1*
X4308158Y1078244D1*
X4315486Y1084039D1*
X4326436Y1087004D1*
X4330058D1*
X4341008Y1084039D1*
X4348252Y1078244D1*
X4351874Y1069484D1*
Y1066586D1*
X4348252Y1057826D1*
X4341008Y1052031D1*
X4326436Y1049066D1*
X4308158D1*
X4289964Y1052031D1*
X4279014Y1057826D1*
X4275392Y1066586D1*
Y1072381D1*
X4279014Y1081141D1*
X4286342Y1084039D1*
X3841958Y1833697D2*
X3765393D1*
X3765392Y1807417D1*
X3769099Y1798657D1*
X3772720Y1795760D1*
X3779964Y1792862D1*
X3790914D1*
X3798242Y1795760D1*
X3801864Y1798657D1*
X3805486Y1807417D1*
X3809192Y1798657D1*
X3812814Y1795760D1*
X3820058Y1792862D1*
X3827386D1*
X3834630Y1795760D1*
X3838336Y1798657D1*
X3841958Y1807417D1*
Y1833697D1*
X3805486D2*
Y1807417D1*
X3841874Y1756519D2*
X3838252Y1765279D1*
X3827302Y1771141D1*
X3809108Y1774039D1*
X3798158D1*
X3779964Y1771141D1*
X3769014Y1765279D1*
X3765392Y1756519D1*
Y1750724D1*
X3769014Y1741964D1*
X3779964Y1736169D1*
X3798158Y1733204D1*
X3809108D1*
X3827302Y1736169D1*
X3838252Y1741964D1*
X3841874Y1750724D1*
Y1756519D1*
X3827302Y1736169D2*
X3779964Y1771141D1*
X3563764Y1789965D2*
X3571008Y1792862D1*
X3578336Y1798725D1*
X3581958Y1804520D1*
Y1816177D1*
X3578336Y1822040D1*
X3571008Y1827835D1*
X3563764Y1830800D1*
X3552814Y1833697D1*
X3534536D1*
X3523671Y1830800D1*
X3516342Y1827835D1*
X3509099Y1822040D1*
X3505392Y1816177D1*
Y1804520D1*
X3509099Y1798725D1*
X3516342Y1792862D1*
X3523670Y1789965D1*
X3505392Y1741964D2*
X3581874D1*
X3530914Y1771141D1*
Y1727409D1*
X2745392Y1097000D2*
X2821958Y1120382D1*
X2745393Y1143697D1*
X2770914Y1134937D2*
Y1105760D1*
X2821874Y1043204D2*
Y1072314D1*
X2789108Y1075211D1*
X2792730Y1072314D1*
X2796436Y1063554D1*
Y1054861D1*
X2792730Y1046101D1*
X2785486Y1040239D1*
X2774536Y1037341D1*
X2767292D1*
X2756342Y1040239D1*
X2749014Y1046101D1*
X2745392Y1054861D1*
Y1063554D1*
X2749014Y1072314D1*
X2752720Y1075212D1*
X2759964Y1078176D1*
X1987589Y1787000D2*
X2064155Y1810382D1*
X1987589Y1833697D1*
X2013111Y1824937D2*
Y1795760D1*
X2049499Y1768176D2*
X2053205Y1762314D1*
X2064071Y1753554D1*
X1987589D1*
X2235392Y1787000D2*
X2311958Y1810382D1*
X2235393Y1833697D1*
X2260914Y1824937D2*
Y1795760D1*
X2293680Y1765211D2*
X2297302D1*
X2304630Y1762314D1*
X2308252Y1759416D1*
X2311874Y1753554D1*
Y1741896D1*
X2308252Y1736101D1*
X2304630Y1733204D1*
X2297302Y1730239D1*
X2290058D1*
X2282730Y1733204D1*
X2271864Y1738999D1*
X2235392Y1768177D1*
Y1727341D1*
X3005392Y1097000D2*
X3081958Y1120382D1*
X3005393Y1143697D1*
X3030914Y1134937D2*
Y1105760D1*
X3005392Y1066519D2*
X3081874Y1037341D1*
Y1078176D1*
X2235392Y1097000D2*
X2311958Y1120382D1*
X2235393Y1143697D1*
X2260914Y1134937D2*
Y1105760D1*
X2311874Y1072314D2*
Y1040306D1*
X2282730Y1057759D1*
Y1048999D1*
X2279108Y1043204D1*
X2275486Y1040306D1*
X2264536Y1037341D1*
X2257292D1*
X2246342Y1040306D1*
X2239014Y1046101D1*
X2235392Y1054861D1*
Y1063621D1*
X2239014Y1072314D1*
X2242720Y1075212D1*
X2249964Y1078176D1*
X2755392Y1787000D2*
X2831958Y1810382D1*
X2755393Y1833697D1*
X2780914Y1824937D2*
Y1795760D1*
X2755392Y1738999D2*
X2831874D1*
X2780914Y1768176D1*
Y1724444D1*
X3005392Y1787000D2*
X3081958Y1810382D1*
X3005393Y1833697D1*
X3030914Y1824937D2*
Y1795760D1*
X3071008Y1733204D2*
X3078252Y1736101D1*
X3081874Y1744861D1*
Y1750656D1*
X3078252Y1759416D1*
X3067302Y1765279D1*
X3049108Y1768176D1*
X3030914D1*
X3016342Y1765279D1*
X3009014Y1759417D1*
X3005392Y1750657D1*
Y1747759D1*
X3009014Y1739066D1*
X3016342Y1733204D1*
X3027292Y1730306D1*
X3030914D1*
X3041864Y1733204D1*
X3049108Y1739066D1*
X3052730Y1747759D1*
Y1750656D1*
X3049108Y1759416D1*
X3041864Y1765279D1*
X3030914Y1768176D1*
X5382420Y4157870D2*
D92*
Y4106826D1*
X5368808Y4157870D2*
X5396032D1*
X5408581D2*
X5435804Y4106826D1*
Y4157870D2*
X5408581Y4106826D1*
X5989631Y1601591D2*
D91*
X6021639D1*
X6004187Y1572447D1*
X6012947D1*
X6018742Y1568825D1*
X6021639Y1565203D1*
X6024604Y1554253D1*
Y1547009D1*
X6021639Y1536059D1*
X6015844Y1528731D1*
X6007084Y1525109D1*
X5998324D1*
X5989631Y1528731D1*
X5986734Y1532437D1*
X5983769Y1539681D1*
X6046325Y1532437D2*
X6043428Y1528731D1*
X6046325Y1525109D1*
X6049290Y1528731D1*
X6046325Y1532437D1*
X6073976Y1601591D2*
X6105984D1*
X6088531Y1572447D1*
X6097291D1*
X6103086Y1568825D1*
X6105984Y1565203D1*
X6108949Y1554253D1*
Y1547009D1*
X6105984Y1536059D1*
X6100189Y1528731D1*
X6091429Y1525109D1*
X6082669D1*
X6073976Y1528731D1*
X6071079Y1532437D1*
X6068114Y1539681D1*
X3313764Y1100385D2*
X3321008Y1103282D1*
X3328336Y1109145D1*
X3331958Y1114940D1*
Y1126597D1*
X3328336Y1132460D1*
X3321008Y1138255D1*
X3313764Y1141220D1*
X3302814Y1144117D1*
X3284536D1*
X3273671Y1141220D1*
X3266342Y1138255D1*
X3259099Y1132460D1*
X3255392Y1126597D1*
Y1114940D1*
X3259099Y1109145D1*
X3266342Y1103282D1*
X3273670Y1100385D1*
X3284536D1*
Y1114940D1*
X3331874Y1828255D2*
Y1796247D1*
X3302730Y1813700D1*
Y1804940D1*
X3299108Y1799145D1*
X3295486Y1796247D1*
X3284536Y1793282D1*
X3277292D1*
X3266342Y1796247D1*
X3259014Y1802042D1*
X3255392Y1810802D1*
Y1819562D1*
X3259014Y1828255D1*
X3262721Y1831152D1*
X3269964Y1834117D1*
X3262720Y1771561D2*
X3259014Y1774459D1*
X3255392Y1771561D1*
X3259014Y1768597D1*
X3262720Y1771561D1*
X3331874Y1743910D2*
Y1711903D1*
X3302730Y1729355D1*
Y1720595D1*
X3299108Y1714800D1*
X3295486Y1711903D1*
X3284536Y1708938D1*
X3277292D1*
X3266342Y1711903D1*
X3259014Y1717698D1*
X3255392Y1726458D1*
Y1735218D1*
X3259014Y1743911D1*
X3262720Y1746808D1*
X3269964Y1749773D1*
X2553764Y1100385D2*
X2561008Y1103282D1*
X2568336Y1109145D1*
X2571958Y1114940D1*
Y1126597D1*
X2568336Y1132460D1*
X2561008Y1138255D1*
X2553764Y1141220D1*
X2542814Y1144117D1*
X2524536D1*
X2513671Y1141220D1*
X2506342Y1138255D1*
X2499099Y1132460D1*
X2495392Y1126597D1*
Y1114940D1*
X2499099Y1109145D1*
X2506342Y1103282D1*
X2513670Y1100385D1*
X2524536D1*
Y1114940D1*
X2571874Y1828255D2*
Y1796247D1*
X2542730Y1813700D1*
Y1804940D1*
X2539108Y1799145D1*
X2535486Y1796247D1*
X2524536Y1793282D1*
X2517292D1*
X2506342Y1796247D1*
X2499014Y1802042D1*
X2495392Y1810802D1*
Y1819562D1*
X2499014Y1828255D1*
X2502721Y1831152D1*
X2509964Y1834117D1*
X2502720Y1771561D2*
X2499014Y1774459D1*
X2495392Y1771561D1*
X2499014Y1768597D1*
X2502720Y1771561D1*
X2571874Y1743910D2*
Y1711903D1*
X2542730Y1729355D1*
Y1720595D1*
X2539108Y1714800D1*
X2535486Y1711903D1*
X2524536Y1708938D1*
X2517292D1*
X2506342Y1711903D1*
X2499014Y1717698D1*
X2495392Y1726458D1*
Y1735218D1*
X2499014Y1743911D1*
X2502720Y1746808D1*
X2509964Y1749773D1*
X2043764Y1100385D2*
X2051008Y1103282D1*
X2058336Y1109145D1*
X2061958Y1114940D1*
Y1126597D1*
X2058336Y1132460D1*
X2051008Y1138255D1*
X2043764Y1141220D1*
X2032814Y1144117D1*
X2014536D1*
X2003671Y1141220D1*
X1996342Y1138255D1*
X1989099Y1132460D1*
X1985392Y1126597D1*
Y1114940D1*
X1989099Y1109145D1*
X1996342Y1103282D1*
X2003670Y1100385D1*
X2014536D1*
Y1114940D1*
X5982286Y2869772D2*
Y2793206D1*
X6002703D1*
X6011463Y2796912D1*
X6017326Y2804156D1*
X6020223Y2811484D1*
X6023121Y2822350D1*
Y2840628D1*
X6020223Y2851578D1*
X6017326Y2858822D1*
X6011463Y2866150D1*
X6002703Y2869772D1*
X5982286D1*
X6041944Y2855115D2*
X6047807Y2858822D1*
X6056567Y2869687D1*
Y2793206D1*
X6078355Y2851494D2*
Y2855115D1*
X6081253Y2862444D1*
X6084150Y2866065D1*
X6090013Y2869687D1*
X6101670D1*
X6107465Y2866065D1*
X6110363Y2862444D1*
X6113328Y2855115D1*
Y2847872D1*
X6110363Y2840544D1*
X6104568Y2829678D1*
X6075390Y2793206D1*
X6116225D1*
X2892963Y4437341D2*
D92*
X2897849Y4440721D1*
X2900263Y4445831D1*
Y4452632D1*
X2897849Y4457742D1*
X2892963Y4461161D1*
X2888134D1*
X2883249Y4459432D1*
X2880834Y4457742D1*
X2878419Y4454361D1*
X2873534Y4444141D1*
X2871119Y4440721D1*
X2868649Y4439031D1*
X2863819Y4437341D1*
X2856519D1*
X2851690Y4440722D1*
X2849219Y4445832D1*
Y4452632D1*
X2851690Y4457742D1*
X2856519Y4461161D1*
X2900263Y4426361D2*
X2849219D1*
Y4414451D1*
X2851690Y4409341D1*
X2856519Y4405921D1*
X2861405Y4404231D1*
X2868649Y4402540D1*
X2880834D1*
X2888134Y4404231D1*
X2892963Y4405921D1*
X2897849Y4409340D1*
X2900263Y4414450D1*
Y4426361D1*
X2849219Y4364320D2*
X2900263Y4377959D1*
X2849219Y4391560D1*
X2866234Y4386450D2*
Y4369430D1*
X2892963Y5087341D2*
X2897849Y5090721D1*
X2900263Y5095831D1*
Y5102632D1*
X2897849Y5107742D1*
X2892963Y5111161D1*
X2888134D1*
X2883249Y5109432D1*
X2880834Y5107742D1*
X2878419Y5104361D1*
X2873534Y5094141D1*
X2871119Y5090721D1*
X2868649Y5089031D1*
X2863819Y5087341D1*
X2856519D1*
X2851690Y5090722D1*
X2849219Y5095832D1*
Y5102632D1*
X2851690Y5107742D1*
X2856519Y5111161D1*
X2888134Y5050850D2*
X2892963Y5052540D1*
X2897849Y5055960D1*
X2900263Y5059340D1*
Y5066141D1*
X2897849Y5069560D1*
X2892963Y5072941D1*
X2888134Y5074670D1*
X2880834Y5076361D1*
X2868649D1*
X2861405Y5074671D1*
X2856519Y5072941D1*
X2851690Y5069561D1*
X2849219Y5066141D1*
Y5059341D1*
X2851690Y5055960D1*
X2856519Y5052540D1*
X2861405Y5050850D1*
X2900263Y5039870D2*
X2849219D1*
Y5019469D1*
X2390263Y1807550D2*
X2339219D1*
X2390263Y1821161D2*
Y1793938D1*
Y1781389D2*
X2339219Y1754166D1*
X2390263D2*
X2339219Y1781389D1*
X5182963Y5137341D2*
X5187849Y5140721D1*
X5190263Y5145831D1*
Y5152632D1*
X5187849Y5157742D1*
X5182963Y5161161D1*
X5178134D1*
X5173249Y5159432D1*
X5170834Y5157742D1*
X5168419Y5154361D1*
X5163534Y5144141D1*
X5161119Y5140721D1*
X5158649Y5139031D1*
X5153819Y5137341D1*
X5146519D1*
X5141690Y5140722D1*
X5139219Y5145832D1*
Y5152632D1*
X5141690Y5157742D1*
X5146519Y5161161D1*
X5190263Y5126361D2*
X5139219Y5117831D1*
X5190263Y5109340D1*
X5139219Y5100850D1*
X5190263Y5092320D1*
Y5081340D2*
X5139219D1*
Y5069430D1*
X5141690Y5064320D1*
X5146519Y5060900D1*
X5151405Y5059210D1*
X5158649Y5057520D1*
X5170834D1*
X5178134Y5059210D1*
X5182963Y5060900D1*
X5187849Y5064320D1*
X5190263Y5069430D1*
Y5081340D1*
Y5046539D2*
X5139219D1*
X5190263Y5025339D2*
X5187849Y5028759D1*
X5182963Y5032139D1*
X5178134Y5033869D1*
X5170834Y5035559D1*
X5158649D1*
X5151405Y5033869D1*
X5146519Y5032139D1*
X5141690Y5028759D1*
X5139219Y5025339D1*
Y5018539D1*
X5141690Y5015158D1*
X5146519Y5011738D1*
X5151405Y5010048D1*
X5158649Y5008358D1*
X5170834D1*
X5178134Y5010048D1*
X5182963Y5011738D1*
X5187849Y5015158D1*
X5190263Y5018539D1*
Y5025339D1*
X5082963Y4437341D2*
X5087849Y4440721D1*
X5090263Y4445831D1*
Y4452632D1*
X5087849Y4457742D1*
X5082963Y4461161D1*
X5078134D1*
X5073249Y4459432D1*
X5070834Y4457742D1*
X5068419Y4454361D1*
X5063534Y4444141D1*
X5061119Y4440721D1*
X5058649Y4439031D1*
X5053819Y4437341D1*
X5046519D1*
X5041690Y4440722D1*
X5039219Y4445832D1*
Y4452632D1*
X5041690Y4457742D1*
X5046519Y4461161D1*
X5090263Y4426361D2*
X5039219Y4417831D1*
X5090263Y4409340D1*
X5039219Y4400850D1*
X5090263Y4392320D1*
X5078134Y4355829D2*
X5082963Y4357520D1*
X5087849Y4360939D1*
X5090263Y4364320D1*
Y4371120D1*
X5087849Y4374540D1*
X5082963Y4377920D1*
X5078134Y4379650D1*
X5070834Y4381340D1*
X5058649D1*
X5051405Y4379650D1*
X5046519Y4377920D1*
X5041690Y4374540D1*
X5039219Y4371120D1*
Y4364320D1*
X5041690Y4360939D1*
X5046519Y4357520D1*
X5051405Y4355829D1*
X5090263Y4344849D2*
X5039219D1*
Y4324448D1*
X5090263Y4313468D2*
X5039219D1*
X5090263Y4289647D2*
X5056234Y4313468D1*
X5068419Y4304977D2*
X5039219Y4289647D1*
X5130263Y4157550D2*
X5079219D1*
X5130263Y4171161D2*
Y4143938D1*
Y4131389D2*
X5079219Y4104166D1*
X5130263D2*
X5079219Y4131389D1*
X5655949Y5096078D2*
Y5078603D1*
X5658419Y5072763D1*
X5660834Y5070786D1*
X5665663Y5068855D1*
X5670549D1*
X5675378Y5070786D1*
X5677849Y5072763D1*
X5680263Y5078603D1*
Y5096078D1*
X5629219D1*
X5655949Y5082466D2*
X5629219Y5068855D1*
X5680263Y5056306D2*
X5629219Y5029083D1*
X5680263Y5029082D2*
X5629219Y5056306D1*
X5369812Y4368472D2*
X5387287D1*
X5393127Y4370943D1*
X5395103Y4373357D1*
X5397035Y4378187D1*
Y4383072D1*
X5395103Y4387901D1*
X5393127Y4390372D1*
X5387287Y4392787D1*
X5369812D1*
Y4341743D1*
X5383423Y4368472D2*
X5397035Y4341743D1*
X5409584Y4392787D2*
X5436807Y4341743D1*
Y4392787D2*
X5409584Y4341743D1*
X2365949Y1121161D2*
Y1103686D1*
X2368419Y1097846D1*
X2370834Y1095870D1*
X2375663Y1093938D1*
X2380549D1*
X2385378Y1095870D1*
X2387849Y1097846D1*
X2390263Y1103686D1*
Y1121161D1*
X2339219D1*
X2365949Y1107550D2*
X2339219Y1093938D1*
X2390263Y1081389D2*
X2339219Y1054166D1*
X2390263D2*
X2339219Y1081389D1*
X3119219Y1110075D2*
X3170263D1*
X3119219Y1125618D1*
X3170263Y1141161D1*
X3119219D1*
X3170263Y1085846D2*
X3167849Y1089754D1*
X3162963Y1093617D1*
X3158134Y1095594D1*
X3150834Y1097526D1*
X3138649D1*
X3131405Y1095594D1*
X3126519Y1093618D1*
X3121690Y1089754D1*
X3119219Y1085846D1*
Y1078074D1*
X3121690Y1074211D1*
X3126519Y1070303D1*
X3131405Y1068371D1*
X3138649Y1066439D1*
X3150834D1*
X3158134Y1068371D1*
X3162963Y1070302D1*
X3167849Y1074211D1*
X3170263Y1078074D1*
Y1085846D1*
X3162963Y1026667D2*
X3167849Y1030530D1*
X3170263Y1036370D1*
Y1044142D1*
X3167849Y1049982D1*
X3162963Y1053890D1*
X3158134D1*
X3153249Y1051913D1*
X3150834Y1049982D1*
X3148419Y1046118D1*
X3143534Y1034438D1*
X3141119Y1030530D1*
X3138649Y1028598D1*
X3133819Y1026667D1*
X3126519D1*
X3121690Y1030530D1*
X3119219Y1036370D1*
Y1044142D1*
X3121690Y1049982D1*
X3126519Y1053890D1*
X3170263Y1014118D2*
X3119219D1*
X3109219Y1800075D2*
X3160263D1*
X3109219Y1815618D1*
X3160263Y1831161D1*
X3109219D1*
X3160263Y1787526D2*
X3109219D1*
X3152963Y1747753D2*
X3157849Y1751617D1*
X3160263Y1757457D1*
Y1765228D1*
X3157849Y1771068D1*
X3152963Y1774977D1*
X3148134D1*
X3143249Y1773000D1*
X3140834Y1771069D1*
X3138419Y1767205D1*
X3133534Y1755525D1*
X3131119Y1751617D1*
X3128649Y1749685D1*
X3123819Y1747754D1*
X3116519D1*
X3111690Y1751617D1*
X3109219Y1757457D1*
Y1765229D1*
X3111690Y1771069D1*
X3116519Y1774977D1*
X3160263Y1723524D2*
X3157849Y1727433D1*
X3152963Y1731296D1*
X3148134Y1733273D1*
X3140834Y1735204D1*
X3128649Y1735205D1*
X3121405Y1733273D1*
X3116519Y1731296D1*
X3111690Y1727433D1*
X3109219Y1723525D1*
Y1715753D1*
X3111690Y1711889D1*
X3116519Y1707981D1*
X3121405Y1706049D1*
X3128649Y1704118D1*
X3140834D1*
X3148134Y1706049D1*
X3152963Y1707981D1*
X3157849Y1711889D1*
X3160263Y1715753D1*
Y1723524D1*
X2892963Y1107132D2*
X2897849Y1111961D1*
X2900263Y1119261D1*
Y1128976D1*
X2897849Y1136276D1*
X2892963Y1141161D1*
X2888134D1*
X2883249Y1138691D1*
X2880834Y1136276D1*
X2878419Y1131447D1*
X2873534Y1116847D1*
X2871119Y1111962D1*
X2868649Y1109547D1*
X2863819Y1107132D1*
X2856519D1*
X2851690Y1111962D1*
X2849219Y1119262D1*
Y1128976D1*
X2851690Y1136276D1*
X2856519Y1141161D1*
X2888134Y1055002D2*
X2892963Y1057417D1*
X2897849Y1062302D1*
X2900263Y1067131D1*
Y1076846D1*
X2897849Y1081731D1*
X2892963Y1086561D1*
X2888134Y1089031D1*
X2880834Y1091446D1*
X2868649D1*
X2861405Y1089032D1*
X2856519Y1086561D1*
X2851690Y1081732D1*
X2849219Y1076846D1*
Y1067132D1*
X2851690Y1062302D1*
X2856519Y1057417D1*
X2861405Y1055002D1*
X2900263Y1039316D2*
X2849219D1*
X2900263Y1005287D2*
X2866234Y1039316D1*
X2878419Y1027187D2*
X2849219Y1005287D1*
X5322963Y1773938D2*
X5327849Y1777801D1*
X5330263Y1783641D1*
Y1791413D1*
X5327849Y1797253D1*
X5322963Y1801161D1*
X5318134D1*
X5313249Y1799185D1*
X5310834Y1797253D1*
X5308419Y1793390D1*
X5303534Y1781710D1*
X5301119Y1777802D1*
X5298649Y1775870D1*
X5293819Y1773938D1*
X5286519D1*
X5281690Y1777802D1*
X5279219Y1783642D1*
Y1791413D1*
X5281690Y1797253D1*
X5286519Y1801161D1*
X5318134Y1732234D2*
X5322963Y1734166D1*
X5327849Y1738074D1*
X5330263Y1741937D1*
Y1749709D1*
X5327849Y1753617D1*
X5322963Y1757481D1*
X5318134Y1759457D1*
X5310834Y1761389D1*
X5298649D1*
X5291405Y1759458D1*
X5286519Y1757481D1*
X5281690Y1753618D1*
X5279219Y1749709D1*
Y1741938D1*
X5281690Y1738074D1*
X5286519Y1734166D1*
X5291405Y1732234D1*
X5330263Y1719685D2*
X5279219D1*
Y1696370D1*
X5432963Y1113938D2*
X5437849Y1117801D1*
X5440263Y1123641D1*
Y1131413D1*
X5437849Y1137253D1*
X5432963Y1141161D1*
X5428134D1*
X5423249Y1139185D1*
X5420834Y1137253D1*
X5418419Y1133390D1*
X5413534Y1121710D1*
X5411119Y1117802D1*
X5408649Y1115870D1*
X5403819Y1113938D1*
X5396519D1*
X5391690Y1117802D1*
X5389219Y1123642D1*
Y1131413D1*
X5391690Y1137253D1*
X5396519Y1141161D1*
X5440263Y1101389D2*
X5389219D1*
Y1087778D1*
X5391690Y1081938D1*
X5396519Y1078029D1*
X5401405Y1076098D1*
X5408649Y1074166D1*
X5420834D1*
X5428134Y1076098D1*
X5432963Y1078029D1*
X5437849Y1081937D1*
X5440263Y1087777D1*
Y1101389D1*
X5389219Y1030485D2*
X5440263Y1046073D1*
X5389219Y1061617D1*
X5406234Y1055777D2*
Y1036325D1*
X5853764Y5030385D2*
D91*
X5861008Y5033282D1*
X5868336Y5039145D1*
X5871958Y5044940D1*
Y5056597D1*
X5868336Y5062460D1*
X5861008Y5068255D1*
X5853764Y5071220D1*
X5842814Y5074117D1*
X5824536D1*
X5813671Y5071220D1*
X5806342Y5068255D1*
X5799099Y5062460D1*
X5795392Y5056597D1*
Y5044940D1*
X5799099Y5039145D1*
X5806342Y5033282D1*
X5813670Y5030385D1*
X5824536D1*
Y5044940D1*
X6030952Y4896931D2*
X6028054Y4904175D1*
X6022192Y4911503D1*
X6016397Y4915125D1*
X6004739D1*
X5998877Y4911503D1*
X5993081Y4904175D1*
X5990117Y4896931D1*
X5987219Y4885981D1*
Y4867703D1*
X5990117Y4856837D1*
X5993081Y4849509D1*
X5998877Y4842265D1*
X6004739Y4838559D1*
X6016397D1*
X6022192Y4842265D1*
X6028054Y4849509D1*
X6030952Y4856837D1*
Y4867703D1*
X6016397D1*
X5985069Y4407761D2*
X6013075D1*
X5997804Y4378617D1*
X6005469D1*
X6010540Y4374995D1*
X6013075Y4371373D1*
X6015670Y4360423D1*
Y4353179D1*
X6013075Y4342229D1*
X6008005Y4334901D1*
X6000340Y4331279D1*
X5992675D1*
X5985069Y4334901D1*
X5982533Y4338607D1*
X5979939Y4345851D1*
X6034676Y4338607D2*
X6032140Y4334901D1*
X6034676Y4331279D1*
X6037270Y4334901D1*
X6034676Y4338607D1*
X6058870Y4407761D2*
X6086877D1*
X6071606Y4378617D1*
X6079271D1*
X6084342Y4374995D1*
X6086877Y4371373D1*
X6089471Y4360423D1*
Y4353179D1*
X6086877Y4342229D1*
X6081806Y4334901D1*
X6074141Y4331279D1*
X6066476D1*
X6058870Y4334901D1*
X6056335Y4338607D1*
X6053741Y4345851D1*
X6030952Y4126931D2*
X6028054Y4134175D1*
X6022192Y4141503D1*
X6016397Y4145125D1*
X6004739D1*
X5998877Y4141503D1*
X5993081Y4134175D1*
X5990117Y4126931D1*
X5987219Y4115981D1*
Y4097703D1*
X5990117Y4086837D1*
X5993081Y4079509D1*
X5998877Y4072265D1*
X6004739Y4068559D1*
X6016397D1*
X6022192Y4072265D1*
X6028054Y4079509D1*
X6030952Y4086837D1*
Y4097703D1*
X6016397D1*
X5282286Y2859772D2*
Y2783206D1*
X5302703D1*
X5311463Y2786912D1*
X5317326Y2794156D1*
X5320223Y2801484D1*
X5323121Y2812350D1*
Y2830628D1*
X5320223Y2841578D1*
X5317326Y2848822D1*
X5311463Y2856150D1*
X5302703Y2859772D1*
X5282286D1*
X5341944Y2845115D2*
X5347807Y2848822D1*
X5356567Y2859687D1*
Y2783206D1*
X5381253Y2859687D2*
X5413260D1*
X5395808Y2830544D1*
X5404568D1*
X5410363Y2826922D1*
X5413260Y2823300D1*
X5416225Y2812350D1*
Y2805106D1*
X5413260Y2794156D1*
X5407465Y2786828D1*
X5398705Y2783206D1*
X5389945D1*
X5381253Y2786828D1*
X5378355Y2790534D1*
X5375390Y2797778D1*
X5282286Y2609772D2*
Y2533206D1*
X5302703D1*
X5311463Y2536912D1*
X5317326Y2544156D1*
X5320223Y2551484D1*
X5323121Y2562350D1*
Y2580628D1*
X5320223Y2591578D1*
X5317326Y2598822D1*
X5311463Y2606150D1*
X5302703Y2609772D1*
X5282286D1*
X5341944Y2595115D2*
X5347807Y2598822D1*
X5356567Y2609687D1*
Y2533206D1*
X5375390Y2595115D2*
X5381253Y2598822D1*
X5390013Y2609687D1*
Y2533206D1*
X5982286Y2374155D2*
Y2297589D1*
X6002703D1*
X6011463Y2301295D1*
X6017326Y2308539D1*
X6020223Y2315867D1*
X6023121Y2326733D1*
Y2345011D1*
X6020223Y2355961D1*
X6017326Y2363205D1*
X6011463Y2370533D1*
X6002703Y2374155D1*
X5982286D1*
X6056499Y2374071D2*
X6047807Y2370449D1*
X6044842Y2363205D1*
Y2355877D1*
X6047807Y2348633D1*
X6053602Y2344927D1*
X6065259Y2341305D1*
X6074019Y2337683D1*
X6079814Y2330355D1*
X6082712Y2323111D1*
Y2312161D1*
X6079814Y2304917D1*
X6076917Y2301211D1*
X6068157Y2297589D1*
X6056499D1*
X6047807Y2301211D1*
X6044842Y2304917D1*
X6041944Y2312161D1*
Y2323111D1*
X6044842Y2330355D1*
X6050704Y2337683D1*
X6059397Y2341305D1*
X6071054Y2344927D1*
X6076917Y2348633D1*
X6079814Y2355877D1*
Y2363205D1*
X6076917Y2370449D1*
X6068157Y2374071D1*
X6056499D1*
X6030952Y1316931D2*
X6028054Y1324175D1*
X6022192Y1331503D1*
X6016397Y1335125D1*
X6004739D1*
X5998877Y1331503D1*
X5993081Y1324175D1*
X5990117Y1316931D1*
X5987219Y1305981D1*
Y1287703D1*
X5990117Y1276837D1*
X5993081Y1269509D1*
X5998877Y1262265D1*
X6004739Y1258559D1*
X6016397D1*
X6022192Y1262265D1*
X6028054Y1269509D1*
X6030952Y1276837D1*
Y1287703D1*
X6016397D1*
X1735392Y1097000D2*
X1811958Y1120382D1*
X1735393Y1143697D1*
X1760914Y1134937D2*
Y1105760D1*
X1811874Y1060656D2*
X1808252Y1069416D1*
X1797302Y1075279D1*
X1779108Y1078176D1*
X1768158D1*
X1749964Y1075279D1*
X1739014Y1069417D1*
X1735392Y1060657D1*
Y1054861D1*
X1739014Y1046101D1*
X1749964Y1040306D1*
X1768158Y1037341D1*
X1779108D1*
X1797302Y1040306D1*
X1808252Y1046101D1*
X1811874Y1054861D1*
Y1060656D1*
X1797302Y1040306D2*
X1749964Y1075279D1*
X1795961Y1789965D2*
X1803205Y1792862D1*
X1810533Y1798725D1*
X1814155Y1804520D1*
Y1816177D1*
X1810533Y1822040D1*
X1803205Y1827835D1*
X1795961Y1830800D1*
X1785011Y1833697D1*
X1766733D1*
X1755867Y1830800D1*
X1748539Y1827835D1*
X1741295Y1822040D1*
X1737589Y1816177D1*
Y1804520D1*
X1741295Y1798725D1*
X1748539Y1792862D1*
X1755867Y1789965D1*
X1814071Y1765279D2*
Y1733271D1*
X1784927Y1750724D1*
Y1741964D1*
X1781305Y1736169D1*
X1777683Y1733271D1*
X1766733Y1730306D1*
X1759489D1*
X1748539Y1733271D1*
X1741211Y1739066D1*
X1737589Y1747826D1*
Y1756586D1*
X1741211Y1765279D1*
X1744917Y1768177D1*
X1752161Y1771141D1*
X1535961Y1789965D2*
X1543205Y1792862D1*
X1550533Y1798725D1*
X1554155Y1804520D1*
Y1816177D1*
X1550533Y1822040D1*
X1543205Y1827835D1*
X1535961Y1830800D1*
X1525011Y1833697D1*
X1506733D1*
X1495867Y1830800D1*
X1488539Y1827835D1*
X1481295Y1822040D1*
X1477589Y1816177D1*
Y1804520D1*
X1481295Y1798725D1*
X1488539Y1792862D1*
X1495867Y1789965D1*
X1539499Y1771141D2*
X1543205Y1765279D1*
X1554071Y1756519D1*
X1477589D1*
X1258030Y1744044D2*
Y1717831D1*
X1261736Y1709071D1*
X1265358Y1706107D1*
X1272601Y1703209D1*
X1279930D1*
X1287173Y1706106D1*
X1290880Y1709071D1*
X1294502Y1717831D1*
Y1744044D1*
X1217936D1*
X1258030Y1723626D2*
X1217936Y1703209D1*
X1543764Y1099965D2*
X1551008Y1102862D1*
X1558336Y1108725D1*
X1561958Y1114520D1*
Y1126177D1*
X1558336Y1132040D1*
X1551008Y1137835D1*
X1543764Y1140800D1*
X1532814Y1143697D1*
X1514536D1*
X1503671Y1140800D1*
X1496342Y1137835D1*
X1489099Y1132040D1*
X1485392Y1126177D1*
Y1114520D1*
X1489099Y1108725D1*
X1496342Y1102862D1*
X1503670Y1099965D1*
X1543680Y1078176D2*
X1547302D1*
X1554630Y1075279D1*
X1558252Y1072381D1*
X1561874Y1066519D1*
Y1054861D1*
X1558252Y1049066D1*
X1554630Y1046169D1*
X1547302Y1043204D1*
X1540058D1*
X1532730Y1046169D1*
X1521864Y1051964D1*
X1485392Y1081141D1*
Y1040306D1*
X1273764Y1099965D2*
X1281008Y1102862D1*
X1288336Y1108725D1*
X1291958Y1114520D1*
Y1126177D1*
X1288336Y1132040D1*
X1281008Y1137835D1*
X1273764Y1140800D1*
X1262814Y1143697D1*
X1244536D1*
X1233671Y1140800D1*
X1226342Y1137835D1*
X1219099Y1132040D1*
X1215392Y1126177D1*
Y1114520D1*
X1219099Y1108725D1*
X1226342Y1102862D1*
X1233670Y1099965D1*
X1291874Y1063621D2*
X1288252Y1072381D1*
X1277302Y1078244D1*
X1259108Y1081141D1*
X1248158D1*
X1229964Y1078244D1*
X1219014Y1072381D1*
X1215392Y1063621D1*
Y1057826D1*
X1219014Y1049066D1*
X1229964Y1043271D1*
X1248158Y1040306D1*
X1259108D1*
X1277302Y1043271D1*
X1288252Y1049066D1*
X1291874Y1057826D1*
Y1063621D1*
X1277302Y1043271D2*
X1229964Y1078244D1*
X5603764Y1090385D2*
X5611008Y1093282D1*
X5618336Y1099145D1*
X5621958Y1104940D1*
Y1116597D1*
X5618336Y1122460D1*
X5611008Y1128255D1*
X5603764Y1131220D1*
X5592814Y1134117D1*
X5574536D1*
X5563671Y1131220D1*
X5556342Y1128255D1*
X5549099Y1122460D1*
X5545392Y1116597D1*
Y1104940D1*
X5549099Y1099145D1*
X5556342Y1093282D1*
X5563670Y1090385D1*
X5574536D1*
Y1104940D1*
X5853764Y1090385D2*
X5861008Y1093282D1*
X5868336Y1099145D1*
X5871958Y1104940D1*
Y1116597D1*
X5868336Y1122460D1*
X5861008Y1128255D1*
X5853764Y1131220D1*
X5842814Y1134117D1*
X5824536D1*
X5813671Y1131220D1*
X5806342Y1128255D1*
X5799099Y1122460D1*
X5795392Y1116597D1*
Y1104940D1*
X5799099Y1099145D1*
X5806342Y1093282D1*
X5813670Y1090385D1*
X5824536D1*
Y1104940D1*
X5982286Y2119772D2*
Y2043206D1*
X6008566D1*
X6017326Y2046912D1*
X6020223Y2050534D1*
X6023121Y2057778D1*
Y2068728D1*
X6020223Y2076056D1*
X6017326Y2079678D1*
X6008566Y2083300D1*
X6017326Y2087006D1*
X6020223Y2090628D1*
X6023121Y2097872D1*
Y2105200D1*
X6020223Y2112444D1*
X6017326Y2116150D1*
X6008566Y2119772D1*
X5982286D1*
Y2083300D2*
X6008566D1*
X6041944Y2105115D2*
X6047807Y2108822D1*
X6056567Y2119687D1*
Y2043206D1*
X6104568D2*
Y2119687D1*
X6075390Y2068728D1*
X6119123D1*
X5982286Y1839772D2*
Y1763206D1*
X6008566D1*
X6017326Y1766912D1*
X6020223Y1770534D1*
X6023121Y1777778D1*
Y1788728D1*
X6020223Y1796056D1*
X6017326Y1799678D1*
X6008566Y1803300D1*
X6017326Y1807006D1*
X6020223Y1810628D1*
X6023121Y1817872D1*
Y1825200D1*
X6020223Y1832444D1*
X6017326Y1836150D1*
X6008566Y1839772D1*
X5982286D1*
Y1803300D2*
X6008566D1*
X6041944Y1825115D2*
X6047807Y1828822D1*
X6056567Y1839687D1*
Y1763206D1*
X6078355Y1821494D2*
Y1825115D1*
X6081253Y1832444D1*
X6084150Y1836065D1*
X6090013Y1839687D1*
X6101670D1*
X6107465Y1836065D1*
X6110363Y1832444D1*
X6113328Y1825115D1*
Y1817872D1*
X6110363Y1810544D1*
X6104568Y1799678D1*
X6075390Y1763206D1*
X6116225D1*
X1203764Y4419965D2*
X1211008Y4422862D1*
X1218336Y4428725D1*
X1221958Y4434520D1*
Y4446177D1*
X1218336Y4452040D1*
X1211008Y4457835D1*
X1203764Y4460800D1*
X1192814Y4463697D1*
X1174536D1*
X1163671Y4460800D1*
X1156342Y4457835D1*
X1149099Y4452040D1*
X1145392Y4446177D1*
Y4434520D1*
X1149099Y4428725D1*
X1156342Y4422862D1*
X1163670Y4419965D1*
X1207302Y4401141D2*
X1211008Y4395279D1*
X1221874Y4386519D1*
X1145392D1*
X1221874Y4332723D2*
Y4361833D1*
X1189108Y4364730D1*
X1192730Y4361833D1*
X1196436Y4353073D1*
Y4344380D1*
X1192730Y4335620D1*
X1185486Y4329758D1*
X1174536Y4326860D1*
X1167292D1*
X1156342Y4329758D1*
X1149014Y4335620D1*
X1145392Y4344380D1*
Y4353073D1*
X1149014Y4361833D1*
X1152720Y4364731D1*
X1159964Y4367695D1*
X1273764Y5109965D2*
X1281008Y5112862D1*
X1288336Y5118725D1*
X1291958Y5124520D1*
Y5136177D1*
X1288336Y5142040D1*
X1281008Y5147835D1*
X1273764Y5150800D1*
X1262814Y5153697D1*
X1244536D1*
X1233671Y5150800D1*
X1226342Y5147835D1*
X1219099Y5142040D1*
X1215392Y5136177D1*
Y5124520D1*
X1219099Y5118725D1*
X1226342Y5112862D1*
X1233670Y5109965D1*
X1277302Y5091141D2*
X1281008Y5085279D1*
X1291874Y5076519D1*
X1215392D1*
Y5028518D2*
X1291874D1*
X1240914Y5057695D1*
Y5013963D1*
X1566822Y3245111D2*
D93*
X1413718Y3245112D1*
X1490172Y3306274D2*
X1490171Y3183792D1*
X5114071Y2115528D2*
D91*
Y2083521D1*
X5084927Y2100973D1*
Y2092213D1*
X5081305Y2086418D1*
X5077683Y2083521D1*
X5066733Y2080556D1*
X5059489D1*
X5048539Y2083521D1*
X5041211Y2089316D1*
X5037589Y2098076D1*
Y2106836D1*
X5041211Y2115528D1*
X5044917Y2118426D1*
X5052161Y2121391D1*
X5044917Y2058835D2*
X5041211Y2061732D1*
X5037589Y2058835D1*
X5041211Y2055870D1*
X5044917Y2058835D1*
X5114071Y2031184D2*
Y1999176D1*
X5084927Y2016629D1*
Y2007869D1*
X5081305Y2002074D1*
X5077683Y1999176D1*
X5066733Y1996211D1*
X5059489D1*
X5048539Y1999176D1*
X5041211Y2004971D1*
X5037589Y2013731D1*
Y2022491D1*
X5041211Y2031184D1*
X5044917Y2034081D1*
X5052161Y2037046D1*
X4980632Y4132237D2*
X5057198Y4155619D1*
X4980633Y4178934D1*
X5006154Y4170174D2*
Y4140997D1*
X5042542Y4113413D2*
X5046248Y4107551D1*
X5057114Y4098791D1*
X4980632D1*
X5038920Y4077002D2*
X5042542D1*
X5049870Y4074105D1*
X5053492Y4071207D1*
X5057114Y4065345D1*
Y4053687D1*
X5053492Y4047892D1*
X5049870Y4044995D1*
X5042542Y4042030D1*
X5035298D1*
X5027970Y4044995D1*
X5017104Y4050790D1*
X4980632Y4079967D1*
Y4039132D1*
X5332722Y3868281D2*
X5329824Y3875525D1*
X5323962Y3882853D1*
X5318167Y3886475D1*
X5306509D1*
X5300647Y3882853D1*
X5294851Y3875525D1*
X5291887Y3868281D1*
X5288989Y3857331D1*
Y3839053D1*
X5291887Y3828187D1*
X5294851Y3820859D1*
X5300647Y3813615D1*
X5306509Y3809909D1*
X5318167D1*
X5323962Y3813615D1*
X5329824Y3820859D1*
X5332722Y3828187D1*
X5351545Y3871819D2*
X5357408Y3875525D1*
X5366168Y3886391D1*
Y3809909D1*
X5402511Y3886391D2*
X5393751Y3882769D1*
X5387889Y3871819D1*
X5384991Y3853625D1*
Y3842675D1*
X5387889Y3824481D1*
X5393751Y3813531D1*
X5402511Y3809909D1*
X5408306D1*
X5417066Y3813531D1*
X5422861Y3824481D1*
X5425826Y3842675D1*
Y3853625D1*
X5422861Y3871819D1*
X5417066Y3882769D1*
X5408306Y3886391D1*
X5402511D1*
X5422861Y3871819D2*
X5387889Y3824481D1*
X1534440Y3861737D2*
D94*
Y3816814D1*
X1568638Y3587905D2*
D91*
X1503022D1*
X1535788Y3614117D2*
Y3561625D1*
M02*
