G04 DipTrace 3.2.0.1*
G04 Верхний.gbr*
%MOMM*%
G04 #@! TF.FileFunction,Copper,L1,Top*
G04 #@! TF.Part,Single*
%AMOUTLINE3*
4,1,5,
0.0,0.50003,
0.7,0.5,
0.7,-0.5,
0.0,-0.50003,
-0.50003,0.0,
0.0,0.50003,
0*%
%AMOUTLINE6*
4,1,5,
0.89997,-0.5,
-0.2,-0.5,
-0.2,0.5,
0.89997,0.5,
0.4,0.0,
0.89997,-0.5,
0*%
G04 #@! TA.AperFunction,Conductor*
%ADD10C,0.25*%
%ADD13C,0.3*%
G04 #@! TA.AperFunction,CopperBalancing*
%ADD14C,0.33*%
G04 #@! TA.AperFunction,ViaPad*
%ADD15C,0.7*%
G04 #@! TA.AperFunction,Conductor*
%ADD16C,0.5*%
%ADD17C,0.43*%
%ADD18C,0.4*%
G04 #@! TA.AperFunction,CopperBalancing*
%ADD20C,0.635*%
%ADD25R,2.65X1.4*%
%ADD26R,1.5X1.3*%
%ADD27R,1.8X1.6*%
%ADD28R,1.3X1.5*%
%ADD31R,1.8X1.4*%
G04 #@! TA.AperFunction,ComponentPad*
%ADD32C,1.5*%
%ADD33R,1.5X1.5*%
%ADD34C,2.5*%
%ADD36R,1.35X0.4*%
%ADD37R,1.4X1.6*%
%ADD38R,1.3X2.3*%
%ADD39R,1.9X1.8*%
%ADD41R,1.6X0.3*%
%ADD42R,0.3X1.6*%
G04 #@! TA.AperFunction,ComponentPad*
%ADD46C,1.1*%
%ADD47R,1.3X1.6*%
G04 #@! TA.AperFunction,ViaPad*
%ADD48C,1.016*%
%ADD50C,1.0*%
%ADD98OUTLINE3*%
%ADD101OUTLINE6*%
%FSLAX35Y35*%
G04*
G71*
G90*
G75*
G01*
G04 Top*
%LPD*%
X3182000Y2784000D2*
D13*
X3282000D1*
D14*
X3332000Y2834000D1*
Y3024000D1*
X3550000Y2470000D2*
X3530000Y2450000D1*
X3470000D1*
X3452000Y2432000D1*
D13*
Y2314000D1*
X4472000Y2484000D2*
D14*
X4492000D1*
D13*
X4552000Y2424000D1*
Y2314000D1*
X4722000Y3684000D2*
X4512000D1*
X3400000Y3240000D2*
D14*
X3344000Y3184000D1*
X3278500D1*
D13*
X3182000D1*
Y3434000D2*
X3322000D1*
D14*
X3342000Y3454000D1*
X3392000D1*
X3352000Y3854000D2*
D10*
Y3704000D1*
X3732000Y2604000D2*
D14*
X3744000D1*
X3870000Y2730000D1*
Y3200000D1*
X3960000Y3570000D2*
X4150000D1*
X4240000Y3660000D1*
X3870000Y2730000D2*
X4010000Y2590000D1*
X4170000D1*
X3182000Y2634000D2*
D13*
X3292000D1*
D14*
X3332000Y2594000D1*
Y2464000D1*
X3052000Y2684000D2*
D10*
X3182000D1*
X3402000Y3854000D2*
D13*
Y3764000D1*
X3462000Y3704000D1*
X3602000D1*
D14*
Y3552000D1*
X3358000Y3308000D1*
D13*
X3284000Y3234000D1*
X3182000D1*
Y2734000D2*
X3278500D1*
D14*
X3402000D1*
X3432000Y2704000D1*
Y2564000D1*
X3402000Y2534000D1*
Y2410500D1*
D13*
Y2314000D1*
X4722000Y3634000D2*
X4582000D1*
X4542000Y3594000D1*
X4372000D1*
D14*
X4208000Y3430000D1*
X3602000D1*
Y3552000D1*
X4722000Y3634000D2*
D10*
X4832000D1*
X4852000Y3654000D1*
Y3798000D1*
X4850000Y3800000D1*
X1312000Y4084000D2*
D16*
Y3834000D1*
X4882000Y2304000D2*
D10*
Y2324000D1*
X4782000Y2424000D1*
X4642000D1*
X4582000Y2484000D1*
Y2534000D1*
X4192000Y2924000D1*
Y3446000D1*
X4208000Y3430000D1*
X3402000Y3784000D2*
D14*
Y3854000D1*
X1562000Y2134000D2*
D17*
Y1966500D1*
X1539500Y1944000D1*
X2262000Y2694000D2*
D14*
X2146000D1*
X2112000Y2728000D1*
Y3344000D1*
Y3478787D1*
Y3534000D1*
X2182000Y3604000D1*
X2512000D1*
X2592000Y3524000D1*
Y3414000D1*
X2772000Y3234000D1*
X3182000D1*
X2112000Y3478787D2*
D10*
X2237213D1*
X2252000Y3464000D1*
X1702000Y3344000D2*
X2112000D1*
X1702000D2*
Y3194000D1*
X1312000Y4084000D2*
Y4080000D1*
X1578360D1*
Y4130000D1*
X1786000D1*
X1792000Y4124000D1*
X1312000Y4084000D2*
Y4252000D1*
X1340000Y4280000D1*
X1400000D1*
X1510000Y4170000D1*
D18*
Y3874703D1*
Y3850000D1*
D10*
X1490000Y3830000D1*
X1316000D1*
X1312000Y3834000D1*
X1792000Y4124000D2*
D14*
X1596000D1*
X1570000Y4150000D1*
Y4190000D1*
X1700000Y4320000D1*
X2010000D1*
X2050000Y4280000D1*
Y3930000D1*
X2020000Y3900000D1*
X1535297D1*
X1510000Y3874703D1*
X1294500Y2639000D2*
D10*
X1484500D1*
X1539500Y2584000D1*
X1312000Y3580000D2*
D16*
Y3282000D1*
X1300000Y3270000D1*
X3182000Y3134000D2*
D10*
X2392000D1*
X2262000Y3264000D1*
Y3284000D1*
X2442000Y3464000D1*
X4722000Y2734000D2*
X5136000D1*
X5300000Y2570000D1*
Y2440000D1*
X5430000Y2310000D1*
X5571000D1*
X5577000Y2316000D1*
X1562000Y2394000D2*
D18*
X1892000D1*
X1942000Y2444000D1*
D16*
X2152000D1*
X2132000D1*
Y2414000D1*
X1300000Y2930000D2*
X1470000D1*
X1942000Y2458000D1*
Y2444000D1*
X3182000Y3084000D2*
D10*
X2772000D1*
X2712000Y3024000D1*
X2682000D1*
X1852000Y3554000D2*
Y3584000D1*
X2002000Y3734000D1*
X2232000D1*
Y3724000D1*
X2582000D1*
X2712000Y3594000D1*
Y3504000D1*
X2882000Y3334000D1*
X3182000D1*
X1852000Y3554000D2*
X1722000D1*
X1702000Y3534000D1*
X3352000Y2314000D2*
Y2132000D1*
X3180000Y1960000D1*
X2988000D1*
X2662000Y1634000D1*
Y1474000D1*
X2602000Y1414000D1*
X2442000D1*
X2318000Y1290000D1*
X2275000D1*
X3182000Y3384000D2*
X2922000D1*
X2772000Y3534000D1*
Y3624000D1*
X2602000Y3794000D1*
X2332000D1*
X3182000Y3484000D2*
X2912000D1*
X2832000Y3564000D1*
Y3654000D1*
X2642000Y3844000D1*
X2472000D1*
X2452000Y3864000D1*
X2412000D1*
X3182000Y3534000D2*
X2952000D1*
X2892000Y3594000D1*
Y3684000D1*
X2662000Y3914000D1*
X2552000D1*
X2542000Y3924000D1*
X2502000D1*
X2682000Y2834000D2*
Y2844000D1*
X2502000D1*
X2492000Y2854000D1*
Y2884000D1*
X2482000Y2894000D1*
Y2694000D1*
X2452000D1*
X3182000Y3034000D2*
X2872000D1*
X2852000Y3014000D1*
X2772000Y2674000D2*
X2702000Y2604000D1*
Y2452000D1*
X2140000Y1890000D1*
X2452000Y4124000D2*
X2542000D1*
X2568000Y4150000D1*
X2796000D1*
X3132000Y3814000D1*
X3182000Y2984000D2*
X2942000D1*
X2862000Y2904000D1*
X2772000Y2564000D2*
Y2422000D1*
X2240000Y1890000D1*
X3182000Y2934000D2*
X3012000D1*
X2842000Y2764000D1*
Y2392000D1*
X2340000Y1890000D1*
X3182000Y2884000D2*
X3042000D1*
X2892000Y2734000D1*
Y2352000D1*
X2430000Y1890000D1*
X3182000Y2834000D2*
X3072000D1*
X2942000Y2704000D1*
Y2304000D1*
X2462000Y1824000D1*
X1992000D1*
X1767000Y1599000D1*
Y1544000D1*
X3182000Y2584000D2*
X3072000D1*
X2992000Y2504000D1*
Y2254000D1*
X2512000Y1774000D1*
X2052000D1*
X1902000Y1624000D1*
Y1425000D1*
X1767000Y1290000D1*
X3182000Y2534000D2*
X3082000D1*
X3042000Y2494000D1*
Y2204000D1*
X2562000Y1724000D1*
X2152000D1*
X2021000Y1593000D1*
Y1544000D1*
X3182000Y2484000D2*
X3172000D1*
Y2234000D1*
X2612000Y1674000D1*
X2405000D1*
X2275000Y1544000D1*
X3182000Y3584000D2*
X2992000D1*
X2952000Y3624000D1*
Y3714000D1*
X2682000Y3984000D1*
X2602000D1*
X3182000Y3634000D2*
X3032000D1*
X3012000Y3654000D1*
Y3744000D1*
X2702000Y4054000D1*
X2662000D1*
X3182000Y3684000D2*
X3092000D1*
X3072000Y3704000D1*
Y3774000D1*
X2772000Y4074000D1*
X4502000Y2314000D2*
Y2214000D1*
X4512000Y2204000D1*
X4592000D1*
X4692000Y2304000D1*
X4352000Y3854000D2*
Y4114000D1*
X4440000Y4202000D1*
Y4260000D1*
X4692000Y4512000D1*
Y4735003D1*
X4561003Y4866000D1*
X4402000Y3854000D2*
Y4084000D1*
X4802000Y4484000D1*
Y4599000D1*
X4815000Y4612000D1*
X4722000Y3234000D2*
X5164000D1*
X5520000Y3590000D1*
X5573000D1*
X5577000Y3586000D1*
X4202000Y3854000D2*
Y4214000D1*
X4222000Y4234000D1*
Y4474000D1*
X4302000Y4554000D1*
Y4607000D1*
X4307000Y4612000D1*
X4722000Y3134000D2*
X5224000D1*
X5420000Y3330000D1*
X5575000D1*
X5577000Y3332000D1*
X3752000Y3854000D2*
Y4214000D1*
X3682000Y4284000D1*
X3582000D1*
X3562000Y4304000D1*
X3386000D1*
X3206000Y4484000D1*
X3002000D1*
X2912000Y4574000D1*
Y4736997D1*
X2782997Y4866000D1*
X3452000Y3854000D2*
Y3964000D1*
X3392000Y4024000D1*
X3216000D1*
X3036000Y4204000D1*
X2666000D1*
X2282000Y4588000D1*
Y4605000D1*
X2275000Y4612000D1*
X3502000Y3854000D2*
Y4004000D1*
X3422000Y4084000D1*
X3246000D1*
X3066000Y4264000D1*
X2702000D1*
X2412000Y4554000D1*
Y4729000D1*
X2275000Y4866000D1*
X3552000Y3854000D2*
Y4044000D1*
X3462000Y4134000D1*
X3286000D1*
X3096000Y4324000D1*
X2762000D1*
X2529000Y4557000D1*
Y4612000D1*
X3602000Y3854000D2*
Y4084000D1*
X3492000Y4194000D1*
X3316000D1*
X3126000Y4384000D1*
X2822000D1*
X2652000Y4554000D1*
Y4743000D1*
X2529000Y4866000D1*
X3652000Y3854000D2*
Y4114000D1*
X3622000Y4144000D1*
X3612000Y4164000D1*
X4722000Y3034000D2*
X5282000D1*
X5328000Y3080000D1*
X5575000D1*
X5577000Y3078000D1*
X3802000Y3854000D2*
Y4244000D1*
X3712000Y4334000D1*
X3622000D1*
X3602000Y4354000D1*
X3426000D1*
X3282000Y4498000D1*
Y4612000D1*
X3291000D1*
X3852000Y3854000D2*
Y4284000D1*
X3752000Y4384000D1*
X3662000D1*
X3632000Y4414000D1*
X3526000D1*
X3422000Y4518000D1*
Y4735000D1*
X3291000Y4866000D1*
X4552000Y3854000D2*
Y3944000D1*
X5082000Y4474000D1*
Y4599000D1*
X5069000Y4612000D1*
X4722000Y3534000D2*
X4984000D1*
X5060000Y3610000D1*
Y4362000D1*
X5190000Y4492000D1*
Y4745000D1*
X5069000Y4866000D1*
X3902000Y3854000D2*
Y4324000D1*
X3782000Y4444000D1*
X3692000D1*
X3542000Y4594000D1*
Y4609000D1*
X3545000Y4612000D1*
X3952000Y3854000D2*
Y4354000D1*
X3802000Y4504000D1*
X3732000D1*
X3672000Y4564000D1*
Y4739000D1*
X3545000Y4866000D1*
X4002000Y3854000D2*
Y4414000D1*
X3792000Y4624000D1*
Y4619003D1*
X3799003Y4612000D1*
X4052000Y3854000D2*
Y4448000D1*
X3932000Y4568000D1*
Y4733003D1*
X3799003Y4866000D1*
X4102000Y3854000D2*
Y4524000D1*
X4062000Y4564000D1*
Y4612000D1*
X4053000D1*
X4152000Y3854000D2*
Y4524000D1*
X4182000Y4554000D1*
Y4737000D1*
X4053000Y4866000D1*
X4252000Y3854000D2*
Y4174000D1*
X4302000Y4224000D1*
Y4412000D1*
X4440000Y4550000D1*
Y4733000D1*
X4307000Y4866000D1*
X4302000Y3854000D2*
Y4144000D1*
X4372000Y4214000D1*
Y4374000D1*
X4562000Y4564000D1*
Y4611003D1*
X4561003Y4612000D1*
X4502000Y3854000D2*
Y3974000D1*
X4942000Y4414000D1*
Y4739000D1*
X4815000Y4866000D1*
X4722000Y2934000D2*
X5256000D1*
X5370000Y2820000D1*
X5580000D1*
Y2821000D1*
X4722000Y3584000D2*
X4954000D1*
X5000000Y3630000D1*
Y3950000D1*
X4960000Y3990000D1*
X4850000D1*
X4722000Y3484000D2*
X5014000D1*
X5110000Y3580000D1*
Y4322000D1*
X5272000Y4484000D1*
X5502000D1*
X5577000Y4559000D1*
Y4612000D1*
X4722000Y3484000D2*
X4480000D1*
Y3460000D1*
X1562000Y2264000D2*
X1656000D1*
X1700000Y2220000D1*
Y2060000D1*
X4722000Y3434000D2*
X5044000D1*
X5160000Y3550000D1*
Y4262000D1*
X5302000Y4404000D1*
X1562000Y2329000D2*
Y2334000D1*
X1696000D1*
X1780000Y2250000D1*
Y2140000D1*
X4722000Y3434000D2*
X4564000D1*
X4505000Y3375000D1*
X4722000Y2484000D2*
X4982000D1*
X5012000Y2454000D1*
Y2158000D1*
X5490000Y1680000D1*
X5780000D1*
X5831000Y1731000D1*
Y1808000D1*
X4722000Y2834000D2*
X5196000D1*
X5460000Y2570000D1*
X5577000D1*
X4722000Y2634000D2*
X5076000D1*
X5190000Y2520000D1*
Y2330000D1*
X5458000Y2062000D1*
X5577000D1*
X4722000Y2584000D2*
X5046000D1*
X5130000Y2500000D1*
Y2280000D1*
X5470000Y1940000D1*
X5760000D1*
X5831000Y2011000D1*
Y2062000D1*
X1259003Y4612000D2*
X1272000D1*
Y4644000D1*
X1252000D1*
Y4602000D1*
X1249997Y4599997D1*
Y4410000D1*
X1370000D2*
X1440000D1*
X1550000Y4300000D1*
X2002000Y3554000D2*
Y3574000D1*
X2092000Y3664000D1*
X2542000D1*
X2652000Y3554000D1*
Y3474000D1*
X2842000Y3284000D1*
X3182000D1*
X1702000Y3004000D2*
X1872000D1*
X1942000Y3074000D1*
Y3174000D1*
X3502000Y2314000D2*
Y2204000D1*
X3192000Y1894000D1*
X3012000D1*
X2792000Y1674000D1*
Y1553000D1*
X2783000Y1544000D1*
X3552000Y2314000D2*
Y2182000D1*
X3204000Y1834000D1*
X3082000D1*
X2922000Y1674000D1*
Y1429000D1*
X2783000Y1290000D1*
X3602000Y2314000D2*
Y2152000D1*
X3224000Y1774000D1*
X3142000D1*
X3037000Y1669000D1*
Y1544000D1*
X3652000Y2314000D2*
Y2122000D1*
X3172000Y1642000D1*
Y1425000D1*
X3037000Y1290000D1*
X3702000Y2314000D2*
Y2092000D1*
X3542000Y1932000D1*
Y1547000D1*
X3545000Y1544000D1*
X3752000Y2314000D2*
Y1842000D1*
X3662000Y1752000D1*
Y1407000D1*
X3545000Y1290000D1*
X3802000Y2314000D2*
Y1544000D1*
X3799000D1*
X3852000Y2314000D2*
Y1838000D1*
X3932000Y1758000D1*
Y1423000D1*
X3799000Y1290000D1*
X3902000Y2314000D2*
Y1868000D1*
X4052000Y1718000D1*
Y1545000D1*
X4053000Y1544000D1*
X3902000Y2314000D2*
D13*
Y2410500D1*
D14*
Y2441000D1*
X3952000Y2314000D2*
D10*
Y1898000D1*
X4180000Y1670000D1*
Y1417000D1*
X4053000Y1290000D1*
X4002000Y2314000D2*
Y1928000D1*
X4300000Y1630000D1*
Y1544000D1*
X4307000D1*
X4052000Y2314000D2*
Y1958000D1*
X4256000Y1754000D1*
X4356000D1*
X4432000Y1678000D1*
Y1415000D1*
X4307000Y1290000D1*
X4102000Y2314000D2*
Y1988000D1*
X4286000Y1804000D1*
X4396000D1*
X4561000Y1639000D1*
Y1544000D1*
X4152000Y2314000D2*
Y2018000D1*
X4316000Y1854000D1*
X4442000D1*
X4692000Y1604000D1*
Y1421000D1*
X4561000Y1290000D1*
X4202000Y2314000D2*
Y2048000D1*
X4346000Y1904000D1*
X4512000D1*
X4812000Y1604000D1*
Y1547000D1*
X4815000Y1544000D1*
X4252000Y2314000D2*
Y2078000D1*
X4376000Y1954000D1*
X4582000D1*
X4942000Y1594000D1*
Y1417000D1*
X4815000Y1290000D1*
X4302000Y2314000D2*
Y2108000D1*
X4406000Y2004000D1*
X4662000D1*
X5062000Y1604000D1*
Y1551000D1*
X5069000Y1544000D1*
X4352000Y2314000D2*
Y2138000D1*
X4436000Y2054000D1*
X4742000D1*
X5202000Y1594000D1*
Y1423000D1*
X5069000Y1290000D1*
X4402000Y2314000D2*
Y2168000D1*
X4466000Y2104000D1*
X4812000D1*
X5322000Y1594000D1*
Y1545000D1*
X5323000Y1544000D1*
X4452000Y2314000D2*
Y2194000D1*
X4492000Y2154000D1*
X4892000D1*
X5452000Y1594000D1*
Y1419000D1*
X5323000Y1290000D1*
X4722000Y2684000D2*
X5106000D1*
X5240000Y2550000D1*
Y2390000D1*
X5440000Y2190000D1*
X5790000D1*
X5832000Y2232000D1*
Y2322000D1*
X4722000Y2534000D2*
X5016000D1*
X5070000Y2480000D1*
Y2220000D1*
X5470000Y1820000D1*
X5570000D1*
Y1815000D1*
X5577000Y1808000D1*
X4722000Y3384000D2*
X5074000D1*
X5210000Y3520000D1*
Y4182000D1*
X5376000Y4348000D1*
X5577000D1*
X4722000Y3334000D2*
X5104000D1*
X5260000Y3490000D1*
Y4032000D1*
X5342000Y4114000D1*
X5557000D1*
X5577000Y4094000D1*
X4722000Y3284000D2*
X5134000D1*
X5310000Y3460000D1*
Y3550000D1*
X5460000Y3700000D1*
X5720000D1*
X5831000Y3811000D1*
Y3840000D1*
X4452000Y3854000D2*
Y4032000D1*
X4760000Y4340000D1*
X5350000Y3910000D2*
X5507000D1*
X5577000Y3840000D1*
X4722000Y3184000D2*
X5194000D1*
X5460000Y3450000D1*
X5700000D1*
X5831000Y3581000D1*
Y3586000D1*
X4722000Y3084000D2*
X5254000D1*
X5380000Y3210000D1*
X5709000D1*
X5831000Y3332000D1*
X4722000Y2984000D2*
X5286000D1*
X5320000Y2950000D1*
X5710000D1*
X5831000Y3071000D1*
Y3078000D1*
X4722000Y2884000D2*
X5226000D1*
X5410000Y2700000D1*
X5800000D1*
X5831000Y2731000D1*
Y2824000D1*
X4722000Y2784000D2*
X5166000D1*
X5360000Y2590000D1*
Y2520000D1*
X5430000Y2450000D1*
X5780000D1*
X5840000Y2510000D1*
Y2561000D1*
X5831000Y2570000D1*
X3702000Y3854000D2*
Y4174000D1*
X3642000Y4234000D1*
X3542000D1*
X3522000Y4254000D1*
X3346000D1*
X3166000Y4434000D1*
X2912000D1*
X2782997Y4563003D1*
Y4612000D1*
D15*
X3550000Y2470000D3*
X4472000Y2484000D3*
X4512000Y3684000D3*
X3400000Y3240000D3*
X3392000Y3454000D3*
X4512000Y3684000D3*
D48*
X3732000Y2604000D3*
X3870000Y3200000D3*
X3960000Y3570000D3*
X4240000Y3660000D3*
X4170000Y2590000D3*
D3*
D15*
X3332000Y2464000D3*
X3052000Y2684000D3*
D48*
X2132000Y2414000D3*
D15*
X2232000Y3734000D3*
X2332000Y3794000D3*
X2412000Y3864000D3*
X2502000Y3924000D3*
X2772000Y2674000D3*
X2140000Y1890000D3*
X3132000Y3814000D3*
D3*
X2862000Y2904000D3*
X2772000Y2564000D3*
X2240000Y1890000D3*
X2340000D3*
X2430000D3*
X2602000Y3984000D3*
X2662000Y4054000D3*
X2772000Y4074000D3*
X4480000Y3460000D3*
X1700000Y2060000D3*
X5302000Y4404000D3*
X1780000Y2140000D3*
X4505000Y3375000D3*
X1550000Y4300000D3*
X1942000Y3174000D3*
X3902000Y2441000D3*
D3*
X4760000Y4340000D3*
X5350000Y3910000D3*
D48*
X1120000Y2260000D3*
X1130000Y1880000D3*
X1920000Y2000000D3*
X2640000Y2670000D3*
D15*
X2852000Y3014000D3*
X3332000Y3024000D3*
X3352000Y3704000D3*
X3612000Y4164000D3*
D50*
X4122000Y3014000D3*
X3454457Y3669083D2*
D20*
X3889373D1*
X4030587D2*
X4115870D1*
X4364090D2*
X4404437D1*
X3387373Y3605917D2*
X3841157D1*
X4351330D2*
X4439530D1*
X3449170Y3542750D2*
X3838787D1*
X4260367D2*
X4413553D1*
X3497387Y3479583D2*
X3877707D1*
X4042347D2*
X4373267D1*
X3493467Y3416417D2*
X4381103D1*
X3415990Y3353250D2*
X4398697D1*
X3495563Y3290083D2*
X3787290D1*
X3952750D2*
X4441627D1*
X3507777Y3226917D2*
X3748643D1*
X3991303D2*
X4568317D1*
X3474507Y3163750D2*
X3751287D1*
X3988753D2*
X4568317D1*
X3406147Y3100583D2*
X3779817D1*
X3960133D2*
X4568317D1*
X3439780Y3037417D2*
X3779817D1*
X3960133D2*
X4568317D1*
X3427750Y2974250D2*
X3779817D1*
X3960133D2*
X4568317D1*
X3422100Y2911083D2*
X3779817D1*
X3960133D2*
X4568317D1*
X3422100Y2847917D2*
X3779817D1*
X3960133D2*
X4568317D1*
X3406147Y2784750D2*
X3779817D1*
X3960133D2*
X4568317D1*
X3344260Y2721583D2*
X3714737D1*
X4003243D2*
X4568317D1*
X3392477Y2658417D2*
X3620857D1*
X4272580D2*
X4568317D1*
X3422100Y2595250D2*
X3607913D1*
X3860053D2*
X3879893D1*
X4294363D2*
X4568317D1*
X3422100Y2532083D2*
X3446777D1*
X4279233D2*
X4375363D1*
X3658623Y2468917D2*
X3797223D1*
X4006800D2*
X4364517D1*
X3433973Y3015973D2*
X3431463Y3000120D1*
X3426503Y2984857D1*
X3419217Y2970553D1*
X3415783Y2965413D1*
X3415533Y2827427D1*
X3413477Y2814440D1*
X3409413Y2801933D1*
X3403443Y2790220D1*
X3395713Y2779583D1*
X3341250Y2724750D1*
X3329307Y2714913D1*
X3330040Y2708657D1*
X3341250Y2701787D1*
X3351250Y2693250D1*
X3395713Y2648417D1*
X3403443Y2637780D1*
X3409413Y2626067D1*
X3413477Y2613560D1*
X3415533Y2600573D1*
X3415790Y2522633D1*
X3419540Y2516870D1*
X3431960Y2524657D1*
X3444107Y2529690D1*
X3456893Y2532760D1*
X3470027Y2533790D1*
X3483567Y2547783D1*
X3496553Y2557217D1*
X3510857Y2564503D1*
X3526120Y2569463D1*
X3541973Y2571973D1*
X3558027D1*
X3573880Y2569463D1*
X3589143Y2564503D1*
X3603447Y2557217D1*
X3616433Y2547783D1*
X3627783Y2536433D1*
X3637217Y2523447D1*
X3644503Y2509143D1*
X3649463Y2493880D1*
X3651973Y2478027D1*
X3651897Y2461320D1*
X3784290Y2461200D1*
X3801780Y2461290D1*
X3804717Y2472610D1*
X3810860Y2487440D1*
X3819247Y2501123D1*
X3829670Y2513330D1*
X3841877Y2523753D1*
X3855560Y2532140D1*
X3870390Y2538283D1*
X3885997Y2542030D1*
X3902000Y2543290D1*
X3918003Y2542030D1*
X3933610Y2538283D1*
X3950547Y2530960D1*
X3977910Y2512600D1*
X3974330Y2513330D1*
X3984753Y2501123D1*
X3993140Y2487440D1*
X3999283Y2472610D1*
X4002180Y2461280D1*
X4334290Y2461290D1*
X4372197D1*
X4370027Y2475973D1*
Y2492027D1*
X4372537Y2507880D1*
X4377497Y2523143D1*
X4384783Y2537447D1*
X4394217Y2550433D1*
X4405567Y2561783D1*
X4418553Y2571217D1*
X4432857Y2578503D1*
X4448120Y2583463D1*
X4463973Y2585973D1*
X4480027D1*
X4495880Y2583463D1*
X4511143Y2578503D1*
X4525447Y2571217D1*
X4538433Y2561783D1*
X4549783Y2550433D1*
X4559217Y2537447D1*
X4564180Y2528187D1*
X4574710Y2518377D1*
Y2716290D1*
X4574800Y2866290D1*
X4574710Y3016290D1*
Y3300187D1*
X4565123Y3292247D1*
X4551440Y3283860D1*
X4536610Y3277717D1*
X4521003Y3273970D1*
X4505000Y3272710D1*
X4488997Y3273970D1*
X4473390Y3277717D1*
X4458560Y3283860D1*
X4444877Y3292247D1*
X4432670Y3302670D1*
X4422247Y3314877D1*
X4413860Y3328560D1*
X4407717Y3343390D1*
X4403970Y3358997D1*
X4402710Y3375000D1*
X4404060Y3391463D1*
X4392783Y3406553D1*
X4385497Y3420857D1*
X4380537Y3436120D1*
X4378027Y3451973D1*
Y3468027D1*
X4380537Y3483880D1*
X4385497Y3499143D1*
X4392783Y3513447D1*
X4402217Y3526433D1*
X4413567Y3537783D1*
X4426553Y3547217D1*
X4440857Y3554503D1*
X4461373Y3561587D1*
X4473740Y3563543D1*
X4574700Y3563790D1*
X4574710Y3601643D1*
X4572123Y3601247D1*
X4558440Y3592860D1*
X4543610Y3586717D1*
X4528003Y3582970D1*
X4512000Y3581710D1*
X4495997Y3582970D1*
X4480390Y3586717D1*
X4465560Y3592860D1*
X4451877Y3601247D1*
X4439670Y3611670D1*
X4429247Y3623877D1*
X4420860Y3637560D1*
X4414717Y3652390D1*
X4410970Y3667997D1*
X4409710Y3684000D1*
X4410970Y3700003D1*
X4412297Y3706680D1*
X4348470Y3706710D1*
X4354827Y3687567D1*
X4357727Y3669267D1*
Y3650733D1*
X4354827Y3632433D1*
X4349100Y3614810D1*
X4340687Y3598297D1*
X4329797Y3583307D1*
X4316693Y3570203D1*
X4301703Y3559313D1*
X4285190Y3550900D1*
X4267567Y3545173D1*
X4249267Y3542273D1*
X4240397Y3541927D1*
X4204417Y3506287D1*
X4193780Y3498557D1*
X4182067Y3492587D1*
X4169560Y3488523D1*
X4156573Y3486467D1*
X4043267Y3486210D1*
X4029410Y3474463D1*
X4013613Y3464780D1*
X3996493Y3457690D1*
X3978473Y3453363D1*
X3960000Y3451910D1*
X3941527Y3453363D1*
X3923507Y3457690D1*
X3906387Y3464780D1*
X3890590Y3474463D1*
X3876497Y3486497D1*
X3864463Y3500590D1*
X3854780Y3516387D1*
X3847690Y3533507D1*
X3843363Y3551527D1*
X3841910Y3570000D1*
X3843363Y3588473D1*
X3847690Y3606493D1*
X3854780Y3623613D1*
X3864463Y3639410D1*
X3876497Y3653503D1*
X3890590Y3665537D1*
X3906387Y3675220D1*
X3923507Y3682310D1*
X3941527Y3686637D1*
X3960000Y3688090D1*
X3978473Y3686637D1*
X3996493Y3682310D1*
X4013613Y3675220D1*
X4029410Y3665537D1*
X4043210Y3653773D1*
X4115220Y3653790D1*
X4122273Y3669267D1*
X4125173Y3687567D1*
X4131613Y3706737D1*
X3454173Y3706710D1*
X3453973Y3695973D1*
X3451463Y3680120D1*
X3446503Y3664857D1*
X3439217Y3650553D1*
X3429783Y3637567D1*
X3418433Y3626217D1*
X3405447Y3616783D1*
X3391143Y3609497D1*
X3375880Y3604537D1*
X3360027Y3602027D1*
X3343973D1*
X3329320Y3604297D1*
X3329290Y3536850D1*
X3352857Y3548503D1*
X3368120Y3553463D1*
X3383973Y3555973D1*
X3400027D1*
X3415880Y3553463D1*
X3431143Y3548503D1*
X3445447Y3541217D1*
X3458433Y3531783D1*
X3469783Y3520433D1*
X3479217Y3507447D1*
X3486503Y3493143D1*
X3491463Y3477880D1*
X3493973Y3462027D1*
Y3445973D1*
X3491463Y3430120D1*
X3486503Y3414857D1*
X3479217Y3400553D1*
X3469783Y3387567D1*
X3458433Y3376217D1*
X3445447Y3366783D1*
X3431143Y3359497D1*
X3415880Y3354537D1*
X3400027Y3352027D1*
X3383973D1*
X3368120Y3354537D1*
X3357123Y3357923D1*
X3341560Y3352523D1*
X3329313Y3350557D1*
X3329290Y3313880D1*
X3339877Y3322753D1*
X3353560Y3331140D1*
X3368390Y3337283D1*
X3383997Y3341030D1*
X3400000Y3342290D1*
X3416003Y3341030D1*
X3431610Y3337283D1*
X3446440Y3331140D1*
X3460123Y3322753D1*
X3472330Y3312330D1*
X3482753Y3300123D1*
X3491140Y3286440D1*
X3497283Y3271610D1*
X3501030Y3256003D1*
X3502290Y3240000D1*
X3501030Y3223997D1*
X3497283Y3208390D1*
X3491140Y3193560D1*
X3482753Y3179877D1*
X3472330Y3167670D1*
X3460123Y3157247D1*
X3446440Y3148860D1*
X3431610Y3142717D1*
X3417817Y3139330D1*
X3398417Y3120287D1*
X3387757Y3112543D1*
X3392123Y3106753D1*
X3404330Y3096330D1*
X3414753Y3084123D1*
X3423140Y3070440D1*
X3429283Y3055610D1*
X3433030Y3040003D1*
X3434290Y3024000D1*
X3433973Y3015973D1*
X4572690Y3601693D2*
X4558440Y3592860D1*
X4543610Y3586717D1*
X4528003Y3582970D1*
X4512000Y3581710D1*
X4495997Y3582970D1*
X4480390Y3586717D1*
X4465560Y3592860D1*
X4451877Y3601247D1*
X4439670Y3611670D1*
X4429247Y3623877D1*
X4420860Y3637560D1*
X4414717Y3652390D1*
X4410970Y3667997D1*
X4409710Y3684000D1*
X4410970Y3700003D1*
X4412297Y3706680D1*
X4086790Y2673773D2*
X4100590Y2685537D1*
X4116387Y2695220D1*
X4133507Y2702310D1*
X4151527Y2706637D1*
X4170000Y2708090D1*
X4188473Y2706637D1*
X4206493Y2702310D1*
X4223613Y2695220D1*
X4239410Y2685537D1*
X4253503Y2673503D1*
X4265537Y2659410D1*
X4275220Y2643613D1*
X4282310Y2626493D1*
X4286637Y2608473D1*
X4288090Y2590000D1*
X4286637Y2571527D1*
X4282310Y2553507D1*
X4275220Y2536387D1*
X4265537Y2520590D1*
X4253503Y2506497D1*
X4239410Y2494463D1*
X4223613Y2484780D1*
X4206493Y2477690D1*
X4188473Y2473363D1*
X4170000Y2471910D1*
X4151527Y2473363D1*
X4133507Y2477690D1*
X4116387Y2484780D1*
X4100590Y2494463D1*
X4086790Y2506227D1*
X3801820Y2461280D2*
X3804717Y2472610D1*
X3810860Y2487440D1*
X3819247Y2501123D1*
X3829670Y2513330D1*
X3841877Y2523753D1*
X3855560Y2532140D1*
X3870390Y2538283D1*
X3885997Y2542030D1*
X3902000Y2543290D1*
X3918003Y2542030D1*
X3933610Y2538283D1*
X3950547Y2530960D1*
X3870020Y2611523D1*
X3849397Y2590897D1*
X3846827Y2576433D1*
X3841100Y2558810D1*
X3832687Y2542297D1*
X3821797Y2527307D1*
X3808693Y2514203D1*
X3793703Y2503313D1*
X3777190Y2494900D1*
X3759567Y2489173D1*
X3741267Y2486273D1*
X3722733D1*
X3704433Y2489173D1*
X3686810Y2494900D1*
X3670297Y2503313D1*
X3655307Y2514203D1*
X3642203Y2527307D1*
X3631313Y2542297D1*
X3622900Y2558810D1*
X3617173Y2576433D1*
X3614273Y2594733D1*
Y2613267D1*
X3617173Y2631567D1*
X3622900Y2649190D1*
X3631313Y2665703D1*
X3642203Y2680693D1*
X3655307Y2693797D1*
X3670297Y2704687D1*
X3686810Y2713100D1*
X3704433Y2718827D1*
X3722733Y2721727D1*
X3743027Y2721517D1*
X3786260Y2764757D1*
X3786210Y3116733D1*
X3774463Y3130590D1*
X3764780Y3146387D1*
X3757690Y3163507D1*
X3753363Y3181527D1*
X3751910Y3200000D1*
X3753363Y3218473D1*
X3757690Y3236493D1*
X3764780Y3253613D1*
X3774463Y3269410D1*
X3786497Y3283503D1*
X3800590Y3295537D1*
X3816387Y3305220D1*
X3833507Y3312310D1*
X3851527Y3316637D1*
X3870000Y3318090D1*
X3888473Y3316637D1*
X3906493Y3312310D1*
X3923613Y3305220D1*
X3939410Y3295537D1*
X3953503Y3283503D1*
X3965537Y3269410D1*
X3975220Y3253613D1*
X3982310Y3236493D1*
X3986637Y3218473D1*
X3988090Y3200000D1*
X3986637Y3181527D1*
X3982310Y3163507D1*
X3975220Y3146387D1*
X3965537Y3130590D1*
X3953773Y3116790D1*
X3953790Y2764780D1*
X4044680Y2673820D1*
X4086837Y2673790D1*
X4100590Y2685537D1*
X4116387Y2695220D1*
X4133507Y2702310D1*
X4151527Y2706637D1*
X4170000Y2708090D1*
X4188473Y2706637D1*
X4206493Y2702310D1*
X4223613Y2695220D1*
X4239410Y2685537D1*
X4253503Y2673503D1*
X4265537Y2659410D1*
X4275220Y2643613D1*
X4282310Y2626493D1*
X4286637Y2608473D1*
X4288090Y2590000D1*
X4286637Y2571527D1*
X4282310Y2553507D1*
X4275220Y2536387D1*
X4265537Y2520590D1*
X4253503Y2506497D1*
X4239410Y2494463D1*
X4223613Y2484780D1*
X4206493Y2477690D1*
X4188473Y2473363D1*
X4170000Y2471910D1*
X4151527Y2473363D1*
X4133507Y2477690D1*
X4116387Y2484780D1*
X4100590Y2494463D1*
X4086790Y2506227D1*
X4003427Y2506467D1*
X3990440Y2508523D1*
X3977933Y2512587D1*
X3972370Y2515140D1*
X3979783Y2507433D1*
X3989217Y2494447D1*
X3996503Y2480143D1*
X4001463Y2464880D1*
X4002180Y2461280D1*
X1108147Y5005083D2*
X1222593D1*
X1295360D2*
X1476617D1*
X1549383D2*
X1730640D1*
X1803407D2*
X1984573D1*
X2057430D2*
X2238597D1*
X2311363D2*
X2492620D1*
X2565387D2*
X2746643D1*
X2819410D2*
X3000577D1*
X3073433D2*
X3254600D1*
X3327363D2*
X3508623D1*
X3581387D2*
X3762647D1*
X3835410D2*
X4016580D1*
X4089343D2*
X4270603D1*
X4343367D2*
X4524627D1*
X4597390D2*
X4778650D1*
X4851413D2*
X5032580D1*
X5105347D2*
X5286603D1*
X5359370D2*
X5540627D1*
X5613393D2*
X5794650D1*
X5867417D2*
X6021877D1*
X1108147Y4941917D2*
X1132323D1*
X5957650D2*
X6021877D1*
X5979070Y4878750D2*
X6021877D1*
X5970410Y4815583D2*
X6021877D1*
X1108147Y4752417D2*
X1166903D1*
X5923017D2*
X6021877D1*
X1108147Y4689250D2*
X1133233D1*
X5956830D2*
X6021877D1*
X5978980Y4626083D2*
X6021877D1*
X5970867Y4562917D2*
X6021877D1*
X1108147Y4499750D2*
X1163897D1*
X1606803D2*
X1673220D1*
X1860827D2*
X1927243D1*
X2114760D2*
X2181173D1*
X5924837D2*
X6021877D1*
X1108147Y4436583D2*
X1156330D1*
X1532613D2*
X2314247D1*
X5948720D2*
X6021877D1*
X1108147Y4373417D2*
X1156330D1*
X1627587D2*
X2377413D1*
X5977337D2*
X6021877D1*
X1108147Y4310250D2*
X1178297D1*
X1658120D2*
X2440577D1*
X5974513D2*
X6021877D1*
X1108147Y4247083D2*
X1203727D1*
X1420230D2*
X1456110D1*
X1998183D2*
X2245887D1*
X5937690D2*
X6021877D1*
X1108147Y4183917D2*
X1141430D1*
X1482663D2*
X1585900D1*
X1998183D2*
X2245887D1*
X5947623D2*
X6021877D1*
X1507090Y4120750D2*
X1585900D1*
X1998183D2*
X2245887D1*
X5977063D2*
X6021877D1*
X1508823Y4057583D2*
X1585900D1*
X1998183D2*
X2245887D1*
X5974877D2*
X6021877D1*
X1108147Y3994417D2*
X1135420D1*
X1488497D2*
X1585900D1*
X1998183D2*
X2245887D1*
X5938967D2*
X6021877D1*
X1108147Y3931250D2*
X1188870D1*
X1435177D2*
X2328557D1*
X5946530D2*
X6021877D1*
X1108147Y3868083D2*
X1167543D1*
X1456503D2*
X2255093D1*
X5976883D2*
X6021877D1*
X1108147Y3804917D2*
X1166357D1*
X1457600D2*
X1959053D1*
X5975243D2*
X6021877D1*
X1108147Y3741750D2*
X1197347D1*
X1426700D2*
X1890603D1*
X5940243D2*
X6021877D1*
X1108147Y3678583D2*
X1140520D1*
X1483483D2*
X1827437D1*
X3457430D2*
X3907203D1*
X4012780D2*
X4117020D1*
X4362963D2*
X4403493D1*
X5945437D2*
X6021877D1*
X1507363Y3615417D2*
X1553363D1*
X3409487D2*
X3844677D1*
X4355670D2*
X4429743D1*
X5976610D2*
X6021877D1*
X1508640Y3552250D2*
X1553363D1*
X3335660D2*
X3357127D1*
X3426803D2*
X3836930D1*
X4294697D2*
X4429470D1*
X5975607D2*
X6021877D1*
X1108147Y3489083D2*
X1136147D1*
X1487767D2*
X1553363D1*
X3494433D2*
X3867647D1*
X4178120D2*
X4375603D1*
X5941517D2*
X6021877D1*
X1108147Y3425917D2*
X1190603D1*
X1433353D2*
X1548350D1*
X1850620D2*
X2113363D1*
X3496713D2*
X4377243D1*
X5944253D2*
X6021877D1*
X1108147Y3362750D2*
X1136330D1*
X1463613D2*
X1546437D1*
X1850620D2*
X2113363D1*
X3444577D2*
X4397113D1*
X5976243D2*
X6021877D1*
X1108147Y3299583D2*
X1136330D1*
X1463613D2*
X1546437D1*
X1850620D2*
X2123387D1*
X3489513D2*
X3800197D1*
X3939863D2*
X4429560D1*
X5975880D2*
X6021877D1*
X1108147Y3236417D2*
X1136330D1*
X1463613D2*
X1546437D1*
X2029357D2*
X2123387D1*
X3508563D2*
X3751343D1*
X3988720D2*
X4568377D1*
X5942793D2*
X6021877D1*
X1108147Y3173250D2*
X1136330D1*
X1463613D2*
X1546437D1*
X2050593D2*
X2123387D1*
X3483863D2*
X3748610D1*
X3991363D2*
X4568377D1*
X5943067D2*
X6021877D1*
X1108147Y3110083D2*
X1546437D1*
X2028170D2*
X2296747D1*
X3393627D2*
X3779873D1*
X3960100D2*
X4568377D1*
X5975970D2*
X6021877D1*
X1108147Y3046917D2*
X1136330D1*
X1463613D2*
X1546437D1*
X2023433D2*
X2533363D1*
X3438017D2*
X3779873D1*
X3960100D2*
X4568377D1*
X5976243D2*
X6021877D1*
X1108147Y2983750D2*
X1136330D1*
X1970933D2*
X2123387D1*
X3432363D2*
X3779873D1*
X3960100D2*
X4568377D1*
X5943980D2*
X6021877D1*
X1108147Y2920583D2*
X1136330D1*
X1850620D2*
X2123387D1*
X3422157D2*
X3779873D1*
X3960100D2*
X4568377D1*
X5941883D2*
X6021877D1*
X1108147Y2857417D2*
X1136330D1*
X1685190D2*
X2123387D1*
X3422157D2*
X3779873D1*
X3960100D2*
X4568377D1*
X5975697D2*
X6021877D1*
X1108147Y2794250D2*
X1136330D1*
X1742613D2*
X2123387D1*
X3412130D2*
X3779873D1*
X3960100D2*
X4568377D1*
X5976517D2*
X6021877D1*
X1108147Y2731083D2*
X1155877D1*
X1805777D2*
X2123387D1*
X3353887D2*
X3746240D1*
X3993730D2*
X4568377D1*
X5945073D2*
X6021877D1*
X1108147Y2667917D2*
X1155877D1*
X1868940D2*
X2123387D1*
X2590633D2*
X2646747D1*
X3382963D2*
X3626383D1*
X4265073D2*
X4568377D1*
X5940607D2*
X6021877D1*
X1108147Y2604750D2*
X1155877D1*
X1932103D2*
X2123387D1*
X2590633D2*
X2615850D1*
X3421427D2*
X3607607D1*
X4293510D2*
X4568377D1*
X5975333D2*
X6021877D1*
X1108147Y2541583D2*
X1155877D1*
X2315647D2*
X2615850D1*
X3422157D2*
X3470613D1*
X3838600D2*
X3877033D1*
X4284030D2*
X4381070D1*
X5976790D2*
X6021877D1*
X2315647Y2478417D2*
X2609197D1*
X3658313D2*
X3800470D1*
X4003577D2*
X4124950D1*
X4215033D2*
X4363480D1*
X5946257D2*
X6021877D1*
X2315647Y2415250D2*
X2546030D1*
X5945803D2*
X6021877D1*
X2315647Y2352083D2*
X2482867D1*
X5977430D2*
X6021877D1*
X2315647Y2288917D2*
X2419703D1*
X5976700D2*
X6021877D1*
X2315647Y2225750D2*
X2356540D1*
X5943160D2*
X6021877D1*
X5937963Y2162583D2*
X6021877D1*
X5974603Y2099417D2*
X6021877D1*
X5977247Y2036250D2*
X6021877D1*
X1108147Y1973083D2*
X1155877D1*
X1760293D2*
X2073987D1*
X5948447D2*
X6021877D1*
X1108147Y1909917D2*
X1155877D1*
X1683183D2*
X2033337D1*
X5979617D2*
X6021877D1*
X1108147Y1846750D2*
X1155877D1*
X1683183D2*
X1895523D1*
X5979617D2*
X6021877D1*
X1108147Y1783583D2*
X1155877D1*
X1433170D2*
X1832360D1*
X5979617D2*
X6021877D1*
X1108147Y1720417D2*
X1155877D1*
X1433170D2*
X1769197D1*
X5979617D2*
X6021877D1*
X1108147Y1657250D2*
X1166540D1*
X1351503D2*
X1420470D1*
X1605530D2*
X1674497D1*
X5924473D2*
X6021877D1*
X5971503Y1594083D2*
X6021877D1*
X5980073Y1530917D2*
X6021877D1*
X1108147Y1467750D2*
X1132507D1*
X5958470D2*
X6021877D1*
X1108147Y1404583D2*
X1168270D1*
X5980620D2*
X6021877D1*
X5980620Y1341417D2*
X6021877D1*
X5980620Y1278250D2*
X6021877D1*
X1108147Y1215083D2*
X1131597D1*
X5980620D2*
X6021877D1*
X1108147Y1151917D2*
X1218310D1*
X1299733D2*
X1472333D1*
X1553667D2*
X1726267D1*
X1807690D2*
X1980290D1*
X2061713D2*
X2234313D1*
X2315737D2*
X2488337D1*
X2569670D2*
X2742270D1*
X2823693D2*
X2996293D1*
X3077717D2*
X3250317D1*
X3331647D2*
X3504340D1*
X3585670D2*
X3758270D1*
X3839697D2*
X4012293D1*
X4093720D2*
X4266317D1*
X4347650D2*
X4520340D1*
X4601673D2*
X4774273D1*
X4855697D2*
X5028297D1*
X5109720D2*
X5282320D1*
X5363653D2*
X5536343D1*
X5617677D2*
X5683363D1*
X5980620D2*
X6021877D1*
X2275543Y4261290D2*
X2495843D1*
X2287010Y4470150D1*
X2263837D1*
X2241783Y4473640D1*
X2220547Y4480540D1*
X2200653Y4490677D1*
X2182590Y4503803D1*
X2166803Y4519590D1*
X2153677Y4537653D1*
X2147783Y4547403D1*
X2136120Y4528363D1*
X2121617Y4511387D1*
X2104640Y4496883D1*
X2085600Y4485220D1*
X2064973Y4476673D1*
X2043263Y4471463D1*
X2021003Y4469710D1*
X1998743Y4471463D1*
X1977033Y4476673D1*
X1956407Y4485220D1*
X1937367Y4496883D1*
X1920390Y4511387D1*
X1905887Y4528363D1*
X1894020Y4547837D1*
X1882117Y4528363D1*
X1867613Y4511387D1*
X1850637Y4496883D1*
X1831597Y4485220D1*
X1810970Y4476673D1*
X1789260Y4471463D1*
X1767000Y4469710D1*
X1744740Y4471463D1*
X1723030Y4476673D1*
X1702403Y4485220D1*
X1683363Y4496883D1*
X1666387Y4511387D1*
X1651883Y4528363D1*
X1640017Y4547837D1*
X1628117Y4528363D1*
X1613613Y4511387D1*
X1596637Y4496883D1*
X1577597Y4485220D1*
X1556970Y4476673D1*
X1535260Y4471463D1*
X1513000Y4469710D1*
X1506590Y4469963D1*
X1507290Y4455533D1*
X1561193Y4401647D1*
X1573880Y4399463D1*
X1589143Y4394503D1*
X1603447Y4387217D1*
X1616433Y4377783D1*
X1627783Y4366433D1*
X1637217Y4353447D1*
X1644503Y4339143D1*
X1649463Y4323880D1*
X1651973Y4308027D1*
Y4291973D1*
X1649463Y4276120D1*
X1644667Y4261297D1*
X1991790Y4261290D1*
Y3986710D1*
X1592210D1*
Y4206827D1*
X1573880Y4200537D1*
X1558027Y4198027D1*
X1541973D1*
X1526120Y4200537D1*
X1510857Y4205497D1*
X1496553Y4212783D1*
X1483567Y4222217D1*
X1472217Y4233567D1*
X1462783Y4246553D1*
X1455497Y4260857D1*
X1450537Y4276120D1*
X1448407Y4288767D1*
X1440003Y4292710D1*
X1364720Y4292913D1*
X1350517Y4293537D1*
X1339970Y4292710D1*
X1224717Y4292917D1*
X1214287Y4294570D1*
X1204247Y4297833D1*
X1194837Y4302627D1*
X1186297Y4308833D1*
X1178830Y4316300D1*
X1172623Y4324840D1*
X1167830Y4334250D1*
X1164567Y4344290D1*
X1162913Y4354720D1*
X1162707Y4460000D1*
X1163537Y4470527D1*
X1166000Y4480793D1*
X1170050Y4490567D1*
X1166593Y4503803D1*
X1150807Y4519590D1*
X1137680Y4537653D1*
X1127543Y4557547D1*
X1120643Y4578783D1*
X1117153Y4600837D1*
Y4623163D1*
X1120643Y4645217D1*
X1127543Y4666453D1*
X1137680Y4686347D1*
X1150807Y4704410D1*
X1166593Y4720197D1*
X1184657Y4733323D1*
X1194407Y4739220D1*
X1175367Y4750883D1*
X1158390Y4765387D1*
X1143887Y4782363D1*
X1132223Y4801403D1*
X1123677Y4822030D1*
X1118467Y4843740D1*
X1116713Y4866000D1*
X1118467Y4888260D1*
X1123677Y4909970D1*
X1132223Y4930597D1*
X1143887Y4949637D1*
X1158390Y4966613D1*
X1175367Y4981117D1*
X1194407Y4992780D1*
X1215033Y5001327D1*
X1236743Y5006537D1*
X1259003Y5008290D1*
X1281263Y5006537D1*
X1302973Y5001327D1*
X1323600Y4992780D1*
X1342640Y4981117D1*
X1359617Y4966613D1*
X1374120Y4949637D1*
X1385987Y4930163D1*
X1397883Y4949637D1*
X1412387Y4966613D1*
X1429363Y4981117D1*
X1448403Y4992780D1*
X1469030Y5001327D1*
X1490740Y5006537D1*
X1513000Y5008290D1*
X1535260Y5006537D1*
X1556970Y5001327D1*
X1577597Y4992780D1*
X1596637Y4981117D1*
X1613613Y4966613D1*
X1628117Y4949637D1*
X1639983Y4930163D1*
X1651883Y4949637D1*
X1666387Y4966613D1*
X1683363Y4981117D1*
X1702403Y4992780D1*
X1723030Y5001327D1*
X1744740Y5006537D1*
X1767000Y5008290D1*
X1789260Y5006537D1*
X1810970Y5001327D1*
X1831597Y4992780D1*
X1850637Y4981117D1*
X1867613Y4966613D1*
X1882117Y4949637D1*
X1893983Y4930163D1*
X1905887Y4949637D1*
X1920390Y4966613D1*
X1937367Y4981117D1*
X1956407Y4992780D1*
X1977033Y5001327D1*
X1998743Y5006537D1*
X2021003Y5008290D1*
X2043263Y5006537D1*
X2064973Y5001327D1*
X2085600Y4992780D1*
X2104640Y4981117D1*
X2121617Y4966613D1*
X2136120Y4949637D1*
X2147987Y4930163D1*
X2159883Y4949637D1*
X2174387Y4966613D1*
X2191363Y4981117D1*
X2210403Y4992780D1*
X2231030Y5001327D1*
X2252740Y5006537D1*
X2275000Y5008290D1*
X2297260Y5006537D1*
X2318970Y5001327D1*
X2339597Y4992780D1*
X2358637Y4981117D1*
X2375613Y4966613D1*
X2390117Y4949637D1*
X2401983Y4930163D1*
X2413883Y4949637D1*
X2428387Y4966613D1*
X2445363Y4981117D1*
X2464403Y4992780D1*
X2485030Y5001327D1*
X2506740Y5006537D1*
X2529000Y5008290D1*
X2551260Y5006537D1*
X2572970Y5001327D1*
X2593597Y4992780D1*
X2612637Y4981117D1*
X2629613Y4966613D1*
X2644117Y4949637D1*
X2655983Y4930163D1*
X2667880Y4949637D1*
X2682383Y4966613D1*
X2699360Y4981117D1*
X2718400Y4992780D1*
X2739027Y5001327D1*
X2760737Y5006537D1*
X2782997Y5008290D1*
X2805257Y5006537D1*
X2826967Y5001327D1*
X2847593Y4992780D1*
X2866633Y4981117D1*
X2883610Y4966613D1*
X2898113Y4949637D1*
X2909980Y4930163D1*
X2919343Y4946020D1*
X2930820Y4960723D1*
X2944123Y4973800D1*
X2959023Y4985020D1*
X2975263Y4994200D1*
X2992563Y5001173D1*
X3010627Y5005823D1*
X3029143Y5008073D1*
X3047797Y5007880D1*
X3066263Y5005247D1*
X3084227Y5000223D1*
X3101380Y4992893D1*
X3117427Y4983380D1*
X3132090Y4971850D1*
X3145120Y4958503D1*
X3156290Y4943563D1*
X3163990Y4930150D1*
X3175883Y4949637D1*
X3190387Y4966613D1*
X3207363Y4981117D1*
X3226403Y4992780D1*
X3247030Y5001327D1*
X3268740Y5006537D1*
X3291000Y5008290D1*
X3313260Y5006537D1*
X3334970Y5001327D1*
X3355597Y4992780D1*
X3374637Y4981117D1*
X3391613Y4966613D1*
X3406117Y4949637D1*
X3417983Y4930163D1*
X3429883Y4949637D1*
X3444387Y4966613D1*
X3461363Y4981117D1*
X3480403Y4992780D1*
X3501030Y5001327D1*
X3522740Y5006537D1*
X3545000Y5008290D1*
X3567260Y5006537D1*
X3588970Y5001327D1*
X3609597Y4992780D1*
X3628637Y4981117D1*
X3645613Y4966613D1*
X3660117Y4949637D1*
X3671983Y4930163D1*
X3683887Y4949637D1*
X3698390Y4966613D1*
X3715367Y4981117D1*
X3734407Y4992780D1*
X3755033Y5001327D1*
X3776743Y5006537D1*
X3799003Y5008290D1*
X3821263Y5006537D1*
X3842973Y5001327D1*
X3863600Y4992780D1*
X3882640Y4981117D1*
X3899617Y4966613D1*
X3914120Y4949637D1*
X3925987Y4930163D1*
X3937883Y4949637D1*
X3952387Y4966613D1*
X3969363Y4981117D1*
X3988403Y4992780D1*
X4009030Y5001327D1*
X4030740Y5006537D1*
X4053000Y5008290D1*
X4075260Y5006537D1*
X4096970Y5001327D1*
X4117597Y4992780D1*
X4136637Y4981117D1*
X4153613Y4966613D1*
X4168117Y4949637D1*
X4179983Y4930163D1*
X4191883Y4949637D1*
X4206387Y4966613D1*
X4223363Y4981117D1*
X4242403Y4992780D1*
X4263030Y5001327D1*
X4284740Y5006537D1*
X4307000Y5008290D1*
X4329260Y5006537D1*
X4350970Y5001327D1*
X4371597Y4992780D1*
X4390637Y4981117D1*
X4407613Y4966613D1*
X4422117Y4949637D1*
X4433983Y4930163D1*
X4445887Y4949637D1*
X4460390Y4966613D1*
X4477367Y4981117D1*
X4496407Y4992780D1*
X4517033Y5001327D1*
X4538743Y5006537D1*
X4561003Y5008290D1*
X4583263Y5006537D1*
X4604973Y5001327D1*
X4625600Y4992780D1*
X4644640Y4981117D1*
X4661617Y4966613D1*
X4676120Y4949637D1*
X4687987Y4930163D1*
X4699883Y4949637D1*
X4714387Y4966613D1*
X4731363Y4981117D1*
X4750403Y4992780D1*
X4771030Y5001327D1*
X4792740Y5006537D1*
X4815000Y5008290D1*
X4837260Y5006537D1*
X4858970Y5001327D1*
X4879597Y4992780D1*
X4898637Y4981117D1*
X4915613Y4966613D1*
X4930117Y4949637D1*
X4941983Y4930163D1*
X4953883Y4949637D1*
X4968387Y4966613D1*
X4985363Y4981117D1*
X5004403Y4992780D1*
X5025030Y5001327D1*
X5046740Y5006537D1*
X5069000Y5008290D1*
X5091260Y5006537D1*
X5112970Y5001327D1*
X5133597Y4992780D1*
X5152637Y4981117D1*
X5169613Y4966613D1*
X5184117Y4949637D1*
X5195983Y4930163D1*
X5205347Y4946020D1*
X5216823Y4960723D1*
X5230127Y4973800D1*
X5245027Y4985020D1*
X5261267Y4994200D1*
X5278567Y5001173D1*
X5296630Y5005823D1*
X5315147Y5008073D1*
X5333800Y5007880D1*
X5352267Y5005247D1*
X5370230Y5000223D1*
X5387383Y4992893D1*
X5403430Y4983380D1*
X5418093Y4971850D1*
X5431123Y4958503D1*
X5442293Y4943563D1*
X5449993Y4930150D1*
X5461883Y4949637D1*
X5476387Y4966613D1*
X5493363Y4981117D1*
X5512403Y4992780D1*
X5533030Y5001327D1*
X5554740Y5006537D1*
X5577000Y5008290D1*
X5599260Y5006537D1*
X5620970Y5001327D1*
X5641597Y4992780D1*
X5660637Y4981117D1*
X5677613Y4966613D1*
X5692117Y4949637D1*
X5703983Y4930163D1*
X5713343Y4946020D1*
X5724820Y4960723D1*
X5738123Y4973800D1*
X5753023Y4985020D1*
X5769263Y4994200D1*
X5786563Y5001173D1*
X5804627Y5005823D1*
X5823143Y5008073D1*
X5841797Y5007880D1*
X5860263Y5005247D1*
X5878227Y5000223D1*
X5895380Y4992893D1*
X5911427Y4983380D1*
X5926090Y4971850D1*
X5939120Y4958503D1*
X5950290Y4943563D1*
X5959410Y4927293D1*
X5966327Y4909970D1*
X5970913Y4891890D1*
X5973100Y4873363D1*
X5972983Y4856673D1*
X5970543Y4838180D1*
X5965707Y4820167D1*
X5958553Y4802937D1*
X5949207Y4786793D1*
X5937830Y4772013D1*
X5924617Y4758847D1*
X5909797Y4747520D1*
X5895163Y4739017D1*
X5914637Y4727117D1*
X5931613Y4712613D1*
X5946117Y4695637D1*
X5957780Y4676597D1*
X5966327Y4655970D1*
X5971537Y4634260D1*
X5973290Y4612000D1*
X5971537Y4589740D1*
X5966327Y4568030D1*
X5957780Y4547403D1*
X5946117Y4528363D1*
X5931613Y4511387D1*
X5914637Y4496883D1*
X5895597Y4485220D1*
X5884020Y4480013D1*
X5895597Y4474780D1*
X5914637Y4463117D1*
X5931613Y4448613D1*
X5946117Y4431637D1*
X5957780Y4412597D1*
X5966327Y4391970D1*
X5971537Y4370260D1*
X5973290Y4348000D1*
X5971537Y4325740D1*
X5966327Y4304030D1*
X5957780Y4283403D1*
X5946117Y4264363D1*
X5931613Y4247387D1*
X5914637Y4232883D1*
X5895163Y4221017D1*
X5911427Y4211380D1*
X5926090Y4199850D1*
X5939120Y4186503D1*
X5950290Y4171563D1*
X5959410Y4155293D1*
X5966327Y4137970D1*
X5970913Y4119890D1*
X5973100Y4101363D1*
X5972983Y4084673D1*
X5970543Y4066180D1*
X5965707Y4048167D1*
X5958553Y4030937D1*
X5949207Y4014793D1*
X5937830Y4000013D1*
X5924617Y3986847D1*
X5909797Y3975520D1*
X5895163Y3967017D1*
X5914637Y3955117D1*
X5931613Y3940613D1*
X5946117Y3923637D1*
X5957780Y3904597D1*
X5966327Y3883970D1*
X5971537Y3862260D1*
X5973290Y3840000D1*
X5971537Y3817740D1*
X5966327Y3796030D1*
X5957780Y3775403D1*
X5946117Y3756363D1*
X5931613Y3739387D1*
X5914637Y3724883D1*
X5895163Y3713017D1*
X5914637Y3701117D1*
X5931613Y3686613D1*
X5946117Y3669637D1*
X5957780Y3650597D1*
X5966327Y3629970D1*
X5971537Y3608260D1*
X5973290Y3586000D1*
X5971537Y3563740D1*
X5966327Y3542030D1*
X5957780Y3521403D1*
X5946117Y3502363D1*
X5931613Y3485387D1*
X5914637Y3470883D1*
X5895163Y3459017D1*
X5914637Y3447117D1*
X5931613Y3432613D1*
X5946117Y3415637D1*
X5957780Y3396597D1*
X5966327Y3375970D1*
X5971537Y3354260D1*
X5973290Y3332000D1*
X5971537Y3309740D1*
X5966327Y3288030D1*
X5957780Y3267403D1*
X5946117Y3248363D1*
X5931613Y3231387D1*
X5914637Y3216883D1*
X5895163Y3205017D1*
X5914637Y3193117D1*
X5931613Y3178613D1*
X5946117Y3161637D1*
X5957780Y3142597D1*
X5966327Y3121970D1*
X5971537Y3100260D1*
X5973290Y3078000D1*
X5971537Y3055740D1*
X5966327Y3034030D1*
X5957780Y3013403D1*
X5946117Y2994363D1*
X5931613Y2977387D1*
X5914637Y2962883D1*
X5895163Y2951017D1*
X5914637Y2939117D1*
X5931613Y2924613D1*
X5946117Y2907637D1*
X5957780Y2888597D1*
X5966327Y2867970D1*
X5971537Y2846260D1*
X5973290Y2824000D1*
X5971537Y2801740D1*
X5966327Y2780030D1*
X5957780Y2759403D1*
X5946117Y2740363D1*
X5931613Y2723387D1*
X5914637Y2708883D1*
X5905673Y2702897D1*
X5902083Y2694753D1*
X5905347Y2691323D1*
X5923410Y2678197D1*
X5939197Y2662410D1*
X5952323Y2644347D1*
X5962460Y2624453D1*
X5969360Y2603217D1*
X5972850Y2581163D1*
Y2558837D1*
X5969360Y2536783D1*
X5962460Y2515547D1*
X5952323Y2495653D1*
X5939197Y2477590D1*
X5923410Y2461803D1*
X5905347Y2448677D1*
X5901197Y2446353D1*
X5915637Y2437117D1*
X5932613Y2422613D1*
X5947117Y2405637D1*
X5958780Y2386597D1*
X5967327Y2365970D1*
X5972537Y2344260D1*
X5974290Y2322000D1*
X5972537Y2299740D1*
X5967327Y2278030D1*
X5958780Y2257403D1*
X5947117Y2238363D1*
X5932613Y2221387D1*
X5915637Y2206883D1*
X5905090Y2199973D1*
X5900020Y2190290D1*
X5905347Y2183323D1*
X5923410Y2170197D1*
X5939197Y2154410D1*
X5952323Y2136347D1*
X5962460Y2116453D1*
X5969360Y2095217D1*
X5972850Y2073163D1*
Y2050837D1*
X5969360Y2028783D1*
X5962460Y2007547D1*
X5952323Y1987653D1*
X5939197Y1969590D1*
X5923410Y1953803D1*
X5918990Y1950317D1*
X5973290Y1950290D1*
Y1665710D1*
X5906347Y1665323D1*
X5924410Y1652197D1*
X5940197Y1636410D1*
X5953323Y1618347D1*
X5963460Y1598453D1*
X5970360Y1577217D1*
X5973850Y1555163D1*
Y1532837D1*
X5970360Y1510783D1*
X5963460Y1489547D1*
X5953323Y1469653D1*
X5940197Y1451590D1*
X5924410Y1435803D1*
X5919990Y1432317D1*
X5974290Y1432290D1*
Y1147710D1*
X5689710D1*
Y1203143D1*
X5677440Y1189213D1*
X5663393Y1176940D1*
X5647860Y1166610D1*
X5631110Y1158400D1*
X5613433Y1152453D1*
X5595127Y1148870D1*
X5576510Y1147710D1*
X5557900Y1148997D1*
X5539620Y1152707D1*
X5521980Y1158777D1*
X5505290Y1167103D1*
X5489827Y1177540D1*
X5475867Y1189907D1*
X5463643Y1203997D1*
X5453367Y1219567D1*
X5449780Y1225403D1*
X5438117Y1206363D1*
X5423613Y1189387D1*
X5406637Y1174883D1*
X5387597Y1163220D1*
X5366970Y1154673D1*
X5345260Y1149463D1*
X5323000Y1147710D1*
X5300740Y1149463D1*
X5279030Y1154673D1*
X5258403Y1163220D1*
X5239363Y1174883D1*
X5222387Y1189387D1*
X5207883Y1206363D1*
X5196017Y1225837D1*
X5184117Y1206363D1*
X5169613Y1189387D1*
X5152637Y1174883D1*
X5133597Y1163220D1*
X5112970Y1154673D1*
X5091260Y1149463D1*
X5069000Y1147710D1*
X5046740Y1149463D1*
X5025030Y1154673D1*
X5004403Y1163220D1*
X4985363Y1174883D1*
X4968387Y1189387D1*
X4953883Y1206363D1*
X4942017Y1225837D1*
X4930117Y1206363D1*
X4915613Y1189387D1*
X4898637Y1174883D1*
X4879597Y1163220D1*
X4858970Y1154673D1*
X4837260Y1149463D1*
X4815000Y1147710D1*
X4792740Y1149463D1*
X4771030Y1154673D1*
X4750403Y1163220D1*
X4731363Y1174883D1*
X4714387Y1189387D1*
X4699883Y1206363D1*
X4688017Y1225837D1*
X4676117Y1206363D1*
X4661613Y1189387D1*
X4644637Y1174883D1*
X4625597Y1163220D1*
X4604970Y1154673D1*
X4583260Y1149463D1*
X4561000Y1147710D1*
X4538740Y1149463D1*
X4517030Y1154673D1*
X4496403Y1163220D1*
X4477363Y1174883D1*
X4460387Y1189387D1*
X4445883Y1206363D1*
X4434017Y1225837D1*
X4422117Y1206363D1*
X4407613Y1189387D1*
X4390637Y1174883D1*
X4371597Y1163220D1*
X4350970Y1154673D1*
X4329260Y1149463D1*
X4307000Y1147710D1*
X4284740Y1149463D1*
X4263030Y1154673D1*
X4242403Y1163220D1*
X4223363Y1174883D1*
X4206387Y1189387D1*
X4191883Y1206363D1*
X4180017Y1225837D1*
X4168117Y1206363D1*
X4153613Y1189387D1*
X4136637Y1174883D1*
X4117597Y1163220D1*
X4096970Y1154673D1*
X4075260Y1149463D1*
X4053000Y1147710D1*
X4030740Y1149463D1*
X4009030Y1154673D1*
X3988403Y1163220D1*
X3969363Y1174883D1*
X3952387Y1189387D1*
X3937883Y1206363D1*
X3926017Y1225837D1*
X3914117Y1206363D1*
X3899613Y1189387D1*
X3882637Y1174883D1*
X3863597Y1163220D1*
X3842970Y1154673D1*
X3821260Y1149463D1*
X3799000Y1147710D1*
X3776740Y1149463D1*
X3755030Y1154673D1*
X3734403Y1163220D1*
X3715363Y1174883D1*
X3698387Y1189387D1*
X3683883Y1206363D1*
X3672017Y1225837D1*
X3660117Y1206363D1*
X3645613Y1189387D1*
X3628637Y1174883D1*
X3609597Y1163220D1*
X3588970Y1154673D1*
X3567260Y1149463D1*
X3545000Y1147710D1*
X3522740Y1149463D1*
X3501030Y1154673D1*
X3480403Y1163220D1*
X3461363Y1174883D1*
X3444387Y1189387D1*
X3429883Y1206363D1*
X3418017Y1225837D1*
X3409207Y1210793D1*
X3397830Y1196013D1*
X3384617Y1182847D1*
X3369797Y1171520D1*
X3353620Y1162230D1*
X3336370Y1155137D1*
X3318337Y1150360D1*
X3299837Y1147983D1*
X3281183Y1148050D1*
X3262700Y1150553D1*
X3244700Y1155453D1*
X3227497Y1162667D1*
X3211387Y1172067D1*
X3196643Y1183493D1*
X3183523Y1196753D1*
X3172250Y1211613D1*
X3164010Y1225853D1*
X3152117Y1206363D1*
X3137613Y1189387D1*
X3120637Y1174883D1*
X3101597Y1163220D1*
X3080970Y1154673D1*
X3059260Y1149463D1*
X3037000Y1147710D1*
X3014740Y1149463D1*
X2993030Y1154673D1*
X2972403Y1163220D1*
X2953363Y1174883D1*
X2936387Y1189387D1*
X2921883Y1206363D1*
X2910017Y1225837D1*
X2898117Y1206363D1*
X2883613Y1189387D1*
X2866637Y1174883D1*
X2847597Y1163220D1*
X2826970Y1154673D1*
X2805260Y1149463D1*
X2783000Y1147710D1*
X2760740Y1149463D1*
X2739030Y1154673D1*
X2718403Y1163220D1*
X2699363Y1174883D1*
X2682387Y1189387D1*
X2667883Y1206363D1*
X2656017Y1225837D1*
X2647207Y1210793D1*
X2635830Y1196013D1*
X2622617Y1182847D1*
X2607797Y1171520D1*
X2591620Y1162230D1*
X2574370Y1155137D1*
X2556337Y1150360D1*
X2537837Y1147983D1*
X2519183Y1148050D1*
X2500700Y1150553D1*
X2482700Y1155453D1*
X2465497Y1162667D1*
X2449387Y1172067D1*
X2434643Y1183493D1*
X2421523Y1196753D1*
X2410250Y1211613D1*
X2402010Y1225853D1*
X2390117Y1206363D1*
X2375613Y1189387D1*
X2358637Y1174883D1*
X2339597Y1163220D1*
X2318970Y1154673D1*
X2297260Y1149463D1*
X2275000Y1147710D1*
X2252740Y1149463D1*
X2231030Y1154673D1*
X2210403Y1163220D1*
X2191363Y1174883D1*
X2174387Y1189387D1*
X2159883Y1206363D1*
X2148017Y1225837D1*
X2139207Y1210793D1*
X2127830Y1196013D1*
X2114617Y1182847D1*
X2099797Y1171520D1*
X2083620Y1162230D1*
X2066370Y1155137D1*
X2048337Y1150360D1*
X2029837Y1147983D1*
X2011183Y1148050D1*
X1992700Y1150553D1*
X1974700Y1155453D1*
X1957497Y1162667D1*
X1941387Y1172067D1*
X1926643Y1183493D1*
X1913523Y1196753D1*
X1902250Y1211613D1*
X1894010Y1225853D1*
X1882117Y1206363D1*
X1867613Y1189387D1*
X1850637Y1174883D1*
X1831597Y1163220D1*
X1810970Y1154673D1*
X1789260Y1149463D1*
X1767000Y1147710D1*
X1744740Y1149463D1*
X1723030Y1154673D1*
X1702403Y1163220D1*
X1683363Y1174883D1*
X1666387Y1189387D1*
X1651883Y1206363D1*
X1640017Y1225837D1*
X1628117Y1206363D1*
X1613613Y1189387D1*
X1596637Y1174883D1*
X1577597Y1163220D1*
X1556970Y1154673D1*
X1535260Y1149463D1*
X1513000Y1147710D1*
X1490740Y1149463D1*
X1469030Y1154673D1*
X1448403Y1163220D1*
X1429363Y1174883D1*
X1412387Y1189387D1*
X1397883Y1206363D1*
X1386017Y1225837D1*
X1374117Y1206363D1*
X1359613Y1189387D1*
X1342637Y1174883D1*
X1323597Y1163220D1*
X1302970Y1154673D1*
X1281260Y1149463D1*
X1259000Y1147710D1*
X1236740Y1149463D1*
X1215030Y1154673D1*
X1194403Y1163220D1*
X1175363Y1174883D1*
X1158387Y1189387D1*
X1143883Y1206363D1*
X1132220Y1225403D1*
X1123673Y1246030D1*
X1118463Y1267740D1*
X1116710Y1290000D1*
X1118463Y1312260D1*
X1123673Y1333970D1*
X1132220Y1354597D1*
X1143883Y1373637D1*
X1158387Y1390613D1*
X1175363Y1405117D1*
X1194837Y1416983D1*
X1175363Y1428883D1*
X1158387Y1443387D1*
X1143883Y1460363D1*
X1132220Y1479403D1*
X1123673Y1500030D1*
X1118463Y1521740D1*
X1116710Y1544000D1*
X1118463Y1566260D1*
X1123673Y1587970D1*
X1132220Y1608597D1*
X1143883Y1627637D1*
X1158387Y1644613D1*
X1175363Y1659117D1*
X1194403Y1670780D1*
X1215030Y1679327D1*
X1236740Y1684537D1*
X1259000Y1686290D1*
X1281260Y1684537D1*
X1302970Y1679327D1*
X1323597Y1670780D1*
X1342637Y1659117D1*
X1359613Y1644613D1*
X1374117Y1627637D1*
X1385983Y1608163D1*
X1397883Y1627637D1*
X1412387Y1644613D1*
X1429363Y1659117D1*
X1448403Y1670780D1*
X1469030Y1679327D1*
X1490740Y1684537D1*
X1513000Y1686290D1*
X1535260Y1684537D1*
X1556970Y1679327D1*
X1577597Y1670780D1*
X1596637Y1659117D1*
X1613613Y1644613D1*
X1628117Y1627637D1*
X1639983Y1608163D1*
X1651883Y1627637D1*
X1666387Y1644613D1*
X1683363Y1659117D1*
X1702403Y1670780D1*
X1723030Y1679327D1*
X1738450Y1683287D1*
X1940180Y1884673D1*
X1950310Y1892033D1*
X1961467Y1897717D1*
X1973373Y1901587D1*
X1985740Y1903543D1*
X2038577Y1903790D1*
X2042717Y1921610D1*
X2048860Y1936440D1*
X2057247Y1950123D1*
X2067670Y1962330D1*
X2079877Y1972753D1*
X2093560Y1981140D1*
X2108390Y1987283D1*
X2123997Y1991030D1*
X2128767Y1991593D1*
X2153893Y2016733D1*
X1792693Y2016710D1*
X1782753Y1999877D1*
X1772330Y1987670D1*
X1760123Y1977247D1*
X1746440Y1968860D1*
X1731610Y1962717D1*
X1716003Y1958970D1*
X1700000Y1957710D1*
X1683997Y1958970D1*
X1676767Y1960407D1*
X1676790Y1796710D1*
X1426777D1*
X1426790Y1706710D1*
X1162210D1*
Y1991723D1*
X1132210Y1991710D1*
Y2536290D1*
X1162197D1*
X1162210Y2792690D1*
X1142710Y2792710D1*
Y3067290D1*
X1457290D1*
Y3022353D1*
X1477240Y3022007D1*
X1491543Y3019740D1*
X1505317Y3015267D1*
X1518220Y3008690D1*
X1529937Y3000177D1*
X1552727Y2977793D1*
X1552957Y3415277D1*
X1554607Y3425700D1*
X1559707Y3439727D1*
X1559710Y3666290D1*
X1803527D1*
X1823453Y3672910D1*
X1829227Y3674060D1*
X1950180Y3794673D1*
X1960310Y3802033D1*
X1971467Y3807717D1*
X1983373Y3811587D1*
X1995740Y3813543D1*
X2167977Y3813790D1*
X2178553Y3821217D1*
X2192857Y3828503D1*
X2208120Y3833463D1*
X2223973Y3835973D1*
X2238740Y3836027D1*
X2244783Y3847447D1*
X2254217Y3860433D1*
X2265567Y3871783D1*
X2278553Y3881217D1*
X2292857Y3888503D1*
X2308120Y3893463D1*
X2314430Y3894720D1*
X2320860Y3910440D1*
X2329247Y3924123D1*
X2339670Y3936330D1*
X2351877Y3946753D1*
X2365560Y3955140D1*
X2380390Y3961283D1*
X2395997Y3965030D1*
X2408833Y3966167D1*
X2414783Y3977447D1*
X2421287Y3986710D1*
X2252210D1*
Y4261290D1*
X2275543D1*
X1844290Y3401713D2*
X1844717Y3205610D1*
X1850860Y3220440D1*
X1859247Y3234123D1*
X1869670Y3246330D1*
X1881877Y3256753D1*
X1895560Y3265140D1*
X1910390Y3271283D1*
X1925997Y3275030D1*
X1942000Y3276290D1*
X1958003Y3275030D1*
X1973610Y3271283D1*
X1988440Y3265140D1*
X2002123Y3256753D1*
X2014330Y3246330D1*
X2024753Y3234123D1*
X2033140Y3220440D1*
X2039283Y3205610D1*
X2043030Y3190003D1*
X2044290Y3174000D1*
X2043030Y3157997D1*
X2039283Y3142390D1*
X2033140Y3127560D1*
X2024753Y3113877D1*
X2021783Y3110107D1*
X2021543Y3067740D1*
X2019587Y3055373D1*
X2015717Y3043467D1*
X2010033Y3032310D1*
X2002673Y3022180D1*
X1928420Y2947580D1*
X1918900Y2939450D1*
X1908223Y2932907D1*
X1896657Y2928117D1*
X1884483Y2925193D1*
X1871977Y2924210D1*
X1844200D1*
X1844290Y2871710D1*
X1684693D1*
X1679920Y2859470D1*
X1676663Y2853850D1*
X1939167Y2591353D1*
X2129697Y2591290D1*
X2129710Y3041290D1*
X2539750D1*
X2528667Y3054210D1*
X2385740Y3054457D1*
X2373373Y3056413D1*
X2361467Y3060283D1*
X2350310Y3065967D1*
X2340180Y3073327D1*
X2296460Y3116700D1*
X2129710Y3116710D1*
Y3321697D1*
X2119710Y3321710D1*
Y3520863D1*
X2114980Y3507200D1*
X2106270Y3490103D1*
X2094990Y3474580D1*
X2081420Y3461010D1*
X2065897Y3449730D1*
X2048800Y3441020D1*
X2030547Y3435090D1*
X2011593Y3432087D1*
X1992407D1*
X1973453Y3435090D1*
X1955200Y3441020D1*
X1938103Y3449730D1*
X1927087Y3457457D1*
X1915897Y3449730D1*
X1898800Y3441020D1*
X1880547Y3435090D1*
X1861593Y3432087D1*
X1844317Y3432013D1*
X1844200Y3401710D1*
X1844290Y3143723D2*
Y3089167D1*
X1862177Y3107017D1*
X1859247Y3113877D1*
X1850860Y3127560D1*
X1844283Y3143930D1*
X2309290Y2551640D2*
Y2172147D1*
X2622187Y2485027D1*
X2622457Y2610260D1*
X2624413Y2622627D1*
X2628283Y2634533D1*
X2633967Y2645690D1*
X2641327Y2655820D1*
X2670263Y2685103D1*
X2673617Y2701713D1*
X2584303Y2701710D1*
X2584290Y2551710D1*
X2309287D1*
X1166043Y3407290D2*
X1219730D1*
X1211530Y3416047D1*
X1198973Y3424433D1*
X1187117Y3433780D1*
X1176030Y3444030D1*
X1165780Y3455117D1*
X1156433Y3466973D1*
X1148047Y3479530D1*
X1140670Y3492703D1*
X1134347Y3506413D1*
X1129120Y3520580D1*
X1125023Y3535110D1*
X1122077Y3549920D1*
X1120303Y3564913D1*
X1119710Y3580000D1*
X1120303Y3595087D1*
X1122077Y3610080D1*
X1125023Y3624890D1*
X1129120Y3639420D1*
X1134347Y3653587D1*
X1140670Y3667297D1*
X1148047Y3680470D1*
X1156433Y3693027D1*
X1165780Y3704883D1*
X1176030Y3715970D1*
X1187117Y3726220D1*
X1205300Y3739793D1*
X1193250Y3755613D1*
X1184013Y3771820D1*
X1176980Y3789097D1*
X1172267Y3807143D1*
X1169953Y3825653D1*
X1170083Y3844307D1*
X1172650Y3862783D1*
X1177613Y3880763D1*
X1184887Y3897940D1*
X1194343Y3914020D1*
X1203070Y3925537D1*
X1186590Y3938233D1*
X1169867Y3954487D1*
X1155233Y3972643D1*
X1142907Y3992440D1*
X1133067Y4013580D1*
X1125860Y4035757D1*
X1121390Y4058643D1*
X1119720Y4081903D1*
X1120880Y4105193D1*
X1124853Y4128173D1*
X1131577Y4150500D1*
X1140950Y4171850D1*
X1152843Y4191910D1*
X1167077Y4210383D1*
X1183440Y4226997D1*
X1201693Y4241507D1*
X1221570Y4253700D1*
X1242777Y4263397D1*
X1265003Y4270457D1*
X1287917Y4274777D1*
X1311187Y4276287D1*
X1334470Y4274973D1*
X1357420Y4270850D1*
X1379703Y4263977D1*
X1400993Y4254457D1*
X1420970Y4242433D1*
X1439347Y4228077D1*
X1455850Y4211603D1*
X1470240Y4193250D1*
X1482300Y4173293D1*
X1491857Y4152023D1*
X1498767Y4129750D1*
X1502933Y4106807D1*
X1504290Y4084000D1*
X1502877Y4060723D1*
X1498653Y4037790D1*
X1491690Y4015537D1*
X1482080Y3994290D1*
X1469970Y3974360D1*
X1455537Y3956043D1*
X1438993Y3939610D1*
X1420923Y3925540D1*
X1431290Y3911563D1*
X1440410Y3895293D1*
X1447327Y3877970D1*
X1451913Y3859890D1*
X1454100Y3841363D1*
X1453983Y3824673D1*
X1451543Y3806180D1*
X1446707Y3788167D1*
X1439553Y3770937D1*
X1430207Y3754793D1*
X1418770Y3739947D1*
X1436883Y3726220D1*
X1447970Y3715970D1*
X1458220Y3704883D1*
X1467567Y3693027D1*
X1475953Y3680470D1*
X1483330Y3667297D1*
X1489653Y3653587D1*
X1494880Y3639420D1*
X1498977Y3624890D1*
X1501923Y3610080D1*
X1503697Y3595087D1*
X1504290Y3580000D1*
X1503697Y3564913D1*
X1501923Y3549920D1*
X1498977Y3535110D1*
X1494880Y3520580D1*
X1489653Y3506413D1*
X1483330Y3492703D1*
X1475953Y3479530D1*
X1467567Y3466973D1*
X1458220Y3455117D1*
X1447970Y3444030D1*
X1436883Y3433780D1*
X1425027Y3424433D1*
X1404290Y3411463D1*
X1422710Y3407290D1*
X1457290D1*
Y3132710D1*
X1142710D1*
Y3407290D1*
X1166043D1*
X1162707Y4399980D2*
Y4370020D1*
X3433973Y3015973D2*
X3431463Y3000120D1*
X3426503Y2984857D1*
X3419217Y2970553D1*
X3415783Y2965413D1*
X3415533Y2827427D1*
X3413477Y2814440D1*
X3409413Y2801933D1*
X3403443Y2790220D1*
X3395713Y2779583D1*
X3341250Y2724750D1*
X3329307Y2714913D1*
X3330040Y2708657D1*
X3341250Y2701787D1*
X3351250Y2693250D1*
X3395713Y2648417D1*
X3403443Y2637780D1*
X3409413Y2626067D1*
X3413477Y2613560D1*
X3415533Y2600573D1*
X3415790Y2522633D1*
X3419540Y2516870D1*
X3431960Y2524657D1*
X3444107Y2529690D1*
X3456893Y2532760D1*
X3470027Y2533790D1*
X3483567Y2547783D1*
X3496553Y2557217D1*
X3510857Y2564503D1*
X3526120Y2569463D1*
X3541973Y2571973D1*
X3558027D1*
X3573880Y2569463D1*
X3589143Y2564503D1*
X3603447Y2557217D1*
X3616433Y2547783D1*
X3627783Y2536433D1*
X3637217Y2523447D1*
X3644503Y2509143D1*
X3649463Y2493880D1*
X3651973Y2478027D1*
X3651897Y2461320D1*
X3801780Y2461290D1*
X3804717Y2472610D1*
X3810860Y2487440D1*
X3819247Y2501123D1*
X3829670Y2513330D1*
X3841877Y2523753D1*
X3855560Y2532140D1*
X3870390Y2538283D1*
X3885997Y2542030D1*
X3902000Y2543290D1*
X3918003Y2542030D1*
X3933610Y2538283D1*
X3950547Y2530960D1*
X3977910Y2512600D1*
X3974330Y2513330D1*
X3984753Y2501123D1*
X3993140Y2487440D1*
X3999283Y2472610D1*
X4002180Y2461280D1*
X4184290Y2461290D1*
X4334290Y2461200D1*
X4372197Y2461290D1*
X4370027Y2475973D1*
Y2492027D1*
X4372537Y2507880D1*
X4377497Y2523143D1*
X4384783Y2537447D1*
X4394217Y2550433D1*
X4405567Y2561783D1*
X4418553Y2571217D1*
X4432857Y2578503D1*
X4448120Y2583463D1*
X4463973Y2585973D1*
X4480027D1*
X4495880Y2583463D1*
X4511143Y2578503D1*
X4525447Y2571217D1*
X4538433Y2561783D1*
X4549783Y2550433D1*
X4559217Y2537447D1*
X4564180Y2528187D1*
X4574710Y2518377D1*
Y2866290D1*
X4574800Y3016290D1*
X4574710Y3166290D1*
Y3300187D1*
X4565123Y3292247D1*
X4551440Y3283860D1*
X4536610Y3277717D1*
X4521003Y3273970D1*
X4505000Y3272710D1*
X4488997Y3273970D1*
X4473390Y3277717D1*
X4458560Y3283860D1*
X4444877Y3292247D1*
X4432670Y3302670D1*
X4422247Y3314877D1*
X4413860Y3328560D1*
X4407717Y3343390D1*
X4403970Y3358997D1*
X4402710Y3375000D1*
X4404060Y3391463D1*
X4392783Y3406553D1*
X4385497Y3420857D1*
X4380537Y3436120D1*
X4378027Y3451973D1*
Y3468027D1*
X4380537Y3483880D1*
X4385497Y3499143D1*
X4392783Y3513447D1*
X4402217Y3526433D1*
X4413567Y3537783D1*
X4426553Y3547217D1*
X4440857Y3554503D1*
X4461373Y3561587D1*
X4473740Y3563543D1*
X4574700Y3563790D1*
X4574710Y3601643D1*
X4572123Y3601247D1*
X4558440Y3592860D1*
X4543610Y3586717D1*
X4528003Y3582970D1*
X4512000Y3581710D1*
X4495997Y3582970D1*
X4480390Y3586717D1*
X4465560Y3592860D1*
X4451877Y3601247D1*
X4439670Y3611670D1*
X4429247Y3623877D1*
X4420860Y3637560D1*
X4414717Y3652390D1*
X4410970Y3667997D1*
X4409710Y3684000D1*
X4410970Y3700003D1*
X4412297Y3706680D1*
X4348470Y3706710D1*
X4354827Y3687567D1*
X4357727Y3669267D1*
Y3650733D1*
X4354827Y3632433D1*
X4349100Y3614810D1*
X4340687Y3598297D1*
X4329797Y3583307D1*
X4316693Y3570203D1*
X4301703Y3559313D1*
X4285190Y3550900D1*
X4267567Y3545173D1*
X4249267Y3542273D1*
X4240397Y3541927D1*
X4204417Y3506287D1*
X4193780Y3498557D1*
X4182067Y3492587D1*
X4169560Y3488523D1*
X4156573Y3486467D1*
X4043267Y3486210D1*
X4029410Y3474463D1*
X4013613Y3464780D1*
X3996493Y3457690D1*
X3978473Y3453363D1*
X3960000Y3451910D1*
X3941527Y3453363D1*
X3923507Y3457690D1*
X3906387Y3464780D1*
X3890590Y3474463D1*
X3876497Y3486497D1*
X3864463Y3500590D1*
X3854780Y3516387D1*
X3847690Y3533507D1*
X3843363Y3551527D1*
X3841910Y3570000D1*
X3843363Y3588473D1*
X3847690Y3606493D1*
X3854780Y3623613D1*
X3864463Y3639410D1*
X3876497Y3653503D1*
X3890590Y3665537D1*
X3906387Y3675220D1*
X3923507Y3682310D1*
X3941527Y3686637D1*
X3960000Y3688090D1*
X3978473Y3686637D1*
X3996493Y3682310D1*
X4013613Y3675220D1*
X4029410Y3665537D1*
X4043210Y3653773D1*
X4115220Y3653790D1*
X4122273Y3669267D1*
X4125173Y3687567D1*
X4131613Y3706737D1*
X3454267Y3706710D1*
X3453030Y3687997D1*
X3449283Y3672390D1*
X3443140Y3657560D1*
X3434753Y3643877D1*
X3424330Y3631670D1*
X3412123Y3621247D1*
X3398440Y3612860D1*
X3383610Y3606717D1*
X3368003Y3602970D1*
X3352000Y3601710D1*
X3335997Y3602970D1*
X3329320Y3604297D1*
X3329290Y3536850D1*
X3352857Y3548503D1*
X3368120Y3553463D1*
X3383973Y3555973D1*
X3400027D1*
X3415880Y3553463D1*
X3431143Y3548503D1*
X3445447Y3541217D1*
X3458433Y3531783D1*
X3469783Y3520433D1*
X3479217Y3507447D1*
X3486503Y3493143D1*
X3491463Y3477880D1*
X3493973Y3462027D1*
Y3445973D1*
X3491463Y3430120D1*
X3486503Y3414857D1*
X3479217Y3400553D1*
X3469783Y3387567D1*
X3458433Y3376217D1*
X3445447Y3366783D1*
X3431143Y3359497D1*
X3415880Y3354537D1*
X3400027Y3352027D1*
X3383973D1*
X3368120Y3354537D1*
X3357123Y3357923D1*
X3341560Y3352527D1*
X3329313Y3350557D1*
X3329290Y3313900D1*
X3339877Y3322753D1*
X3353560Y3331140D1*
X3368390Y3337283D1*
X3383997Y3341030D1*
X3400000Y3342290D1*
X3416003Y3341030D1*
X3431610Y3337283D1*
X3446440Y3331140D1*
X3460123Y3322753D1*
X3472330Y3312330D1*
X3482753Y3300123D1*
X3491140Y3286440D1*
X3497283Y3271610D1*
X3501030Y3256003D1*
X3502290Y3240000D1*
X3501030Y3223997D1*
X3497283Y3208390D1*
X3491140Y3193560D1*
X3482753Y3179877D1*
X3472330Y3167670D1*
X3460123Y3157247D1*
X3446440Y3148860D1*
X3431610Y3142717D1*
X3417817Y3139330D1*
X3398417Y3120287D1*
X3387757Y3112543D1*
X3392123Y3106753D1*
X3404330Y3096330D1*
X3414753Y3084123D1*
X3423140Y3070440D1*
X3429283Y3055610D1*
X3433030Y3040003D1*
X3434290Y3024000D1*
X3433973Y3015973D1*
X4572690Y3601693D2*
X4558440Y3592860D1*
X4543610Y3586717D1*
X4528003Y3582970D1*
X4512000Y3581710D1*
X4495997Y3582970D1*
X4480390Y3586717D1*
X4465560Y3592860D1*
X4451877Y3601247D1*
X4439670Y3611670D1*
X4429247Y3623877D1*
X4420860Y3637560D1*
X4414717Y3652390D1*
X4410970Y3667997D1*
X4409710Y3684000D1*
X4410970Y3700003D1*
X4412297Y3706680D1*
X4086790Y2673773D2*
X4100590Y2685537D1*
X4116387Y2695220D1*
X4133507Y2702310D1*
X4151527Y2706637D1*
X4170000Y2708090D1*
X4188473Y2706637D1*
X4206493Y2702310D1*
X4223613Y2695220D1*
X4239410Y2685537D1*
X4253503Y2673503D1*
X4265537Y2659410D1*
X4275220Y2643613D1*
X4282310Y2626493D1*
X4286637Y2608473D1*
X4288090Y2590000D1*
X4286637Y2571527D1*
X4282310Y2553507D1*
X4275220Y2536387D1*
X4265537Y2520590D1*
X4253503Y2506497D1*
X4239410Y2494463D1*
X4223613Y2484780D1*
X4206493Y2477690D1*
X4188473Y2473363D1*
X4170000Y2471910D1*
X4151527Y2473363D1*
X4133507Y2477690D1*
X4116387Y2484780D1*
X4100590Y2494463D1*
X4086790Y2506227D1*
X3801820Y2461280D2*
X3804717Y2472610D1*
X3810860Y2487440D1*
X3819247Y2501123D1*
X3829670Y2513330D1*
X3841877Y2523753D1*
X3855560Y2532140D1*
X3870390Y2538283D1*
X3885997Y2542030D1*
X3902000Y2543290D1*
X3918003Y2542030D1*
X3933610Y2538283D1*
X3950547Y2530960D1*
X3870020Y2611523D1*
X3849397Y2590897D1*
X3846827Y2576433D1*
X3841100Y2558810D1*
X3832687Y2542297D1*
X3821797Y2527307D1*
X3808693Y2514203D1*
X3793703Y2503313D1*
X3777190Y2494900D1*
X3759567Y2489173D1*
X3741267Y2486273D1*
X3722733D1*
X3704433Y2489173D1*
X3686810Y2494900D1*
X3670297Y2503313D1*
X3655307Y2514203D1*
X3642203Y2527307D1*
X3631313Y2542297D1*
X3622900Y2558810D1*
X3617173Y2576433D1*
X3614273Y2594733D1*
Y2613267D1*
X3617173Y2631567D1*
X3622900Y2649190D1*
X3631313Y2665703D1*
X3642203Y2680693D1*
X3655307Y2693797D1*
X3670297Y2704687D1*
X3686810Y2713100D1*
X3704433Y2718827D1*
X3722733Y2721727D1*
X3743027Y2721517D1*
X3786260Y2764757D1*
X3786210Y3116733D1*
X3774463Y3130590D1*
X3764780Y3146387D1*
X3757690Y3163507D1*
X3753363Y3181527D1*
X3751910Y3200000D1*
X3753363Y3218473D1*
X3757690Y3236493D1*
X3764780Y3253613D1*
X3774463Y3269410D1*
X3786497Y3283503D1*
X3800590Y3295537D1*
X3816387Y3305220D1*
X3833507Y3312310D1*
X3851527Y3316637D1*
X3870000Y3318090D1*
X3888473Y3316637D1*
X3906493Y3312310D1*
X3923613Y3305220D1*
X3939410Y3295537D1*
X3953503Y3283503D1*
X3965537Y3269410D1*
X3975220Y3253613D1*
X3982310Y3236493D1*
X3986637Y3218473D1*
X3988090Y3200000D1*
X3986637Y3181527D1*
X3982310Y3163507D1*
X3975220Y3146387D1*
X3965537Y3130590D1*
X3953773Y3116790D1*
X3953790Y2764780D1*
X4044677Y2673820D1*
X4086837Y2673790D1*
X4100590Y2685537D1*
X4116387Y2695220D1*
X4133507Y2702310D1*
X4151527Y2706637D1*
X4170000Y2708090D1*
X4188473Y2706637D1*
X4206493Y2702310D1*
X4223613Y2695220D1*
X4239410Y2685537D1*
X4253503Y2673503D1*
X4265537Y2659410D1*
X4275220Y2643613D1*
X4282310Y2626493D1*
X4286637Y2608473D1*
X4288090Y2590000D1*
X4286637Y2571527D1*
X4282310Y2553507D1*
X4275220Y2536387D1*
X4265537Y2520590D1*
X4253503Y2506497D1*
X4239410Y2494463D1*
X4223613Y2484780D1*
X4206493Y2477690D1*
X4188473Y2473363D1*
X4170000Y2471910D1*
X4151527Y2473363D1*
X4133507Y2477690D1*
X4116387Y2484780D1*
X4100590Y2494463D1*
X4086790Y2506227D1*
X4003427Y2506467D1*
X3990440Y2508523D1*
X3977933Y2512587D1*
X3972370Y2515140D1*
X3979783Y2507433D1*
X3989217Y2494447D1*
X3996503Y2480143D1*
X4001463Y2464880D1*
X4002180Y2461280D1*
X6028190Y5068250D2*
X1101757D1*
X1101750Y1101707D1*
X6028243Y1101750D1*
X6028250Y5068293D1*
X1792000Y4261200D2*
D14*
Y3986800D1*
X1592300Y4124000D2*
X1991700D1*
X1702000Y3344000D2*
X1844200D1*
X1702000Y3194000D2*
X1844200D1*
X1942000Y2164000D2*
Y2016800D1*
X2152000Y2164000D2*
Y2016800D1*
Y2164000D2*
X2309200D1*
X2119800Y3464000D2*
X2252000D1*
X2129803Y2694000D2*
X2262000D1*
X2021000Y1290000D2*
Y1147800D1*
X2529000Y1290000D2*
Y1147800D1*
X3291000Y1290000D2*
Y1147800D1*
X5577000Y1290000D2*
Y1147800D1*
X5832000Y1290000D2*
Y1147800D1*
Y1290000D2*
X5974200D1*
X5831000Y4094000D2*
X5973200D1*
X3037000Y5008200D2*
Y4866000D1*
X5323003Y5008200D2*
Y4866000D1*
X5831000Y5008200D2*
Y4866000D1*
X5973200D1*
X1312000Y4276200D2*
Y4084000D1*
X1119800D2*
X1504200D1*
X1169800Y3834000D2*
X1454200D1*
X1539500Y1944000D2*
Y1796800D1*
Y1944000D2*
X1676700D1*
X1162300Y2639000D2*
X1294500D1*
Y1889000D2*
Y1706800D1*
X1162300Y1889000D2*
X1294500D1*
D25*
X2452000Y4124000D3*
X1792000D3*
D26*
X1702000Y3344000D3*
Y3534000D3*
Y3194000D3*
Y3004000D3*
D27*
X1942000Y2444000D3*
Y2164000D3*
X2152000Y2444000D3*
Y2164000D3*
D28*
X2442000Y3464000D3*
X2252000D3*
X2452000Y2694000D3*
X2262000D3*
X4882000Y2304000D3*
X4692000D3*
D26*
X4850000Y3990000D3*
Y3800000D3*
D31*
X1300000Y2930000D3*
Y3270000D3*
D32*
X1259000Y1290000D3*
Y1544000D3*
X1513000Y1290000D3*
Y1544000D3*
X1767000Y1290000D3*
Y1544000D3*
X2021000Y1290000D3*
Y1544000D3*
X2275000Y1290000D3*
Y1544000D3*
X2529000Y1290000D3*
Y1544000D3*
X2783000Y1290000D3*
Y1544000D3*
X3037000Y1290000D3*
Y1544000D3*
X3291000Y1290000D3*
Y1544000D3*
X3545000Y1290000D3*
Y1544000D3*
X3799000Y1290000D3*
Y1544000D3*
X4053000Y1290000D3*
Y1544000D3*
X4307000Y1290000D3*
Y1544000D3*
X4561000Y1290000D3*
Y1544000D3*
X4815000Y1290000D3*
Y1544000D3*
X5069000Y1290000D3*
Y1544000D3*
X5323000Y1290000D3*
Y1544000D3*
X5577000Y1290000D3*
Y1544000D3*
D33*
X5832000Y1290000D3*
D32*
Y1544000D3*
D33*
X5831000Y1808000D3*
D32*
X5577000D3*
X5831000Y2062000D3*
X5577000D3*
Y2316000D3*
X5831000Y2570000D3*
X5577000D3*
X5831000Y2824000D3*
X5577000D3*
X5831000Y3078000D3*
X5577000D3*
X5831000Y3332000D3*
X5577000D3*
X5831000Y3586000D3*
X5577000D3*
X5831000Y3840000D3*
X5577000D3*
X5831000Y4094000D3*
X5577000D3*
X5831000Y4348000D3*
X5577000D3*
X1259003Y4612000D3*
Y4866000D3*
X1513000Y4612000D3*
Y4866000D3*
X1767000Y4612000D3*
Y4866000D3*
X2021003Y4612000D3*
Y4866000D3*
X2275000Y4612000D3*
Y4866000D3*
X2529000Y4612000D3*
Y4866000D3*
X2782997Y4612000D3*
Y4866000D3*
X3037000Y4612000D3*
Y4866000D3*
X3291000Y4612000D3*
Y4866000D3*
X3545000Y4612000D3*
Y4866000D3*
X3799003Y4612000D3*
Y4866000D3*
X4053000Y4612000D3*
Y4866000D3*
X4307000Y4612000D3*
Y4866000D3*
X4561003Y4612000D3*
Y4866000D3*
X4815000Y4612000D3*
Y4866000D3*
X5069000Y4612000D3*
Y4866000D3*
X5323003Y4612000D3*
Y4866000D3*
X5577000Y4612000D3*
Y4866000D3*
X5831000Y4612000D3*
Y4866000D3*
D34*
X1312000Y4084000D3*
Y3580000D3*
D32*
Y3834000D3*
D36*
X1562000Y2394000D3*
Y2329000D3*
Y2264000D3*
Y2199000D3*
Y2134000D3*
D37*
X1539500Y2584000D3*
Y1944000D3*
D38*
X1294500Y2639000D3*
Y1889000D3*
D39*
Y2379000D3*
Y2149000D3*
D98*
X1370000Y4410000D3*
D101*
X1249997D3*
D32*
X5832000Y2322000D3*
D26*
X2682000Y3024000D3*
Y2834000D3*
D41*
X3182000Y3684000D3*
Y3634000D3*
Y3584000D3*
Y3534000D3*
Y3484000D3*
Y3434000D3*
Y3384000D3*
Y3334000D3*
Y3284000D3*
Y3234000D3*
Y3184000D3*
Y3134000D3*
Y3084000D3*
Y3034000D3*
Y2984000D3*
Y2934000D3*
Y2884000D3*
Y2834000D3*
Y2784000D3*
Y2734000D3*
Y2684000D3*
Y2634000D3*
Y2584000D3*
Y2534000D3*
Y2484000D3*
D42*
X3352000Y2314000D3*
X3402000D3*
X3452000D3*
X3502000D3*
X3552000D3*
X3602000D3*
X3652000D3*
X3702000D3*
X3752000D3*
X3802000D3*
X3852000D3*
X3902000D3*
X3952000D3*
X4002000D3*
X4052000D3*
X4102000D3*
X4152000D3*
X4202000D3*
X4252000D3*
X4302000D3*
X4352000D3*
X4402000D3*
X4452000D3*
X4502000D3*
X4552000D3*
D41*
X4722000Y2484000D3*
Y2534000D3*
Y2584000D3*
Y2634000D3*
Y2684000D3*
Y2734000D3*
Y2784000D3*
Y2834000D3*
Y2884000D3*
Y2934000D3*
Y2984000D3*
Y3034000D3*
Y3084000D3*
Y3134000D3*
Y3184000D3*
Y3234000D3*
Y3284000D3*
Y3334000D3*
Y3384000D3*
Y3434000D3*
Y3484000D3*
Y3534000D3*
Y3584000D3*
Y3634000D3*
Y3684000D3*
D42*
X4552000Y3854000D3*
X4502000D3*
X4452000D3*
X4402000D3*
X4352000D3*
X4302000D3*
X4252000D3*
X4202000D3*
X4152000D3*
X4102000D3*
X4052000D3*
X4002000D3*
X3952000D3*
X3902000D3*
X3852000D3*
X3802000D3*
X3752000D3*
X3702000D3*
X3652000D3*
X3602000D3*
X3552000D3*
X3502000D3*
X3452000D3*
X3402000D3*
X3352000D3*
D46*
X2002000Y3554000D3*
X1852000D3*
D47*
X2262000Y3264000D3*
X2482000D3*
Y2894000D3*
X2262000D3*
M02*
