G04 DipTrace 3.2.0.1*
G04 Верхняямаска.gbr*
%MOMM*%
G04 #@! TF.FileFunction,Soldermask,Top*
G04 #@! TF.Part,Single*
%AMOUTLINE4*
4,1,5,
-0.04142,0.60004,
0.8,0.6,
0.8,-0.6,
-0.04142,-0.60004,
-0.64145,0.0,
-0.04142,0.60004,
0*%
%AMOUTLINE7*
4,1,5,
1.14138,-0.6,
-0.3,-0.6,
-0.3,0.6,
1.14138,0.6,
0.54142,0.0,
1.14138,-0.6,
0*%
%ADD29R,1.6X1.8*%
%ADD56R,1.5X1.8*%
%ADD58C,1.3*%
%ADD64R,0.5X1.8*%
%ADD66R,1.8X0.5*%
%ADD68R,2.1X2.0*%
%ADD70R,1.5X2.5*%
%ADD73R,1.55X0.6*%
%ADD75C,2.7*%
%ADD77R,1.7X1.7*%
%ADD79C,1.7*%
%ADD80R,2.0X1.6*%
%ADD83R,1.5X1.7*%
%ADD85R,2.0X1.8*%
%ADD87R,1.7X1.5*%
%ADD89R,2.85X1.6*%
%ADD99OUTLINE4*%
%ADD102OUTLINE7*%
%FSLAX35Y35*%
G04*
G71*
G90*
G75*
G01*
G04 TopMask*
%LPD*%
D89*
X2452000Y4124000D3*
X1792000D3*
D87*
X1702000Y3344000D3*
Y3534000D3*
Y3194000D3*
Y3004000D3*
D85*
X1942000Y2444000D3*
Y2164000D3*
X2152000Y2444000D3*
Y2164000D3*
D83*
X2442000Y3464000D3*
X2252000D3*
X2452000Y2694000D3*
X2262000D3*
X4882000Y2304000D3*
X4692000D3*
D87*
X4850000Y3990000D3*
Y3800000D3*
D80*
X1300000Y2930000D3*
Y3270000D3*
D79*
X1259000Y1290000D3*
Y1544000D3*
X1513000Y1290000D3*
Y1544000D3*
X1767000Y1290000D3*
Y1544000D3*
X2021000Y1290000D3*
Y1544000D3*
X2275000Y1290000D3*
Y1544000D3*
X2529000Y1290000D3*
Y1544000D3*
X2783000Y1290000D3*
Y1544000D3*
X3037000Y1290000D3*
Y1544000D3*
X3291000Y1290000D3*
Y1544000D3*
X3545000Y1290000D3*
Y1544000D3*
X3799000Y1290000D3*
Y1544000D3*
X4053000Y1290000D3*
Y1544000D3*
X4307000Y1290000D3*
Y1544000D3*
X4561000Y1290000D3*
Y1544000D3*
X4815000Y1290000D3*
Y1544000D3*
X5069000Y1290000D3*
Y1544000D3*
X5323000Y1290000D3*
Y1544000D3*
X5577000Y1290000D3*
Y1544000D3*
D77*
X5832000Y1290000D3*
D79*
Y1544000D3*
D77*
X5831000Y1808000D3*
D79*
X5577000D3*
X5831000Y2062000D3*
X5577000D3*
Y2316000D3*
X5831000Y2570000D3*
X5577000D3*
X5831000Y2824000D3*
X5577000D3*
X5831000Y3078000D3*
X5577000D3*
X5831000Y3332000D3*
X5577000D3*
X5831000Y3586000D3*
X5577000D3*
X5831000Y3840000D3*
X5577000D3*
X5831000Y4094000D3*
X5577000D3*
X5831000Y4348000D3*
X5577000D3*
X1259003Y4612000D3*
Y4866000D3*
X1513000Y4612000D3*
Y4866000D3*
X1767000Y4612000D3*
Y4866000D3*
X2021003Y4612000D3*
Y4866000D3*
X2275000Y4612000D3*
Y4866000D3*
X2529000Y4612000D3*
Y4866000D3*
X2782997Y4612000D3*
Y4866000D3*
X3037000Y4612000D3*
Y4866000D3*
X3291000Y4612000D3*
Y4866000D3*
X3545000Y4612000D3*
Y4866000D3*
X3799003Y4612000D3*
Y4866000D3*
X4053000Y4612000D3*
Y4866000D3*
X4307000Y4612000D3*
Y4866000D3*
X4561003Y4612000D3*
Y4866000D3*
X4815000Y4612000D3*
Y4866000D3*
X5069000Y4612000D3*
Y4866000D3*
X5323003Y4612000D3*
Y4866000D3*
X5577000Y4612000D3*
Y4866000D3*
X5831000Y4612000D3*
Y4866000D3*
D75*
X1312000Y4084000D3*
Y3580000D3*
D79*
Y3834000D3*
D73*
X1562000Y2394000D3*
Y2329000D3*
Y2264000D3*
Y2199000D3*
Y2134000D3*
D29*
X1539500Y2584000D3*
Y1944000D3*
D70*
X1294500Y2639000D3*
Y1889000D3*
D68*
Y2379000D3*
Y2149000D3*
D99*
X1370000Y4410000D3*
D102*
X1249997D3*
D79*
X5832000Y2322000D3*
D87*
X2682000Y3024000D3*
Y2834000D3*
D66*
X3182000Y3684000D3*
Y3634000D3*
Y3584000D3*
Y3534000D3*
Y3484000D3*
Y3434000D3*
Y3384000D3*
Y3334000D3*
Y3284000D3*
Y3234000D3*
Y3184000D3*
Y3134000D3*
Y3084000D3*
Y3034000D3*
Y2984000D3*
Y2934000D3*
Y2884000D3*
Y2834000D3*
Y2784000D3*
Y2734000D3*
Y2684000D3*
Y2634000D3*
Y2584000D3*
Y2534000D3*
Y2484000D3*
D64*
X3352000Y2314000D3*
X3402000D3*
X3452000D3*
X3502000D3*
X3552000D3*
X3602000D3*
X3652000D3*
X3702000D3*
X3752000D3*
X3802000D3*
X3852000D3*
X3902000D3*
X3952000D3*
X4002000D3*
X4052000D3*
X4102000D3*
X4152000D3*
X4202000D3*
X4252000D3*
X4302000D3*
X4352000D3*
X4402000D3*
X4452000D3*
X4502000D3*
X4552000D3*
D66*
X4722000Y2484000D3*
Y2534000D3*
Y2584000D3*
Y2634000D3*
Y2684000D3*
Y2734000D3*
Y2784000D3*
Y2834000D3*
Y2884000D3*
Y2934000D3*
Y2984000D3*
Y3034000D3*
Y3084000D3*
Y3134000D3*
Y3184000D3*
Y3234000D3*
Y3284000D3*
Y3334000D3*
Y3384000D3*
Y3434000D3*
Y3484000D3*
Y3534000D3*
Y3584000D3*
Y3634000D3*
Y3684000D3*
D64*
X4552000Y3854000D3*
X4502000D3*
X4452000D3*
X4402000D3*
X4352000D3*
X4302000D3*
X4252000D3*
X4202000D3*
X4152000D3*
X4102000D3*
X4052000D3*
X4002000D3*
X3952000D3*
X3902000D3*
X3852000D3*
X3802000D3*
X3752000D3*
X3702000D3*
X3652000D3*
X3602000D3*
X3552000D3*
X3502000D3*
X3452000D3*
X3402000D3*
X3352000D3*
D58*
X2002000Y3554000D3*
X1852000D3*
D56*
X2262000Y3264000D3*
X2482000D3*
Y2894000D3*
X2262000D3*
M02*
