G04 DipTrace 3.2.0.1*
G04 Нижняямаска.gbr*
%MOMM*%
G04 #@! TF.FileFunction,Soldermask,Bot*
G04 #@! TF.Part,Single*
%AMOUTLINE1*
4,1,4,
-0.84997,-0.75,
0.84997,-0.75,
0.84997,0.75,
-0.84997,0.75,
-0.84997,-0.75,
0*%
%AMOUTLINE10*
4,1,5,
0.04142,0.6,
-0.8,0.6,
-0.8,-0.6,
0.04142,-0.6,
0.64142,0.0,
0.04142,0.6,
0*%
%AMOUTLINE13*
4,1,5,
-1.14142,-0.6,
0.3,-0.6,
0.3,0.6,
-1.14142,0.6,
-0.54142,0.0,
-1.14142,-0.6,
0*%
%AMOUTLINE16*
4,1,5,
-0.04142,-0.60004,
0.8,-0.6,
0.8,0.6,
-0.04142,0.60004,
-0.64145,0.0,
-0.04142,-0.60004,
0*%
%AMOUTLINE19*
4,1,5,
1.14138,0.6,
-0.3,0.6,
-0.3,-0.6,
1.14138,-0.6,
0.54142,0.0,
1.14138,0.6,
0*%
%ADD58C,1.3*%
%ADD60R,3.45X2.35*%
%ADD62R,1.15X2.35*%
%ADD75C,2.7*%
%ADD77R,1.7X1.7*%
%ADD79C,1.7*%
%ADD82R,1.8X2.0*%
%ADD83R,1.5X1.7*%
%ADD87R,1.7X1.5*%
%ADD96OUTLINE1*%
%ADD105OUTLINE10*%
%ADD108OUTLINE13*%
%ADD111OUTLINE16*%
%ADD114OUTLINE19*%
%FSLAX35Y35*%
G04*
G71*
G90*
G75*
G01*
G04 BotMask*
%LPD*%
D87*
X4412000Y2344000D3*
Y2154000D3*
X4352000Y3714000D3*
Y3904000D3*
X3602000Y2344000D3*
Y2154000D3*
D96*
X3492000Y3724000D3*
Y3914007D3*
D83*
X3362000Y3544000D3*
X3172000D3*
X3362000Y3324000D3*
X3172000D3*
X3362000Y3104000D3*
X3172000D3*
X3362000Y2834000D3*
X3172000D3*
X3362000Y2664000D3*
X3172000D3*
X3332000Y2364000D3*
X3142000D3*
X3332000Y2194000D3*
X3142000D3*
X3112000Y4114000D3*
X3302000D3*
D82*
X1162000Y3134000D3*
X1442000D3*
X1162000Y2934000D3*
X1442000D3*
D79*
X1259000Y1290000D3*
Y1544000D3*
X1513000Y1290000D3*
Y1544000D3*
X1767000Y1290000D3*
Y1544000D3*
X2021000Y1290000D3*
Y1544000D3*
X2275000Y1290000D3*
Y1544000D3*
X2529000Y1290000D3*
Y1544000D3*
X2783000Y1290000D3*
Y1544000D3*
X3037000Y1290000D3*
Y1544000D3*
X3291000Y1290000D3*
Y1544000D3*
X3545000Y1290000D3*
Y1544000D3*
X3799000Y1290000D3*
Y1544000D3*
X4053000Y1290000D3*
Y1544000D3*
X4307000Y1290000D3*
Y1544000D3*
X4561000Y1290000D3*
Y1544000D3*
X4815000Y1290000D3*
Y1544000D3*
X5069000Y1290000D3*
Y1544000D3*
X5323000Y1290000D3*
Y1544000D3*
X5577000Y1290000D3*
Y1544000D3*
D77*
X5832000Y1290000D3*
D79*
Y1544000D3*
D77*
X5831000Y1808000D3*
D79*
X5577000D3*
X5831000Y2062000D3*
X5577000D3*
Y2316000D3*
X5831000Y2570000D3*
X5577000D3*
X5831000Y2824000D3*
X5577000D3*
X5831000Y3078000D3*
X5577000D3*
X5831000Y3332000D3*
X5577000D3*
X5831000Y3586000D3*
X5577000D3*
X5831000Y3840000D3*
X5577000D3*
X5831000Y4094000D3*
X5577000D3*
X5831000Y4348000D3*
X5577000D3*
X1259003Y4612000D3*
Y4866000D3*
X1513000Y4612000D3*
Y4866000D3*
X1767000Y4612000D3*
Y4866000D3*
X2021003Y4612000D3*
Y4866000D3*
X2275000Y4612000D3*
Y4866000D3*
X2529000Y4612000D3*
Y4866000D3*
X2782997Y4612000D3*
Y4866000D3*
X3037000Y4612000D3*
Y4866000D3*
X3291000Y4612000D3*
Y4866000D3*
X3545000Y4612000D3*
Y4866000D3*
X3799003Y4612000D3*
Y4866000D3*
X4053000Y4612000D3*
Y4866000D3*
X4307000Y4612000D3*
Y4866000D3*
X4561003Y4612000D3*
Y4866000D3*
X4815000Y4612000D3*
Y4866000D3*
X5069000Y4612000D3*
Y4866000D3*
X5323003Y4612000D3*
Y4866000D3*
X5577000Y4612000D3*
Y4866000D3*
X5831000Y4612000D3*
Y4866000D3*
D75*
X1312000Y4084000D3*
Y3580000D3*
D79*
Y3834000D3*
D105*
X4052000Y2324000D3*
D108*
X4172000D3*
D105*
X4052000Y2144000D3*
D108*
X4172000D3*
D105*
X4002000Y4354000D3*
D108*
X4122000D3*
D105*
X4002000Y4204000D3*
D108*
X4122000D3*
D105*
X2440000Y2360000D3*
D108*
X2560000D3*
D105*
X2440000Y2460000D3*
D108*
X2560000D3*
D111*
X1492000Y4414000D3*
D114*
X1371997D3*
D79*
X5832000Y2322000D3*
D83*
X5192000Y3594000D3*
X5382000D3*
X5192000Y3334000D3*
X5382000D3*
X5192000Y3084000D3*
X5382000D3*
X5192000Y2824000D3*
X5382000D3*
X5192000Y2574000D3*
X5382000D3*
D87*
X4912000Y2984000D3*
Y3174000D3*
X4712000Y2984000D3*
Y3174000D3*
X3822000Y2154000D3*
Y2344000D3*
X3800000Y4340000D3*
Y4150000D3*
D83*
X3112000Y3944000D3*
X3302000D3*
D62*
X1152000Y2664000D3*
X1382000D3*
X1612000D3*
D60*
X1382000Y2084000D3*
D58*
X2002000Y3554000D3*
X1852000D3*
M02*
