G04 DipTrace 3.2.0.1*
G04 Нижняямаркировка.gbr*
%MOMM*%
G04 #@! TF.FileFunction,Legend,Bot*
G04 #@! TF.Part,Single*
%ADD10C,0.25*%
%ADD24C,0.05*%
%ADD43O,0.39124X0.39193*%
%ADD91C,0.11765*%
%FSLAX35Y35*%
G04*
G71*
G90*
G75*
G01*
G04 BotSilk*
%LPD*%
X1272080Y3213920D2*
D10*
X1331920D1*
X1272080Y3054080D2*
X1331920D1*
X1272080Y3013920D2*
X1331920D1*
X1272080Y2854080D2*
X1331920D1*
D43*
X1054644Y2740694D3*
X1052004Y2513999D2*
D10*
X1711972D1*
X1052004Y2234001D2*
X1711972D1*
Y2513999D2*
Y2234001D1*
X1052004Y2513999D2*
Y2234001D1*
X2660000Y4990000D2*
D24*
X3160000D1*
Y4490000D1*
X2660000D1*
Y4990000D1*
X4950000D2*
X5450000D1*
Y4490000D1*
X4950000D1*
Y4990000D1*
X5450000Y4490000D2*
X5960000D1*
Y3980000D1*
X5450000D1*
Y4490000D1*
X5190000Y1670000D2*
X5710000D1*
Y1160000D1*
X5190000D1*
Y1670000D1*
X2660000D2*
X3420000D1*
Y1170000D1*
X2660000D1*
Y1670000D1*
X2140000D2*
X2660000D1*
Y1170000D1*
X2140000D1*
Y1670000D1*
X5450000Y4990000D2*
X5960000D1*
Y4490000D1*
X5450000D1*
Y4990000D1*
X4533602Y2255514D2*
D91*
X4526358Y2258412D1*
X4519030Y2264274D1*
X4515408Y2270070D1*
Y2281727D1*
X4519030Y2287589D1*
X4526358Y2293385D1*
X4533602Y2296349D1*
X4544552Y2299247D1*
X4562830D1*
X4573696Y2296349D1*
X4581024Y2293384D1*
X4588268Y2287589D1*
X4591974Y2281727D1*
Y2270069D1*
X4588268Y2264274D1*
X4581024Y2258412D1*
X4573696Y2255514D1*
X4540930Y2198753D2*
X4551880Y2201718D1*
X4559208Y2207513D1*
X4562830Y2216273D1*
Y2219171D1*
X4559208Y2227931D1*
X4551880Y2233726D1*
X4540930Y2236691D1*
X4537308D1*
X4526358Y2233726D1*
X4519114Y2227931D1*
X4515492Y2219171D1*
Y2216273D1*
X4519114Y2207513D1*
X4526358Y2201718D1*
X4540930Y2198753D1*
X4559208D1*
X4577402Y2201718D1*
X4588352Y2207513D1*
X4591974Y2216273D1*
Y2222068D1*
X4588352Y2230828D1*
X4581024Y2233726D1*
X4473602Y3823686D2*
X4466358Y3826584D1*
X4459030Y3832446D1*
X4455408Y3838241D1*
Y3849899D1*
X4459030Y3855761D1*
X4466358Y3861556D1*
X4473602Y3864521D1*
X4484552Y3867419D1*
X4502830D1*
X4513696Y3864521D1*
X4521024Y3861556D1*
X4528268Y3855761D1*
X4531974Y3849899D1*
Y3838241D1*
X4528268Y3832446D1*
X4521024Y3826584D1*
X4513696Y3823686D1*
X4470064Y3804863D2*
X4466358Y3799000D1*
X4455492Y3790240D1*
X4531974D1*
X4455492Y3753897D2*
X4459114Y3762657D1*
X4470064Y3768519D1*
X4488258Y3771417D1*
X4499208D1*
X4517402Y3768519D1*
X4528352Y3762657D1*
X4531974Y3753897D1*
Y3748102D1*
X4528352Y3739342D1*
X4517402Y3733547D1*
X4499208Y3730582D1*
X4488258D1*
X4470064Y3733547D1*
X4459114Y3739342D1*
X4455492Y3748102D1*
Y3753897D1*
X4470064Y3733547D2*
X4517402Y3768519D1*
X3603602Y2520580D2*
X3596358Y2523477D1*
X3589030Y2529340D1*
X3585408Y2535135D1*
Y2546792D1*
X3589030Y2552655D1*
X3596358Y2558450D1*
X3603602Y2561415D1*
X3614552Y2564312D1*
X3632830D1*
X3643696Y2561415D1*
X3651024Y2558450D1*
X3658268Y2552655D1*
X3661974Y2546792D1*
Y2535135D1*
X3658268Y2529340D1*
X3651024Y2523477D1*
X3643696Y2520580D1*
X3600064Y2501756D2*
X3596358Y2495894D1*
X3585492Y2487134D1*
X3661974D1*
X3600064Y2468310D2*
X3596358Y2462448D1*
X3585492Y2453688D1*
X3661974D1*
X3613604Y3853689D2*
X3606360Y3856587D1*
X3599032Y3862449D1*
X3595410Y3868245D1*
Y3879902D1*
X3599032Y3885765D1*
X3606360Y3891560D1*
X3613604Y3894525D1*
X3624554Y3897422D1*
X3642832D1*
X3653697Y3894524D1*
X3661026Y3891560D1*
X3668269Y3885764D1*
X3671976Y3879902D1*
Y3868244D1*
X3668269Y3862449D1*
X3661026Y3856587D1*
X3653698Y3853689D1*
X3610066Y3834866D2*
X3606360Y3829004D1*
X3595494Y3820244D1*
X3671976Y3820243D1*
X3613688Y3798455D2*
X3610066D1*
X3602738Y3795558D1*
X3599116Y3792660D1*
X3595494Y3786798D1*
Y3775140D1*
X3599116Y3769345D1*
X3602738Y3766448D1*
X3610066Y3763483D1*
X3617310D1*
X3624638Y3766448D1*
X3635504Y3772243D1*
X3671976Y3801420D1*
X3671975Y3760585D1*
X3551686Y3562398D2*
X3554584Y3569642D1*
X3560446Y3576970D1*
X3566241Y3580592D1*
X3577899D1*
X3583761Y3576970D1*
X3589556Y3569642D1*
X3592521Y3562398D1*
X3595419Y3551448D1*
Y3533170D1*
X3592521Y3522304D1*
X3589556Y3514976D1*
X3583761Y3507732D1*
X3577899Y3504026D1*
X3566241D1*
X3560446Y3507732D1*
X3554584Y3514976D1*
X3551686Y3522304D1*
X3532862Y3565936D2*
X3527000Y3569642D1*
X3518240Y3580508D1*
Y3504026D1*
X3493554Y3580508D2*
X3461546D1*
X3478999Y3551364D1*
X3470239D1*
X3464444Y3547742D1*
X3461546Y3544120D1*
X3458581Y3533170D1*
Y3525926D1*
X3461546Y3514976D1*
X3467341Y3507648D1*
X3476101Y3504026D1*
X3484861D1*
X3493554Y3507648D1*
X3496452Y3511354D1*
X3499416Y3518598D1*
X3553135Y3342398D2*
X3556032Y3349642D1*
X3561895Y3356970D1*
X3567690Y3360592D1*
X3579347D1*
X3585210Y3356970D1*
X3591005Y3349642D1*
X3593970Y3342398D1*
X3596867Y3331448D1*
Y3313170D1*
X3593970Y3302304D1*
X3591005Y3294976D1*
X3585210Y3287732D1*
X3579347Y3284026D1*
X3567690D1*
X3561895Y3287732D1*
X3556032Y3294976D1*
X3553135Y3302304D1*
X3534311Y3345936D2*
X3528449Y3349642D1*
X3519689Y3360508D1*
Y3284026D1*
X3471688D2*
Y3360508D1*
X3500865Y3309548D1*
X3457133D1*
X3551686Y3132398D2*
X3554584Y3139642D1*
X3560446Y3146970D1*
X3566241Y3150592D1*
X3577899D1*
X3583761Y3146970D1*
X3589556Y3139642D1*
X3592521Y3132398D1*
X3595419Y3121448D1*
Y3103170D1*
X3592521Y3092304D1*
X3589556Y3084976D1*
X3583761Y3077732D1*
X3577899Y3074026D1*
X3566241D1*
X3560446Y3077732D1*
X3554584Y3084976D1*
X3551686Y3092304D1*
X3532862Y3135936D2*
X3527000Y3139642D1*
X3518240Y3150508D1*
Y3074026D1*
X3464444Y3150508D2*
X3493554D1*
X3496452Y3117742D1*
X3493554Y3121364D1*
X3484794Y3125070D1*
X3476101D1*
X3467341Y3121364D1*
X3461479Y3114120D1*
X3458581Y3103170D1*
Y3095926D1*
X3461479Y3084976D1*
X3467341Y3077648D1*
X3476101Y3074026D1*
X3484794D1*
X3493554Y3077648D1*
X3496452Y3081354D1*
X3499416Y3088598D1*
X3030204Y2852398D2*
X3033101Y2859642D1*
X3038964Y2866970D1*
X3044759Y2870592D1*
X3056416D1*
X3062279Y2866970D1*
X3068074Y2859642D1*
X3071039Y2852398D1*
X3073936Y2841448D1*
Y2823170D1*
X3071039Y2812304D1*
X3068074Y2804976D1*
X3062279Y2797732D1*
X3056416Y2794026D1*
X3044759D1*
X3038964Y2797732D1*
X3033101Y2804976D1*
X3030204Y2812304D1*
X3011380Y2855936D2*
X3005518Y2859642D1*
X2996758Y2870508D1*
Y2794026D1*
X2942961Y2859642D2*
X2945859Y2866886D1*
X2954619Y2870508D1*
X2960414D1*
X2969174Y2866886D1*
X2975036Y2855936D1*
X2977934Y2837742D1*
Y2819548D1*
X2975036Y2804976D1*
X2969174Y2797648D1*
X2960414Y2794026D1*
X2957516D1*
X2948824Y2797648D1*
X2942961Y2804976D1*
X2940064Y2815926D1*
Y2819548D1*
X2942961Y2830498D1*
X2948824Y2837742D1*
X2957516Y2841364D1*
X2960414D1*
X2969174Y2837742D1*
X2975036Y2830498D1*
X2977934Y2819548D1*
X3031686Y2692398D2*
X3034584Y2699642D1*
X3040446Y2706970D1*
X3046241Y2710592D1*
X3057899D1*
X3063761Y2706970D1*
X3069556Y2699642D1*
X3072521Y2692398D1*
X3075419Y2681448D1*
Y2663170D1*
X3072521Y2652304D1*
X3069556Y2644976D1*
X3063761Y2637732D1*
X3057899Y2634026D1*
X3046241D1*
X3040446Y2637732D1*
X3034584Y2644976D1*
X3031686Y2652304D1*
X3012862Y2695936D2*
X3007000Y2699642D1*
X2998240Y2710508D1*
Y2634026D1*
X2967759D2*
X2938581Y2710508D1*
X2979416D1*
X3011652Y2382398D2*
X3014550Y2389642D1*
X3020412Y2396970D1*
X3026207Y2400592D1*
X3037865D1*
X3043727Y2396970D1*
X3049522Y2389642D1*
X3052487Y2382398D1*
X3055385Y2371448D1*
Y2353170D1*
X3052487Y2342304D1*
X3049522Y2334976D1*
X3043727Y2327732D1*
X3037865Y2324026D1*
X3026207D1*
X3020412Y2327732D1*
X3014550Y2334976D1*
X3011652Y2342304D1*
X2992829Y2385936D2*
X2986966Y2389642D1*
X2978206Y2400508D1*
Y2324026D1*
X2944828Y2400508D2*
X2953520Y2396886D1*
X2956485Y2389642D1*
Y2382314D1*
X2953520Y2375070D1*
X2947725Y2371364D1*
X2936068Y2367742D1*
X2927308Y2364120D1*
X2921513Y2356792D1*
X2918615Y2349548D1*
Y2338598D1*
X2921513Y2331354D1*
X2924410Y2327648D1*
X2933170Y2324026D1*
X2944828D1*
X2953520Y2327648D1*
X2956485Y2331354D1*
X2959383Y2338598D1*
Y2349548D1*
X2956485Y2356792D1*
X2950623Y2364120D1*
X2941930Y2367742D1*
X2930273Y2371364D1*
X2924410Y2375070D1*
X2921513Y2382314D1*
Y2389642D1*
X2924410Y2396886D1*
X2933170Y2400508D1*
X2944828D1*
X3010237Y2212398D2*
X3013135Y2219642D1*
X3018997Y2226970D1*
X3024792Y2230592D1*
X3036450D1*
X3042312Y2226970D1*
X3048107Y2219642D1*
X3051072Y2212398D1*
X3053970Y2201448D1*
Y2183170D1*
X3051072Y2172304D1*
X3048107Y2164976D1*
X3042312Y2157732D1*
X3036450Y2154026D1*
X3024792D1*
X3018997Y2157732D1*
X3013135Y2164976D1*
X3010237Y2172304D1*
X2991414Y2215936D2*
X2985551Y2219642D1*
X2976791Y2230508D1*
Y2154026D1*
X2920030Y2205070D2*
X2922995Y2194120D1*
X2928790Y2186792D1*
X2937550Y2183170D1*
X2940448D1*
X2949208Y2186792D1*
X2955003Y2194120D1*
X2957968Y2205070D1*
Y2208692D1*
X2955003Y2219642D1*
X2949208Y2226886D1*
X2940448Y2230508D1*
X2937550D1*
X2928790Y2226886D1*
X2922995Y2219642D1*
X2920030Y2205070D1*
Y2186792D1*
X2922995Y2168598D1*
X2928790Y2157648D1*
X2937550Y2154026D1*
X2943345D1*
X2952105Y2157648D1*
X2955003Y2164976D1*
X2964792Y4132398D2*
X2967690Y4139642D1*
X2973552Y4146970D1*
X2979347Y4150592D1*
X2991005D1*
X2996867Y4146970D1*
X3002662Y4139642D1*
X3005627Y4132398D1*
X3008525Y4121448D1*
Y4103170D1*
X3005627Y4092304D1*
X3002662Y4084976D1*
X2996867Y4077732D1*
X2991005Y4074026D1*
X2979347D1*
X2973552Y4077732D1*
X2967690Y4084976D1*
X2964792Y4092304D1*
X2943004Y4132314D2*
Y4135936D1*
X2940106Y4143264D1*
X2937209Y4146886D1*
X2931346Y4150508D1*
X2919689D1*
X2913894Y4146886D1*
X2910996Y4143264D1*
X2908031Y4135936D1*
Y4128692D1*
X2910996Y4121364D1*
X2916791Y4110498D1*
X2945969Y4074026D1*
X2905134D1*
X2868790Y4150508D2*
X2877550Y4146886D1*
X2883413Y4135936D1*
X2886310Y4117742D1*
Y4106792D1*
X2883413Y4088598D1*
X2877550Y4077648D1*
X2868790Y4074026D1*
X2862995D1*
X2854235Y4077648D1*
X2848440Y4088598D1*
X2845475Y4106792D1*
Y4117742D1*
X2848440Y4135936D1*
X2854235Y4146886D1*
X2862995Y4150508D1*
X2868790D1*
X2848440Y4135936D2*
X2883413Y4088598D1*
X1656686Y3157398D2*
X1659584Y3164642D1*
X1665446Y3171970D1*
X1671241Y3175592D1*
X1682899D1*
X1688761Y3171970D1*
X1694556Y3164642D1*
X1697521Y3157398D1*
X1700419Y3146448D1*
Y3128170D1*
X1697521Y3117304D1*
X1694556Y3109976D1*
X1688761Y3102732D1*
X1682899Y3099026D1*
X1671241D1*
X1665446Y3102732D1*
X1659584Y3109976D1*
X1656686Y3117304D1*
X1634898Y3157314D2*
Y3160936D1*
X1632000Y3168264D1*
X1629102Y3171886D1*
X1623240Y3175508D1*
X1611582D1*
X1605787Y3171886D1*
X1602890Y3168264D1*
X1599925Y3160936D1*
Y3153692D1*
X1602890Y3146364D1*
X1608685Y3135498D1*
X1637862Y3099026D1*
X1597027D1*
X1578204Y3160936D2*
X1572341Y3164642D1*
X1563581Y3175508D1*
Y3099026D1*
X1669792Y2957398D2*
X1672690Y2964642D1*
X1678552Y2971970D1*
X1684347Y2975592D1*
X1696005D1*
X1701867Y2971970D1*
X1707662Y2964642D1*
X1710627Y2957398D1*
X1713525Y2946448D1*
Y2928170D1*
X1710627Y2917304D1*
X1707662Y2909976D1*
X1701867Y2902732D1*
X1696005Y2899026D1*
X1684347D1*
X1678552Y2902732D1*
X1672690Y2909976D1*
X1669792Y2917304D1*
X1648004Y2957314D2*
Y2960936D1*
X1645106Y2968264D1*
X1642209Y2971886D1*
X1636346Y2975508D1*
X1624689D1*
X1618894Y2971886D1*
X1615996Y2968264D1*
X1613031Y2960936D1*
Y2953692D1*
X1615996Y2946364D1*
X1621791Y2935498D1*
X1650969Y2899026D1*
X1610134D1*
X1588345Y2957314D2*
Y2960936D1*
X1585448Y2968264D1*
X1582550Y2971886D1*
X1576688Y2975508D1*
X1565030D1*
X1559235Y2971886D1*
X1556338Y2968264D1*
X1553373Y2960936D1*
Y2953692D1*
X1556338Y2946364D1*
X1562133Y2935498D1*
X1591310Y2899026D1*
X1550475D1*
X4127070Y2465592D2*
Y2407304D1*
X4129967Y2396354D1*
X4132932Y2392732D1*
X4138727Y2389026D1*
X4144590D1*
X4150385Y2392732D1*
X4153282Y2396354D1*
X4156247Y2407304D1*
Y2414548D1*
X4108246Y2425498D2*
X4081966D1*
X4073274Y2429120D1*
X4070309Y2432826D1*
X4067411Y2440070D1*
Y2451020D1*
X4070309Y2458264D1*
X4073274Y2461970D1*
X4081966Y2465592D1*
X4108246D1*
Y2389026D1*
X4045623Y2447314D2*
Y2450936D1*
X4042725Y2458264D1*
X4039828Y2461886D1*
X4033965Y2465508D1*
X4022308D1*
X4016513Y2461886D1*
X4013615Y2458264D1*
X4010650Y2450936D1*
Y2443692D1*
X4013615Y2436364D1*
X4019410Y2425498D1*
X4048588Y2389026D1*
X4007753D1*
X4137070Y2065592D2*
Y2007304D1*
X4139967Y1996354D1*
X4142932Y1992732D1*
X4148727Y1989026D1*
X4154590D1*
X4160385Y1992732D1*
X4163282Y1996354D1*
X4166247Y2007304D1*
Y2014548D1*
X4118246Y2025498D2*
X4091966D1*
X4083274Y2029120D1*
X4080309Y2032826D1*
X4077411Y2040070D1*
Y2051020D1*
X4080309Y2058264D1*
X4083274Y2061970D1*
X4091966Y2065592D1*
X4118246D1*
Y1989026D1*
X4052725Y2065508D2*
X4020718D1*
X4038170Y2036364D1*
X4029410D1*
X4023615Y2032742D1*
X4020718Y2029120D1*
X4017753Y2018170D1*
Y2010926D1*
X4020718Y1999976D1*
X4026513Y1992648D1*
X4035273Y1989026D1*
X4044033D1*
X4052725Y1992648D1*
X4055623Y1996354D1*
X4058588Y2003598D1*
X4078519Y4495592D2*
Y4437304D1*
X4081416Y4426354D1*
X4084381Y4422732D1*
X4090176Y4419026D1*
X4096039D1*
X4101834Y4422732D1*
X4104731Y4426354D1*
X4107696Y4437304D1*
Y4444548D1*
X4059695Y4455498D2*
X4033415D1*
X4024722Y4459120D1*
X4021758Y4462826D1*
X4018860Y4470070D1*
Y4481020D1*
X4021758Y4488264D1*
X4024722Y4491970D1*
X4033415Y4495592D1*
X4059695D1*
Y4419026D1*
X3970859D2*
Y4495508D1*
X4000036Y4444548D1*
X3956304D1*
X4087070Y4115592D2*
Y4057304D1*
X4089967Y4046354D1*
X4092932Y4042732D1*
X4098727Y4039026D1*
X4104590D1*
X4110385Y4042732D1*
X4113282Y4046354D1*
X4116247Y4057304D1*
Y4064548D1*
X4068246Y4075498D2*
X4041966D1*
X4033274Y4079120D1*
X4030309Y4082826D1*
X4027411Y4090070D1*
Y4101020D1*
X4030309Y4108264D1*
X4033274Y4111970D1*
X4041966Y4115592D1*
X4068246D1*
Y4039026D1*
X3973615Y4115508D2*
X4002725D1*
X4005623Y4082742D1*
X4002725Y4086364D1*
X3993965Y4090070D1*
X3985273D1*
X3976513Y4086364D1*
X3970650Y4079120D1*
X3967753Y4068170D1*
Y4060926D1*
X3970650Y4049976D1*
X3976513Y4042648D1*
X3985273Y4039026D1*
X3993965D1*
X4002725Y4042648D1*
X4005623Y4046354D1*
X4008588Y4053598D1*
X2603587Y2631592D2*
Y2573304D1*
X2606485Y2562354D1*
X2609450Y2558732D1*
X2615245Y2555026D1*
X2621107D1*
X2626902Y2558732D1*
X2629800Y2562354D1*
X2632765Y2573304D1*
Y2580548D1*
X2584764Y2591498D2*
X2558484D1*
X2549791Y2595120D1*
X2546826Y2598826D1*
X2543929Y2606070D1*
Y2617020D1*
X2546826Y2624264D1*
X2549791Y2627970D1*
X2558484Y2631592D1*
X2584764D1*
Y2555026D1*
X2490133Y2620642D2*
X2493030Y2627886D1*
X2501790Y2631508D1*
X2507585D1*
X2516345Y2627886D1*
X2522208Y2616936D1*
X2525105Y2598742D1*
Y2580548D1*
X2522208Y2565976D1*
X2516345Y2558648D1*
X2507585Y2555026D1*
X2504688D1*
X2495995Y2558648D1*
X2490133Y2565976D1*
X2487235Y2576926D1*
Y2580548D1*
X2490133Y2591498D1*
X2495995Y2598742D1*
X2504688Y2602364D1*
X2507585D1*
X2516345Y2598742D1*
X2522208Y2591498D1*
X2525105Y2580548D1*
X1487070Y4345594D2*
Y4287306D1*
X1489967Y4276356D1*
X1492932Y4272734D1*
X1498727Y4269028D1*
X1504590D1*
X1510385Y4272734D1*
X1513282Y4276356D1*
X1516247Y4287306D1*
Y4294550D1*
X1468246Y4305500D2*
X1441966D1*
X1433274Y4309122D1*
X1430309Y4312828D1*
X1427411Y4320072D1*
Y4331022D1*
X1430309Y4338266D1*
X1433274Y4341972D1*
X1441966Y4345594D1*
X1468246D1*
Y4269028D1*
X1396930D2*
X1367753Y4345509D1*
X1408588D1*
X5327247Y3734120D2*
X5301034D1*
X5292274Y3737826D1*
X5289309Y3741448D1*
X5286412Y3748692D1*
Y3756020D1*
X5289309Y3763264D1*
X5292274Y3766970D1*
X5301034Y3770592D1*
X5327247D1*
Y3694026D1*
X5306829Y3734120D2*
X5286412Y3694026D1*
X5264623Y3752314D2*
Y3755936D1*
X5261726Y3763264D1*
X5258828Y3766886D1*
X5252966Y3770508D1*
X5241308D1*
X5235513Y3766886D1*
X5232616Y3763264D1*
X5229651Y3755936D1*
Y3748692D1*
X5232616Y3741364D1*
X5238411Y3730498D1*
X5267588Y3694026D1*
X5226753D1*
X5337247Y3464120D2*
X5311034D1*
X5302274Y3467826D1*
X5299309Y3471448D1*
X5296412Y3478692D1*
Y3486020D1*
X5299309Y3493264D1*
X5302274Y3496970D1*
X5311034Y3500592D1*
X5337247D1*
Y3424026D1*
X5316829Y3464120D2*
X5296412Y3424026D1*
X5271726Y3500508D2*
X5239718D1*
X5257171Y3471364D1*
X5248411D1*
X5242616Y3467742D1*
X5239718Y3464120D1*
X5236753Y3453170D1*
Y3445926D1*
X5239718Y3434976D1*
X5245513Y3427648D1*
X5254273Y3424026D1*
X5263033D1*
X5271726Y3427648D1*
X5274623Y3431354D1*
X5277588Y3438598D1*
X5328696Y3214120D2*
X5302483D1*
X5293723Y3217826D1*
X5290758Y3221448D1*
X5287861Y3228692D1*
Y3236020D1*
X5290758Y3243264D1*
X5293723Y3246970D1*
X5302483Y3250592D1*
X5328696D1*
Y3174026D1*
X5308278Y3214120D2*
X5287861Y3174026D1*
X5239859D2*
Y3250508D1*
X5269037Y3199548D1*
X5225304D1*
X5327247Y2954120D2*
X5301034D1*
X5292274Y2957826D1*
X5289309Y2961448D1*
X5286412Y2968692D1*
Y2976020D1*
X5289309Y2983264D1*
X5292274Y2986970D1*
X5301034Y2990592D1*
X5327247D1*
Y2914026D1*
X5306829Y2954120D2*
X5286412Y2914026D1*
X5232616Y2990508D2*
X5261726D1*
X5264623Y2957742D1*
X5261726Y2961364D1*
X5252966Y2965070D1*
X5244273D1*
X5235513Y2961364D1*
X5229651Y2954120D1*
X5226753Y2943170D1*
Y2935926D1*
X5229651Y2924976D1*
X5235513Y2917648D1*
X5244273Y2914026D1*
X5252966D1*
X5261726Y2917648D1*
X5264623Y2921354D1*
X5267588Y2928598D1*
X5325764Y2704120D2*
X5299552D1*
X5290792Y2707826D1*
X5287827Y2711448D1*
X5284929Y2718692D1*
Y2726020D1*
X5287827Y2733264D1*
X5290792Y2736970D1*
X5299552Y2740592D1*
X5325764D1*
Y2664026D1*
X5305347Y2704120D2*
X5284929Y2664026D1*
X5231133Y2729642D2*
X5234031Y2736886D1*
X5242791Y2740508D1*
X5248586D1*
X5257346Y2736886D1*
X5263208Y2725936D1*
X5266106Y2707742D1*
Y2689548D1*
X5263208Y2674976D1*
X5257346Y2667648D1*
X5248586Y2664026D1*
X5245688D1*
X5236996Y2667648D1*
X5231133Y2674976D1*
X5228236Y2685926D1*
Y2689548D1*
X5231133Y2700498D1*
X5236996Y2707742D1*
X5245688Y2711364D1*
X5248586D1*
X5257346Y2707742D1*
X5263208Y2700498D1*
X5266106Y2689548D1*
X4891880Y3359247D2*
Y3333034D1*
X4888174Y3324274D1*
X4884552Y3321310D1*
X4877308Y3318412D1*
X4869980D1*
X4862736Y3321310D1*
X4859030Y3324274D1*
X4855408Y3333034D1*
Y3359247D1*
X4931974D1*
X4891880Y3338829D2*
X4931974Y3318412D1*
Y3287931D2*
X4855492Y3258753D1*
Y3299589D1*
X4671880Y3359213D2*
Y3333001D1*
X4668174Y3324241D1*
X4664552Y3321276D1*
X4657308Y3318378D1*
X4649980D1*
X4642736Y3321276D1*
X4639030Y3324241D1*
X4635408Y3333001D1*
Y3359213D1*
X4711974D1*
X4671880Y3338796D2*
X4711974Y3318378D1*
X4635492Y3285000D2*
X4639114Y3293692D1*
X4646358Y3296657D1*
X4653686D1*
X4660930Y3293692D1*
X4664636Y3287897D1*
X4668258Y3276240D1*
X4671880Y3267480D1*
X4679208Y3261685D1*
X4686452Y3258787D1*
X4697402D1*
X4704646Y3261685D1*
X4708352Y3264582D1*
X4711974Y3273342D1*
Y3285000D1*
X4708352Y3293692D1*
X4704646Y3296657D1*
X4697402Y3299555D1*
X4686452D1*
X4679208Y3296657D1*
X4671880Y3290795D1*
X4668258Y3282102D1*
X4664636Y3270445D1*
X4660930Y3264582D1*
X4653686Y3261685D1*
X4646358D1*
X4639114Y3264582D1*
X4635492Y3273342D1*
Y3285000D1*
X3821880Y2547798D2*
Y2521586D1*
X3818174Y2512826D1*
X3814552Y2509861D1*
X3807308Y2506963D1*
X3799980D1*
X3792736Y2509861D1*
X3789030Y2512826D1*
X3785408Y2521586D1*
Y2547798D1*
X3861974D1*
X3821880Y2527381D2*
X3861974Y2506963D1*
X3810930Y2450202D2*
X3821880Y2453167D1*
X3829208Y2458962D1*
X3832830Y2467722D1*
Y2470620D1*
X3829208Y2479380D1*
X3821880Y2485175D1*
X3810930Y2488140D1*
X3807308D1*
X3796358Y2485175D1*
X3789114Y2479380D1*
X3785492Y2470620D1*
Y2467722D1*
X3789114Y2458962D1*
X3796358Y2453167D1*
X3810930Y2450202D1*
X3829208D1*
X3847402Y2453167D1*
X3858352Y2458962D1*
X3861974Y2467722D1*
Y2473517D1*
X3858352Y2482277D1*
X3851024Y2485175D1*
X3659880Y4391970D2*
Y4365757D1*
X3656174Y4356997D1*
X3652552Y4354032D1*
X3645308Y4351135D1*
X3637980D1*
X3630736Y4354032D1*
X3627030Y4356997D1*
X3623408Y4365757D1*
Y4391970D1*
X3699974D1*
X3659880Y4371552D2*
X3699974Y4351135D1*
X3638064Y4332311D2*
X3634358Y4326449D1*
X3623492Y4317689D1*
X3699974D1*
X3623492Y4281346D2*
X3627114Y4290106D1*
X3638064Y4295968D1*
X3656258Y4298865D1*
X3667208D1*
X3685402Y4295968D1*
X3696352Y4290105D1*
X3699974Y4281345D1*
Y4275550D1*
X3696352Y4266790D1*
X3685402Y4260995D1*
X3667208Y4258030D1*
X3656258D1*
X3638064Y4260995D1*
X3627114Y4266790D1*
X3623492Y4275550D1*
Y4281346D1*
X3638064Y4260995D2*
X3685402Y4295968D1*
X2990864Y3934120D2*
X2964651D1*
X2955891Y3937826D1*
X2952926Y3941448D1*
X2950028Y3948692D1*
Y3956020D1*
X2952926Y3963264D1*
X2955891Y3966970D1*
X2964651Y3970592D1*
X2990864D1*
Y3894026D1*
X2970446Y3934120D2*
X2950028Y3894026D1*
X2931205Y3955936D2*
X2925342Y3959642D1*
X2916582Y3970508D1*
Y3894026D1*
X2897759Y3955936D2*
X2891896Y3959642D1*
X2883136Y3970508D1*
Y3894026D1*
X1873774Y2403092D2*
Y2348426D1*
X1870876Y2337476D1*
X1865014Y2330232D1*
X1856254Y2326526D1*
X1850458D1*
X1841698Y2330232D1*
X1835836Y2337476D1*
X1832938Y2348426D1*
Y2403092D1*
X1811150Y2384814D2*
Y2388436D1*
X1808252Y2395764D1*
X1805355Y2399386D1*
X1799492Y2403008D1*
X1787835D1*
X1782040Y2399386D1*
X1779142Y2395764D1*
X1776177Y2388436D1*
Y2381192D1*
X1779142Y2373864D1*
X1784937Y2362998D1*
X1814115Y2326526D1*
X1773280D1*
X5125516Y4441005D2*
X5132759Y4448333D1*
X5143709Y4451955D1*
X5158281D1*
X5169231Y4448333D1*
X5176559Y4441005D1*
Y4433761D1*
X5172853Y4426433D1*
X5169231Y4422811D1*
X5161987Y4419189D1*
X5140087Y4411861D1*
X5132759Y4408239D1*
X5129137Y4404533D1*
X5125516Y4397289D1*
Y4386339D1*
X5132759Y4379095D1*
X5143709Y4375389D1*
X5158281D1*
X5169231Y4379095D1*
X5176559Y4386339D1*
X5101986Y4451955D2*
X5083708Y4375389D1*
X5065514Y4451955D1*
X5047320Y4375389D1*
X5029042Y4451955D1*
X5005513D2*
Y4375389D1*
X4979991D1*
X4969041Y4379095D1*
X4961713Y4386339D1*
X4958091Y4393667D1*
X4954469Y4404533D1*
Y4422811D1*
X4958091Y4433761D1*
X4961713Y4441005D1*
X4969041Y4448333D1*
X4979991Y4451955D1*
X5005513D1*
X3019045D2*
Y4375389D1*
X2991809Y4433677D2*
Y4437299D1*
X2988187Y4444627D1*
X2984566Y4448249D1*
X2977237Y4451871D1*
X2962666D1*
X2955422Y4448249D1*
X2951800Y4444627D1*
X2948094Y4437299D1*
Y4430055D1*
X2951800Y4422727D1*
X2959044Y4411861D1*
X2995516Y4375389D1*
X2944472D1*
X2866277Y4433761D2*
X2869898Y4441005D1*
X2877227Y4448333D1*
X2884470Y4451955D1*
X2899042D1*
X2906370Y4448333D1*
X2913614Y4441005D1*
X2917320Y4433761D1*
X2920942Y4422811D1*
Y4404533D1*
X2917320Y4393667D1*
X2913614Y4386339D1*
X2906370Y4379095D1*
X2899042Y4375389D1*
X2884470D1*
X2877227Y4379095D1*
X2869898Y4386339D1*
X2866277Y4393667D1*
X2842747Y4437299D2*
X2835419Y4441005D1*
X2824469Y4451871D1*
Y4375389D1*
X5792751Y5083761D2*
X5796373Y5091005D1*
X5803701Y5098333D1*
X5810945Y5101955D1*
X5825517D1*
X5832845Y5098333D1*
X5840089Y5091005D1*
X5843795Y5083761D1*
X5847417Y5072811D1*
Y5054533D1*
X5843795Y5043667D1*
X5840089Y5036339D1*
X5832845Y5029095D1*
X5825517Y5025389D1*
X5810945D1*
X5803701Y5029095D1*
X5796373Y5036339D1*
X5792751Y5043667D1*
X5710850Y5025389D2*
X5740078Y5101955D1*
X5769222Y5025389D1*
X5758272Y5050911D2*
X5721800D1*
X5636277Y5101955D2*
Y5025389D1*
X5687320Y5101955D1*
Y5025389D1*
X5612747Y5087299D2*
X5605419Y5091005D1*
X5594469Y5101871D1*
Y5025389D1*
X5409292Y3987132D2*
X5354626D1*
X5343676Y3990754D1*
X5336432Y3998082D1*
X5332726Y4009032D1*
Y4016276D1*
X5336432Y4027226D1*
X5343676Y4034554D1*
X5354626Y4038176D1*
X5409292D1*
X5332726Y4120077D2*
X5409291Y4090849D1*
X5332726Y4061705D1*
X5358248Y4072655D2*
Y4109127D1*
X5372820Y4143606D2*
Y4176372D1*
X5376526Y4187322D1*
X5380148Y4191028D1*
X5387391Y4194650D1*
X5394720D1*
X5401963Y4191028D1*
X5405670Y4187322D1*
X5409291Y4176372D1*
Y4143606D1*
X5332726D1*
X5372820Y4169128D2*
X5332726Y4194650D1*
X5409291Y4243701D2*
X5332726Y4243702D1*
X5409291Y4218179D2*
X5409292Y4269223D1*
X5394635Y4292753D2*
X5398342Y4300081D1*
X5409207Y4311031D1*
X5332726D1*
X5431811Y1801955D2*
Y1725389D1*
X5404575Y1783677D2*
Y1787299D1*
X5400953Y1794627D1*
X5397331Y1798249D1*
X5390003Y1801871D1*
X5375431D1*
X5368187Y1798249D1*
X5364566Y1794627D1*
X5360859Y1787299D1*
Y1780055D1*
X5364566Y1772727D1*
X5371809Y1761861D1*
X5408281Y1725389D1*
X5357237D1*
X5279042Y1783761D2*
X5282664Y1791005D1*
X5289992Y1798333D1*
X5297236Y1801955D1*
X5311808D1*
X5319136Y1798333D1*
X5326380Y1791005D1*
X5330086Y1783761D1*
X5333708Y1772811D1*
Y1754533D1*
X5330086Y1743667D1*
X5326380Y1736339D1*
X5319136Y1729095D1*
X5311808Y1725389D1*
X5297236D1*
X5289992Y1729095D1*
X5282664Y1736339D1*
X5279042Y1743667D1*
X5251807Y1783677D2*
Y1787299D1*
X5248185Y1794627D1*
X5244563Y1798249D1*
X5237235Y1801871D1*
X5222663D1*
X5215419Y1798249D1*
X5211797Y1794627D1*
X5208091Y1787299D1*
Y1780055D1*
X5211797Y1772727D1*
X5219041Y1761861D1*
X5255513Y1725389D1*
X5204469D1*
X3084379Y1771005D2*
X3091623Y1778333D1*
X3102573Y1781955D1*
X3117145D1*
X3128095Y1778333D1*
X3135423Y1771005D1*
Y1763761D1*
X3131717Y1756433D1*
X3128095Y1752811D1*
X3120851Y1749189D1*
X3098951Y1741861D1*
X3091623Y1738239D1*
X3088001Y1734533D1*
X3084379Y1727289D1*
Y1716339D1*
X3091623Y1709095D1*
X3102573Y1705389D1*
X3117145D1*
X3128095Y1709095D1*
X3135423Y1716339D1*
X3060850Y1741861D2*
X3028000D1*
X3017134Y1745483D1*
X3013428Y1749189D1*
X3009806Y1756433D1*
Y1767383D1*
X3013428Y1774627D1*
X3017134Y1778333D1*
X3028000Y1781955D1*
X3060850D1*
Y1705389D1*
X2986277Y1781955D2*
Y1705389D1*
X2962747Y1767299D2*
X2955419Y1771005D1*
X2944469Y1781871D1*
Y1705389D1*
X2591134Y1791955D2*
Y1737289D1*
X2587512Y1726339D1*
X2580184Y1719095D1*
X2569234Y1715389D1*
X2561990D1*
X2551040Y1719095D1*
X2543712Y1726339D1*
X2540090Y1737289D1*
Y1791955D1*
X2458189Y1715389D2*
X2487417Y1791955D1*
X2516561Y1715389D1*
X2505611Y1740911D2*
X2469139D1*
X2434659Y1755483D2*
X2401894D1*
X2390944Y1759189D1*
X2387237Y1762811D1*
X2383616Y1770055D1*
Y1777383D1*
X2387237Y1784627D1*
X2390944Y1788333D1*
X2401894Y1791955D1*
X2434659D1*
Y1715389D1*
X2409137Y1755483D2*
X2383616Y1715389D1*
X2334564Y1791955D2*
Y1715389D1*
X2360086Y1791955D2*
X2309042D1*
X2281807Y1773677D2*
Y1777299D1*
X2278185Y1784627D1*
X2274563Y1788249D1*
X2267235Y1791871D1*
X2252663D1*
X2245419Y1788249D1*
X2241797Y1784627D1*
X2238091Y1777299D1*
Y1770055D1*
X2241797Y1762727D1*
X2249041Y1751861D1*
X2285513Y1715389D1*
X2234469D1*
X5064706Y2874964D2*
X5075656Y2871342D1*
X5082984Y2860392D1*
X5086606Y2842198D1*
Y2831248D1*
X5082984Y2813054D1*
X5075656Y2802104D1*
X5064706Y2798483D1*
X5057462D1*
X5046512Y2802104D1*
X5039269Y2813054D1*
X5035562Y2831248D1*
Y2842198D1*
X5039269Y2860392D1*
X5046512Y2871342D1*
X5057462Y2874964D1*
X5064706D1*
X5039269Y2860392D2*
X5082984Y2813054D1*
X4213840Y4380392D2*
X4206512Y4384098D1*
X4195562Y4394964D1*
Y4318483D1*
X5073840Y3110392D2*
X5066512Y3114098D1*
X5055562Y3124964D1*
Y3048483D1*
X4243840Y2350392D2*
X4236512Y2354098D1*
X4225562Y2364964D1*
Y2288483D1*
X4279694Y2590552D2*
Y2513986D1*
X4246844D1*
X4235894Y2517692D1*
X4232272Y2521314D1*
X4228650Y2528558D1*
Y2539508D1*
X4232272Y2546836D1*
X4235894Y2550458D1*
X4246844Y2554080D1*
X4235894Y2557786D1*
X4232272Y2561408D1*
X4228650Y2568652D1*
Y2575980D1*
X4232272Y2583224D1*
X4235894Y2586930D1*
X4246844Y2590552D1*
X4279694D1*
Y2554080D2*
X4246844D1*
X4183220Y2590552D2*
X4190548Y2586930D1*
X4197792Y2579602D1*
X4201498Y2572358D1*
X4205120Y2561408D1*
Y2543130D1*
X4201498Y2532264D1*
X4197792Y2524936D1*
X4190548Y2517692D1*
X4183220Y2513986D1*
X4168648D1*
X4161405Y2517692D1*
X4154076Y2524936D1*
X4150455Y2532264D1*
X4146833Y2543130D1*
Y2561408D1*
X4150455Y2572358D1*
X4154076Y2579602D1*
X4161405Y2586930D1*
X4168648Y2590552D1*
X4183220D1*
X4101403D2*
X4108731Y2586930D1*
X4115975Y2579602D1*
X4119681Y2572358D1*
X4123303Y2561408D1*
Y2543130D1*
X4119681Y2532264D1*
X4115975Y2524936D1*
X4108731Y2517692D1*
X4101403Y2513986D1*
X4086831D1*
X4079587Y2517692D1*
X4072259Y2524936D1*
X4068637Y2532264D1*
X4065016Y2543130D1*
Y2561408D1*
X4068637Y2572358D1*
X4072259Y2579602D1*
X4079587Y2586930D1*
X4086831Y2590552D1*
X4101403D1*
X4015964D2*
Y2513986D1*
X4041486Y2590552D2*
X3990442D1*
X3945013Y2590467D2*
X3955963Y2586845D1*
X3963291Y2575895D1*
X3966913Y2557702D1*
Y2546752D1*
X3963291Y2528558D1*
X3955963Y2517608D1*
X3945013Y2513986D1*
X3937769D1*
X3926819Y2517608D1*
X3919575Y2528558D1*
X3915869Y2546752D1*
Y2557702D1*
X3919575Y2575895D1*
X3926819Y2586845D1*
X3937769Y2590467D1*
X3945013D1*
X3919575Y2575895D2*
X3963291Y2528558D1*
X4289138Y4426781D2*
X4365704D1*
Y4393931D1*
X4361998Y4382981D1*
X4358376Y4379359D1*
X4351132Y4375737D1*
X4340182D1*
X4332854Y4379359D1*
X4329232Y4382981D1*
X4325610Y4393931D1*
X4321904Y4382981D1*
X4318282Y4379359D1*
X4311038Y4375737D1*
X4303710D1*
X4296467Y4379359D1*
X4292760Y4382981D1*
X4289138Y4393931D1*
Y4426781D1*
X4325610D2*
Y4393931D1*
X4289139Y4330308D2*
X4292760Y4337636D1*
X4300088Y4344880D1*
X4307332Y4348586D1*
X4318282Y4352208D1*
X4336560D1*
X4347426Y4348586D1*
X4354754Y4344880D1*
X4361998Y4337636D1*
X4365704Y4330308D1*
Y4315736D1*
X4361998Y4308492D1*
X4354754Y4301164D1*
X4347426Y4297542D1*
X4336560Y4293920D1*
X4318282D1*
X4307332Y4297542D1*
X4300089Y4301164D1*
X4292760Y4308492D1*
X4289139Y4315736D1*
Y4330308D1*
Y4248491D2*
X4292760Y4255819D1*
X4300089Y4263063D1*
X4307332Y4266769D1*
X4318282Y4270391D1*
X4336560D1*
X4347426Y4266769D1*
X4354754Y4263063D1*
X4361998Y4255819D1*
X4365704Y4248491D1*
Y4233919D1*
X4361998Y4226675D1*
X4354754Y4219347D1*
X4347426Y4215725D1*
X4336560Y4212103D1*
X4318282D1*
X4307332Y4215725D1*
X4300089Y4219347D1*
X4292760Y4226675D1*
X4289139Y4233919D1*
Y4248491D1*
Y4163052D2*
X4365704D1*
X4289139Y4188574D2*
X4289138Y4137530D1*
X4303795Y4114001D2*
X4300088Y4106673D1*
X4289223Y4095723D1*
X4365704D1*
X4244706Y2174964D2*
X4255656Y2171342D1*
X4262984Y2160392D1*
X4266606Y2142198D1*
Y2131248D1*
X4262984Y2113054D1*
X4255656Y2102104D1*
X4244706Y2098483D1*
X4237462D1*
X4226512Y2102104D1*
X4219269Y2113054D1*
X4215562Y2131248D1*
Y2142198D1*
X4219269Y2160392D1*
X4226512Y2171342D1*
X4237462Y2174964D1*
X4244706D1*
X4219269Y2160392D2*
X4262984Y2113054D1*
X4207026Y4234964D2*
X4217976Y4231342D1*
X4225304Y4220392D1*
X4228926Y4202198D1*
Y4191248D1*
X4225304Y4173054D1*
X4217976Y4162104D1*
X4207026Y4158483D1*
X4199782D1*
X4188832Y4162104D1*
X4181589Y4173054D1*
X4177882Y4191248D1*
Y4202198D1*
X4181589Y4220392D1*
X4188832Y4231342D1*
X4199782Y4234964D1*
X4207026D1*
X4181589Y4220392D2*
X4225304Y4173054D1*
X5073840Y3620392D2*
X5066512Y3624098D1*
X5055562Y3634964D1*
Y3558483D1*
X5063840Y3360392D2*
X5056512Y3364098D1*
X5045562Y3374964D1*
Y3298483D1*
X5074706Y2604964D2*
X5085656Y2601342D1*
X5092984Y2590392D1*
X5096606Y2572198D1*
Y2561248D1*
X5092984Y2543054D1*
X5085656Y2532104D1*
X5074706Y2528483D1*
X5067462D1*
X5056512Y2532104D1*
X5049269Y2543054D1*
X5045562Y2561248D1*
Y2572198D1*
X5049269Y2590392D1*
X5056512Y2601342D1*
X5067462Y2604964D1*
X5074706D1*
X5049269Y2590392D2*
X5092984Y2543054D1*
M02*
